<?xml version="1.0" encoding="UTF-8" standalone="no"?>
<!DOCTYPE svg PUBLIC "-//W3C//DTD SVG 1.1//EN" "http://www.w3.org/Graphics/SVG/1.1/DTD/svg11.dtd">
<svg xmlns="http://www.w3.org/2000/svg" version="1.1" viewBox="0 0 470 265">
<g stroke-width="2.0" fill="none" stroke-linecap="butt">
<path stroke="#808080" vector-effect="non-scaling-stroke" d="
  M 64.45 156.75
  Q 65.30 156.86 64.61 157.37
  Q 60.72 160.27 63.70 162.45
  Q 65.63 163.87 64.98 166.19
  Q 62.06 176.51 69.84 179.69
  Q 72.35 180.71 75.28 180.44
  Q 77.90 180.19 80.75 179.25
  Q 105.20 171.14 129.56 162.78
  Q 136.32 160.46 139.32 158.77
  Q 144.11 156.07 147.75 152.25
  Q 157.55 141.97 158.29 128.29
  Q 158.70 120.49 155.73 113.04
  Q 152.76 105.60 147.31 99.69
  Q 138.97 90.63 127.39 86.32
  Q 122.96 84.67 117.38 84.23
  Q 112.25 83.82 107.09 83.88
  Q 100.63 83.95 98.92 84.14
  Q 94.90 84.57 90.94 86.19
  Q 73.95 93.10 67.25 110.00
  Q 65.12 115.38 65.14 122.72
  Q 65.14 125.18 64.20 126.93
  Q 61.06 132.79 55.79 137.00
  Q 53.54 138.80 54.27 143.48
  Q 54.61 145.66 56.04 146.26
  L 60.94 148.31
  A 1.49 1.29 26.1 0 1 61.76 150.24
  Q 58.42 155.93 64.45 156.75"
/>
<path stroke="#808080" vector-effect="non-scaling-stroke" d="
  M 295.53 107.96
  A 4.30 4.30 0.0 0 0 291.23 103.66
  A 4.30 4.30 0.0 0 0 286.93 107.96
  A 4.30 4.30 0.0 0 0 291.23 112.26
  A 4.30 4.30 0.0 0 0 295.53 107.96"
/>
<path stroke="#808080" vector-effect="non-scaling-stroke" d="
  M 329.31 142.80
  L 328.76 148.44
  A 0.57 0.51 2.3 0 0 329.33 149.00
  L 333.36 149.00
  A 0.63 0.63 -88.1 0 0 333.99 148.41
  Q 334.73 138.28 336.74 128.50
  Q 339.17 116.63 341.55 104.51
  A 0.64 0.64 5.5 0 0 340.92 103.75
  L 336.67 103.75
  A 0.63 0.63 5.5 0 0 336.05 104.26
  L 333.59 116.57
  A 0.57 0.56 8.4 0 1 332.98 117.02
  Q 328.88 116.62 325.00 116.82
  Q 320.45 117.04 316.92 119.39
  Q 313.71 121.51 311.56 125.50
  Q 308.26 131.63 308.50 139.75
  Q 308.65 144.86 311.65 147.43
  Q 314.40 149.78 318.83 149.24
  Q 324.96 148.50 328.54 142.80
  Q 328.71 142.52 328.96 142.40
  Q 329.37 142.20 329.31 142.80"
/>
<path stroke="#808080" vector-effect="non-scaling-stroke" d="
  M 395.60 112.80
  L 389.59 143.49
  A 0.66 0.63 5.3 0 1 388.95 144.00
  L 380.40 144.00
  A 0.64 0.64 -89.5 0 0 379.76 144.63
  Q 379.72 146.95 379.04 148.42
  A 0.41 0.40 -77.3 0 0 379.40 149.00
  Q 391.38 149.00 403.25 149.00
  Q 404.66 149.00 404.37 147.48
  Q 404.30 147.11 404.42 146.53
  L 404.79 144.69
  A 0.49 0.43 6.1 0 0 404.32 144.17
  L 395.94 143.83
  A 0.43 0.43 6.9 0 1 395.54 143.32
  L 401.59 112.92
  A 0.66 0.62 -84.1 0 1 402.19 112.40
  L 410.51 112.24
  A 0.84 0.75 10.6 0 0 411.23 111.80
  Q 412.09 109.96 412.08 107.93
  A 0.52 0.49 0.0 0 0 411.56 107.44
  L 387.81 107.56
  A 0.62 0.61 -84.2 0 0 387.21 108.06
  L 386.57 111.52
  A 0.65 0.62 5.6 0 0 387.20 112.26
  L 395.19 112.30
  A 0.42 0.42 5.7 0 1 395.60 112.80"
/>
<path stroke="#808080" vector-effect="non-scaling-stroke" d="
  M 174.55 130.45
  Q 177.83 129.79 180.07 131.48
  Q 181.69 132.70 182.83 136.22
  Q 184.70 142.06 186.03 148.15
  A 1.07 1.02 83.1 0 0 187.05 148.99
  L 191.93 148.96
  A 0.41 0.40 82.1 0 0 192.31 148.45
  Q 190.27 140.72 187.83 133.10
  Q 187.15 130.98 185.78 129.75
  A 0.60 0.59 -33.4 0 1 185.99 128.75
  Q 194.87 125.74 195.52 117.18
  Q 195.80 113.56 194.20 111.10
  Q 192.18 107.99 188.25 107.75
  Q 181.26 107.33 173.47 107.52
  A 0.65 0.63 5.0 0 0 172.85 108.03
  L 164.84 148.26
  A 0.49 0.43 -83.4 0 0 165.24 148.85
  L 169.58 148.89
  A 1.13 0.94 -82.8 0 0 170.55 147.99
  L 173.95 131.04
  A 0.77 0.75 -0.1 0 1 174.55 130.45"
/>
<path stroke="#808080" vector-effect="non-scaling-stroke" d="
  M 359.71 108.37
  L 338.54 148.26
  A 0.39 0.33 -74.0 0 0 338.80 148.82
  L 343.25 148.80
  A 2.65 1.87 -71.9 0 0 345.20 147.35
  L 348.81 140.50
  A 0.86 0.82 13.1 0 1 349.56 140.06
  L 365.87 140.00
  A 0.65 0.64 87.6 0 1 366.51 140.60
  L 367.05 147.80
  A 1.31 1.30 -2.1 0 0 368.36 149.00
  L 372.90 149.00
  A 0.45 0.45 -3.9 0 0 373.35 148.49
  L 368.18 108.17
  A 0.65 0.65 88.9 0 0 367.60 107.61
  Q 363.49 107.20 360.42 107.83
  A 1.05 1.03 -81.8 0 0 359.71 108.37"
/>
<path stroke="#808080" vector-effect="non-scaling-stroke" d="
  M 221.74 143.22
  L 221.43 148.08
  A 0.69 0.52 -81.1 0 0 221.78 148.74
  Q 223.94 149.47 226.09 148.74
  A 0.83 0.78 84.6 0 0 226.62 148.06
  Q 228.52 132.55 231.65 117.24
  A 0.39 0.35 -88.9 0 0 231.24 116.77
  L 227.53 117.51
  Q 226.91 117.64 226.59 117.54
  Q 219.51 115.42 213.33 117.73
  Q 207.45 119.93 204.09 125.94
  Q 200.09 133.12 201.49 141.75
  Q 201.97 144.71 203.24 146.46
  Q 205.04 148.93 207.75 149.25
  Q 216.35 150.26 221.12 143.07
  Q 221.82 142.02 221.74 143.22"
/>
<path stroke="#808080" vector-effect="non-scaling-stroke" d="
  M 245.79 122.95
  L 246.26 117.50
  A 0.53 0.50 -87.4 0 0 245.76 116.92
  L 241.54 116.93
  A 0.68 0.51 -87.1 0 0 241.02 117.56
  Q 240.27 127.50 238.27 137.25
  Q 235.88 148.90 233.48 160.96
  A 0.85 0.80 -84.1 0 0 234.26 161.97
  L 238.44 161.96
  A 0.63 0.61 -84.2 0 0 239.04 161.45
  L 241.38 149.16
  A 0.64 0.61 -79.9 0 1 242.08 148.65
  Q 260.99 151.44 265.56 135.25
  Q 266.33 132.51 266.52 129.18
  Q 266.74 125.47 266.25 123.00
  Q 265.49 119.16 262.26 117.49
  Q 259.63 116.13 256.07 116.58
  Q 249.85 117.35 246.43 123.20
  Q 245.66 124.53 245.79 122.95"
/>
<path stroke="#808080" vector-effect="non-scaling-stroke" d="
  M 285.95 126.44
  Q 284.87 132.01 283.88 137.60
  Q 282.93 143.01 283.41 144.95
  Q 284.55 149.55 291.00 149.25
  Q 296.13 149.01 299.76 146.94
  A 0.88 0.85 -15.0 0 0 300.21 146.19
  L 300.25 142.39
  A 0.42 0.41 -13.9 0 0 299.64 142.03
  Q 296.82 143.58 294.17 144.36
  Q 288.07 146.16 289.21 139.79
  Q 290.62 131.94 291.76 124.06
  Q 292.26 120.57 290.33 118.42
  Q 288.74 116.66 285.51 116.49
  Q 280.23 116.20 275.50 118.81
  A 0.93 0.85 -15.4 0 0 275.03 119.56
  L 275.01 122.99
  Q 275.01 124.11 275.98 123.51
  Q 278.12 122.20 280.50 121.51
  Q 287.28 119.54 285.95 126.44"
/>
<path stroke="#808080" vector-effect="non-scaling-stroke" d="
  M 160.07 188.18
  Q 147.75 182.16 134.74 176.81
  A 1.37 1.26 -80.1 0 1 133.97 175.61
  L 133.76 164.81
  A 0.94 0.90 -10.6 0 0 132.52 163.99
  L 88.03 179.39
  A 0.92 0.90 -3.8 0 0 87.45 180.04
  Q 86.45 184.72 87.23 189.45
  A 0.59 0.58 -4.6 0 0 87.81 189.94
  Q 123.47 190.04 159.14 190.00
  Q 159.85 190.00 160.33 189.82
  Q 162.11 189.17 160.07 188.18"
/>
<path stroke="#808080" vector-effect="non-scaling-stroke" d="
  M 257.44 171.94
  Q 255.43 174.87 256.14 178.21
  Q 256.82 181.47 259.45 183.07
  Q 262.73 185.07 266.83 182.75
  A 0.88 0.83 76.0 0 0 267.25 182.00
  L 267.25 176.94
  A 1.10 1.09 -3.9 0 0 266.00 175.86
  Q 262.74 176.32 263.90 177.66
  A 1.29 0.46 0.7 0 0 264.74 177.97
  Q 265.45 178.06 265.50 179.00
  Q 265.68 182.33 262.50 181.96
  Q 259.11 181.57 258.37 178.28
  Q 257.37 173.79 261.06 171.31
  Q 262.53 170.33 264.57 171.49
  A 1.77 0.95 43.3 0 0 265.50 171.74
  Q 266.74 171.62 266.60 170.48
  A 0.96 0.82 11.9 0 0 266.06 169.78
  Q 260.63 167.28 257.44 171.94"
/>
<path stroke="#808080" vector-effect="non-scaling-stroke" d="
  M 211.13 175.30
  Q 211.10 173.50 212.11 174.95
  L 217.95 183.33
  Q 219.19 185.11 219.20 182.95
  L 219.25 170.25
  A 0.81 0.79 -76.9 0 0 218.80 169.51
  Q 216.55 168.44 216.77 171.27
  Q 217.00 174.25 217.00 177.46
  Q 217.00 178.95 216.13 177.74
  L 210.74 170.19
  Q 208.99 167.73 209.00 170.73
  L 209.06 182.94
  A 0.66 0.59 -85.3 0 0 209.54 183.58
  Q 210.18 183.70 210.80 183.47
  A 0.77 0.71 79.7 0 0 211.26 182.75
  L 211.13 175.30"
/>
<path stroke="#808080" vector-effect="non-scaling-stroke" d="
  M 332.29 170.39
  A 1.16 1.16 0.0 0 0 331.13 169.23
  A 1.16 1.16 0.0 0 0 329.97 170.39
  A 1.16 1.16 0.0 0 0 331.13 171.55
  A 1.16 1.16 0.0 0 0 332.29 170.39"
/>
<path stroke="#808080" vector-effect="non-scaling-stroke" d="
  M 242.97 172.85
  Q 241.27 173.55 243.10 175.04
  A 1.07 1.06 19.4 0 1 243.50 175.87
  Q 243.50 177.50 243.42 179.25
  Q 243.20 184.37 248.01 183.82
  A 0.94 0.77 4.3 0 0 248.74 183.31
  Q 248.90 182.87 248.74 182.43
  A 0.79 0.56 -9.5 0 0 248.00 182.07
  Q 246.93 182.16 246.08 181.61
  A 1.38 1.09 -85.4 0 1 245.56 180.83
  Q 244.88 177.92 245.67 175.05
  A 0.59 0.56 11.4 0 1 246.31 174.65
  Q 248.48 174.98 248.10 173.53
  A 0.60 0.53 -11.2 0 0 247.45 173.15
  Q 244.86 173.51 245.31 171.30
  A 0.58 0.51 -76.5 0 0 244.96 170.64
  Q 243.23 170.15 243.38 172.20
  A 0.67 0.63 -14.5 0 1 242.97 172.85"
/>
<path stroke="#808080" vector-effect="non-scaling-stroke" d="
  M 324.04 172.44
  L 323.96 171.06
  A 0.56 0.53 88.3 0 0 323.43 170.53
  Q 321.82 170.54 321.69 172.18
  A 1.04 0.97 75.6 0 1 321.27 172.95
  Q 319.60 174.07 321.46 174.68
  A 0.63 0.63 10.6 0 1 321.90 175.32
  Q 321.62 179.29 322.06 180.94
  Q 323.16 184.98 327.00 183.50
  Q 327.96 183.13 327.30 182.40
  A 1.20 0.82 -16.0 0 0 326.43 182.11
  Q 323.60 182.28 323.83 179.24
  Q 324.00 177.12 324.00 175.46
  A 1.03 1.02 -84.5 0 1 325.22 174.45
  Q 326.49 174.69 326.67 174.05
  A 0.78 0.60 25.1 0 0 326.27 173.28
  Q 325.49 172.84 324.55 172.88
  A 0.48 0.46 -3.0 0 1 324.04 172.44"
/>
<path stroke="#808080" vector-effect="non-scaling-stroke" d="
  M 225.57 181.89
  Q 223.15 181.37 223.36 179.18
  A 0.61 0.59 -87.8 0 1 223.94 178.63
  L 230.01 178.54
  A 0.74 0.70 -0.0 0 0 230.74 177.85
  Q 230.81 173.93 227.41 173.17
  Q 223.76 172.35 221.90 175.41
  Q 220.08 178.43 221.75 181.25
  Q 224.14 185.29 228.74 183.17
  Q 230.53 182.34 229.21 181.69
  A 1.27 0.91 -36.1 0 0 228.30 181.70
  Q 226.99 182.20 225.57 181.89"
/>
<path stroke="#808080" vector-effect="non-scaling-stroke" d="
  M 236.20 176.06
  Q 235.26 175.71 234.86 174.59
  Q 234.20 172.71 232.56 172.95
  A 0.70 0.65 66.9 0 0 232.17 174.03
  L 234.81 177.69
  Q 235.65 178.85 232.69 181.94
  Q 230.55 184.16 233.57 183.44
  A 1.48 0.80 -66.2 0 0 234.30 182.87
  L 236.00 180.52
  Q 236.51 179.81 236.85 180.64
  Q 238.11 183.66 240.69 183.49
  Q 241.21 183.46 240.89 183.04
  L 237.58 178.67
  A 0.70 0.70 -45.8 0 1 237.57 177.84
  Q 238.96 175.96 240.23 174.24
  Q 241.24 172.87 239.81 172.99
  Q 239.33 173.03 238.93 173.38
  Q 237.74 174.41 236.94 175.75
  A 0.67 0.58 -63.3 0 1 236.20 176.06"
/>
<path stroke="#808080" vector-effect="non-scaling-stroke" d="
  M 274.18 182.05
  Q 271.92 181.50 271.71 179.18
  A 0.49 0.48 86.7 0 1 272.18 178.64
  L 278.70 178.53
  A 0.56 0.53 -0.0 0 0 279.25 178.01
  Q 279.27 175.21 277.57 173.88
  Q 276.08 172.72 273.73 173.16
  Q 270.13 173.84 269.70 177.40
  Q 269.33 180.40 270.97 182.28
  Q 272.90 184.52 276.81 183.31
  Q 278.35 182.84 277.97 181.98
  A 0.76 0.62 -15.7 0 0 277.19 181.64
  Q 276.55 181.75 275.92 181.92
  Q 274.86 182.21 274.18 182.05"
/>
<path stroke="#808080" vector-effect="non-scaling-stroke" d="
  M 282.54 173.52
  Q 281.72 172.36 281.20 173.43
  Q 281.00 173.87 281.00 174.61
  Q 281.00 178.46 281.00 182.67
  A 0.78 0.78 12.3 0 0 281.48 183.39
  Q 283.36 184.16 283.21 182.23
  Q 282.97 179.41 283.05 176.57
  A 1.42 1.25 69.4 0 1 283.39 175.68
  Q 284.96 173.97 286.38 175.12
  Q 287.28 175.84 287.57 177.59
  Q 288.10 180.71 287.75 182.00
  Q 287.14 184.24 288.97 183.62
  A 0.70 0.67 79.9 0 0 289.42 182.94
  Q 289.36 180.60 289.30 178.25
  Q 289.23 175.20 288.31 173.98
  Q 286.65 171.78 283.24 173.68
  A 0.54 0.52 56.7 0 1 282.54 173.52"
/>
<path stroke="#808080" vector-effect="non-scaling-stroke" d="
  M 293.43 179.58
  A 1.01 0.91 -6.2 0 1 294.43 178.46
  L 300.51 178.44
  A 0.61 0.55 -87.8 0 0 301.06 177.87
  Q 301.26 174.89 298.67 173.67
  Q 295.83 172.34 293.78 173.70
  Q 292.13 174.79 291.57 177.33
  Q 290.52 182.03 295.20 183.68
  Q 296.18 184.03 297.32 183.72
  Q 298.40 183.43 299.45 183.09
  A 0.76 0.66 -9.1 0 0 299.99 182.45
  Q 300.03 180.90 298.18 181.54
  Q 294.20 182.92 293.43 179.58"
/>
<path stroke="#808080" vector-effect="non-scaling-stroke" d="
  M 305.15 173.72
  Q 304.64 172.60 303.50 173.08
  A 0.82 0.75 79.0 0 0 303.05 173.81
  L 303.05 182.93
  A 0.74 0.69 -81.2 0 0 303.52 183.62
  Q 305.52 184.26 305.18 181.73
  Q 304.79 178.83 305.43 176.29
  A 2.01 2.00 5.6 0 1 307.28 174.78
  Q 309.51 174.68 309.19 173.46
  A 0.79 0.70 -4.3 0 0 308.50 172.94
  Q 306.89 172.84 305.68 173.85
  A 0.35 0.34 57.9 0 1 305.15 173.72"
/>
<path stroke="#808080" vector-effect="non-scaling-stroke" d="
  M 316.38 176.20
  A 0.39 0.38 78.3 0 1 316.04 176.73
  Q 313.03 176.80 311.39 178.35
  Q 309.92 179.75 310.51 181.62
  Q 311.10 183.51 313.44 183.88
  A 1.71 1.03 -43.7 0 0 314.37 183.67
  Q 316.14 182.69 318.25 183.75
  Q 318.71 183.98 319.00 183.68
  A 0.97 0.62 62.1 0 0 319.07 182.79
  Q 317.92 179.64 318.20 176.25
  A 1.77 1.38 -62.8 0 0 318.02 175.30
  Q 316.07 171.74 312.02 173.37
  A 1.56 1.49 3.9 0 0 311.29 173.98
  Q 310.35 175.55 311.84 175.32
  Q 312.18 175.27 312.98 174.90
  Q 315.36 173.80 316.38 176.20"
/>
<path stroke="#808080" vector-effect="non-scaling-stroke" d="
  M 329.77 175.05
  Q 330.42 179.25 330.00 181.25
  Q 329.39 184.14 331.46 183.59
  A 0.69 0.66 82.9 0 0 331.95 182.93
  L 331.95 173.56
  A 0.53 0.52 -89.4 0 0 331.44 173.03
  L 329.75 172.99
  A 1.34 1.25 23.2 0 0 328.86 173.31
  Q 327.91 174.18 329.20 174.48
  A 0.75 0.70 2.3 0 1 329.77 175.05"
/>
<path stroke="#808080" vector-effect="non-scaling-stroke" d="
  M 338.8329 183.9890
  A 5.58 4.79 91.1 0 0 343.7291 178.5020
  A 5.58 4.79 91.1 0 0 339.0471 172.8310
  A 5.58 4.79 91.1 0 0 334.1509 178.3180
  A 5.58 4.79 91.1 0 0 338.8329 183.9890"
/>
<path stroke="#808080" vector-effect="non-scaling-stroke" d="
  M 347.42 173.62
  Q 346.81 173.05 346.05 173.17
  A 0.67 0.53 86.6 0 0 345.60 173.82
  L 345.61 182.69
  A 0.99 0.75 -78.1 0 0 345.98 183.47
  Q 347.80 184.56 347.25 182.00
  Q 346.80 179.90 347.58 176.17
  A 1.16 1.08 82.8 0 1 348.11 175.43
  Q 351.93 173.26 352.03 179.95
  Q 352.05 181.57 351.85 183.18
  Q 351.73 184.19 353.34 183.72
  A 0.78 0.74 85.6 0 0 353.87 183.07
  Q 354.56 177.35 353.75 175.50
  Q 351.96 171.37 348.16 173.73
  A 0.65 0.58 50.2 0 1 347.42 173.62"
/>
<path stroke="#808080" vector-effect="non-scaling-stroke" d="
  M 74.83 154.79
  Q 75.28 156.68 73.49 157.18
  Q 72.24 157.53 72.16 157.56
  Q 69.36 158.65 66.68 159.76
  A 0.16 0.16 -25.8 0 0 66.60 159.98
  Q 69.00 164.53 68.13 167.79
  Q 65.43 177.88 75.55 176.95
  Q 77.84 176.74 81.50 175.50
  Q 112.06 165.15 127.96 159.63
  Q 137.15 156.43 141.30 153.43
  Q 151.45 146.08 154.12 133.61
  Q 155.59 126.78 154.37 120.36
  Q 153.09 113.60 149.19 107.81
  Q 136.26 88.64 112.76 86.58
  Q 106.77 86.06 100.25 87.25
  Q 77.45 91.43 70.08 112.41
  Q 69.09 115.20 68.91 118.08
  Q 68.74 120.63 68.76 123.91
  Q 68.77 125.24 68.19 126.43
  Q 64.35 134.27 57.35 140.48
  Q 55.76 141.88 57.44 143.17
  Q 59.01 144.37 61.63 145.24
  Q 67.43 147.17 64.57 152.12
  A 0.90 0.89 -72.0 0 0 65.24 153.47
  L 74.18 154.28
  A 0.76 0.65 -2.8 0 1 74.83 154.79"
/>
<path stroke="#808080" vector-effect="non-scaling-stroke" d="
  M 144.48 120.17
  A 25.30 25.30 0.0 0 0 119.18 94.87
  A 25.30 25.30 0.0 0 0 93.88 120.17
  A 25.30 25.30 0.0 0 0 119.18 145.47
  A 25.30 25.30 0.0 0 0 144.48 120.17"
/>
<path stroke="#808080" vector-effect="non-scaling-stroke" d="
  M 84.83 125.51
  A 1.36 1.36 -50.3 0 0 82.59 125.72
  Q 80.23 129.97 77.92 127.47
  Q 77.82 127.36 76.99 125.75
  Q 76.28 124.38 74.67 125.25
  A 1.05 0.97 81.8 0 0 74.15 126.00
  Q 73.76 128.48 75.69 130.06
  Q 80.72 134.19 84.55 129.05
  Q 86.07 127.02 84.83 125.51"
/>
<path stroke="#808080" vector-effect="non-scaling-stroke" d="
  M 132.87 102.81
  Q 118.79 93.35 105.23 102.94
  A 0.85 0.85 -40.4 0 0 105.12 104.24
  L 107.03 106.16
  A 1.09 1.08 52.2 0 0 108.33 106.33
  Q 119.31 99.96 129.26 106.70
  A 0.60 0.58 -50.0 0 0 130.00 106.62
  L 132.93 103.81
  A 0.65 0.63 -49.5 0 0 132.87 102.81"
/>
<path stroke="#808080" vector-effect="non-scaling-stroke" d="
  M 135.51 134.43
  A 0.61 0.53 -51.1 0 0 136.37 134.28
  Q 146.14 120.10 136.59 106.28
  A 1.05 1.04 -39.8 0 0 134.99 106.14
  L 132.16 108.96
  A 0.63 0.63 51.3 0 0 132.08 109.73
  Q 138.06 119.13 131.86 129.94
  A 0.91 0.83 -53.5 0 0 131.97 131.00
  L 135.51 134.43"
/>
<path stroke="#808080" vector-effect="non-scaling-stroke" d="
  M 104.81 108.44
  Q 103.81 107.19 102.49 106.33
  A 0.55 0.53 -54.9 0 0 101.76 106.47
  Q 92.54 119.32 101.35 133.40
  A 1.26 1.23 49.6 0 0 103.34 133.58
  L 105.68 130.89
  A 0.66 0.62 48.4 0 0 105.70 130.09
  Q 98.45 120.04 105.22 109.66
  A 1.02 0.55 -50.4 0 0 105.40 108.77
  Q 105.23 108.50 104.81 108.44"
/>
<path stroke="#808080" vector-effect="non-scaling-stroke" d="
  M 126.80 108.93
  Q 118.71 103.39 110.73 108.78
  A 0.50 0.43 -37.6 0 0 110.58 109.48
  L 113.15 112.17
  A 0.82 0.71 -32.6 0 0 114.03 112.30
  Q 118.89 110.13 123.06 112.26
  A 1.05 0.91 41.9 0 0 123.96 112.28
  Q 125.55 111.45 126.91 109.59
  A 0.47 0.47 -54.8 0 0 126.80 108.93"
/>
<path stroke="#808080" vector-effect="non-scaling-stroke" d="
  M 107.58 111.97
  Q 102.89 119.28 107.19 126.56
  Q 108.31 128.46 109.42 127.36
  Q 110.45 126.34 110.63 126.18
  Q 111.84 125.09 111.20 123.67
  Q 110.29 121.67 110.27 121.57
  Q 109.62 118.41 111.03 115.45
  A 0.77 0.68 -56.1 0 0 110.92 114.62
  L 108.23 111.89
  A 0.43 0.41 -50.9 0 0 107.58 111.97"
/>
<path stroke="#808080" vector-effect="non-scaling-stroke" d="
  M 126.23 122.82
  Q 125.31 125.56 128.72 127.58
  A 0.64 0.64 -58.6 0 0 129.58 127.37
  Q 134.24 120.04 129.87 112.19
  A 0.52 0.52 -36.6 0 0 129.05 112.07
  L 126.44 114.69
  A 0.94 0.93 58.6 0 0 126.21 115.66
  Q 126.99 117.94 127.03 119.87
  Q 127.04 120.38 126.23 122.82"
/>
<path stroke="#808080" vector-effect="non-scaling-stroke" d="
  M 123.89 119.60
  A 5.30 5.30 0.0 0 0 118.59 114.30
  A 5.30 5.30 0.0 0 0 113.29 119.60
  A 5.30 5.30 0.0 0 0 118.59 124.90
  A 5.30 5.30 0.0 0 0 123.89 119.60"
/>
<path stroke="#808080" vector-effect="non-scaling-stroke" d="
  M 116.58 127.87
  Q 115.86 127.76 115.27 127.34
  Q 114.00 126.43 112.89 127.94
  Q 112.06 129.06 111.36 129.77
  A 0.80 0.80 -53.4 0 0 111.55 131.05
  Q 118.95 134.93 125.97 130.92
  A 0.75 0.74 52.6 0 0 126.12 129.75
  L 123.91 127.54
  A 1.29 1.29 -31.3 0 0 122.59 127.22
  Q 119.37 128.29 116.58 127.87"
/>
<path stroke="#808080" vector-effect="non-scaling-stroke" d="
  M 115.56 135.94
  Q 112.07 135.39 108.89 133.05
  A 0.62 0.57 40.8 0 0 108.12 133.08
  L 105.21 135.94
  A 1.10 1.08 39.3 0 0 105.40 137.62
  Q 119.25 146.84 133.00 137.58
  A 0.55 0.54 -39.7 0 0 133.09 136.74
  L 129.38 133.09
  A 0.64 0.62 -39.7 0 0 128.59 133.03
  Q 122.57 137.05 115.56 135.94"
/>
<path stroke="#808080" vector-effect="non-scaling-stroke" d="
  M 315.27 130.29
  Q 313.61 134.83 314.20 139.83
  Q 314.48 142.30 315.45 143.42
  Q 316.97 145.19 319.75 144.25
  Q 324.91 142.50 327.80 137.28
  Q 331.42 130.73 332.03 122.90
  A 0.69 0.69 12.3 0 0 331.58 122.20
  Q 325.45 119.84 320.97 122.61
  Q 317.22 124.94 315.27 130.29"
/>
<path stroke="#808080" vector-effect="non-scaling-stroke" d="
  M 185.56 112.58
  Q 182.35 111.86 178.20 112.43
  A 0.80 0.75 0.7 0 0 177.53 113.04
  L 175.17 125.24
  A 0.44 0.43 4.9 0 0 175.61 125.75
  Q 178.12 125.75 180.25 125.65
  Q 187.03 125.35 189.44 119.19
  Q 190.46 116.57 189.06 114.63
  Q 187.98 113.12 185.56 112.58"
/>
<path stroke="#808080" vector-effect="non-scaling-stroke" d="
  M 362.44 114.18
  L 352.22 133.88
  A 0.41 0.41 16.7 0 0 352.55 134.48
  Q 358.59 135.04 365.16 134.50
  A 0.50 0.48 84.8 0 0 365.60 133.95
  L 363.44 114.38
  Q 363.25 112.63 362.44 114.18"
/>
<path stroke="#808080" vector-effect="non-scaling-stroke" d="
  M 224.35 122.29
  Q 214.47 118.74 209.44 127.19
  Q 205.90 133.12 207.15 140.51
  Q 207.52 142.76 208.56 143.68
  Q 210.05 145.01 212.48 144.20
  Q 216.94 142.73 219.51 138.78
  Q 224.05 131.82 224.79 122.98
  A 0.68 0.66 13.0 0 0 224.35 122.29"
/>
<path stroke="#808080" vector-effect="non-scaling-stroke" d="
  M 243.40 143.65
  Q 248.44 145.77 252.78 143.86
  Q 256.53 142.22 258.79 137.72
  Q 261.54 132.25 260.89 125.74
  Q 260.37 120.57 255.43 121.47
  Q 253.35 121.84 251.82 123.30
  Q 243.86 130.89 242.93 142.89
  A 0.76 0.76 13.3 0 0 243.40 143.65"
/>
<path stroke="#808080" vector-effect="non-scaling-stroke" d="
  M 108.34 182.61
  Q 110.93 184.66 107.75 185.75
  Q 106.35 186.23 101.05 187.22
  Q 100.13 187.39 100.86 187.66
  Q 101.09 187.75 101.50 187.75
  Q 120.03 187.89 138.57 187.57
  A 0.53 0.51 -0.6 0 0 139.09 187.06
  L 139.04 182.75
  A 0.83 0.82 12.2 0 0 138.56 182.02
  L 132.47 179.19
  A 1.56 1.37 -36.4 0 0 131.52 179.11
  Q 130.43 179.37 129.37 179.71
  Q 126.67 180.57 126.56 178.31
  A 0.91 0.85 -19.7 0 1 126.96 177.53
  Q 128.54 176.47 130.43 176.23
  A 0.60 0.53 -3.6 0 0 130.96 175.70
  L 130.95 168.30
  A 0.37 0.36 -9.5 0 0 130.46 167.97
  L 90.49 181.75
  A 0.73 0.73 80.5 0 0 90.00 182.44
  L 90.00 186.60
  A 0.41 0.40 -7.2 0 0 90.51 186.99
  L 107.45 182.44
  A 1.02 0.97 -32.7 0 1 108.34 182.61"
/>
<path stroke="#808080" vector-effect="non-scaling-stroke" d="
  M 151.06 187.31
  L 142.73 183.91
  A 0.45 0.37 12.5 0 0 142.11 184.22
  L 142.20 187.24
  A 0.61 0.53 -1.0 0 0 142.81 187.75
  L 150.96 187.75
  Q 152.15 187.75 151.06 187.31"
/>
<path stroke="#808080" vector-effect="non-scaling-stroke" d="
  M 122.56 182.76
  Q 123.73 180.57 122.87 178.57
  Q 122.06 176.68 119.82 175.79
  Q 116.98 174.66 114.80 176.55
  Q 113.00 178.12 112.90 180.59
  Q 112.79 183.58 115.40 184.94
  Q 116.84 185.68 119.87 185.72
  Q 127.40 185.82 134.94 185.70
  A 1.37 0.97 14.7 0 0 135.82 185.37
  Q 136.48 184.70 136.03 183.90
  A 0.98 0.68 -8.7 0 0 135.25 183.52
  L 122.82 183.23
  A 0.32 0.31 -75.1 0 1 122.56 182.76"
/>
<path stroke="#808080" vector-effect="non-scaling-stroke" d="
  M 227.57 175.18
  Q 225.03 173.92 223.53 176.37
  Q 223.14 177.00 223.88 177.00
  Q 225.64 177.00 227.14 177.00
  Q 227.89 177.00 228.29 176.70
  Q 229.24 176.02 227.57 175.18"
/>
<path stroke="#808080" vector-effect="non-scaling-stroke" d="
  M 272.19 176.18
  Q 271.57 176.90 272.47 176.89
  L 276.51 176.86
  Q 277.08 176.85 276.76 176.31
  Q 274.85 173.11 272.19 176.18"
/>
<path stroke="#808080" vector-effect="non-scaling-stroke" d="
  M 293.88 176.26
  Q 293.37 176.99 294.25 176.99
  L 298.19 176.96
  A 0.66 0.57 3.5 0 0 298.83 176.47
  Q 298.94 175.67 298.02 175.21
  Q 295.53 173.94 293.88 176.26"
/>
<path stroke="#808080" vector-effect="non-scaling-stroke" d="
  M 312.44 180.19
  Q 311.20 182.61 313.75 182.25
  Q 316.46 181.86 316.50 179.11
  A 0.61 0.60 0.9 0 0 315.90 178.50
  Q 313.31 178.49 312.44 180.19"
/>
<path stroke="#808080" vector-effect="non-scaling-stroke" d="
  M 338.6288 182.1363
  A 3.76 2.79 94.9 0 0 341.7298 178.6283
  A 3.76 2.79 94.9 0 0 339.2712 174.6437
  A 3.76 2.79 94.9 0 0 336.1702 178.1517
  A 3.76 2.79 94.9 0 0 338.6288 182.1363"
/>
<path stroke="#808080" vector-effect="non-scaling-stroke" d="
  M 120.83 180.51
  A 2.81 2.81 0.0 0 0 118.02 177.70
  A 2.81 2.81 0.0 0 0 115.21 180.51
  A 2.81 2.81 0.0 0 0 118.02 183.32
  A 2.81 2.81 0.0 0 0 120.83 180.51"
/>
</g>
<path fill="#ffffff" d="
  M 0.00 0.00
  L 470.00 0.00
  L 470.00 265.00
  L 0.00 265.00
  L 0.00 0.00
  Z
  M 64.45 156.75
  Q 65.30 156.86 64.61 157.37
  Q 60.72 160.27 63.70 162.45
  Q 65.63 163.87 64.98 166.19
  Q 62.06 176.51 69.84 179.69
  Q 72.35 180.71 75.28 180.44
  Q 77.90 180.19 80.75 179.25
  Q 105.20 171.14 129.56 162.78
  Q 136.32 160.46 139.32 158.77
  Q 144.11 156.07 147.75 152.25
  Q 157.55 141.97 158.29 128.29
  Q 158.70 120.49 155.73 113.04
  Q 152.76 105.60 147.31 99.69
  Q 138.97 90.63 127.39 86.32
  Q 122.96 84.67 117.38 84.23
  Q 112.25 83.82 107.09 83.88
  Q 100.63 83.95 98.92 84.14
  Q 94.90 84.57 90.94 86.19
  Q 73.95 93.10 67.25 110.00
  Q 65.12 115.38 65.14 122.72
  Q 65.14 125.18 64.20 126.93
  Q 61.06 132.79 55.79 137.00
  Q 53.54 138.80 54.27 143.48
  Q 54.61 145.66 56.04 146.26
  L 60.94 148.31
  A 1.49 1.29 26.1 0 1 61.76 150.24
  Q 58.42 155.93 64.45 156.75
  Z
  M 295.53 107.96
  A 4.30 4.30 0.0 0 0 291.23 103.66
  A 4.30 4.30 0.0 0 0 286.93 107.96
  A 4.30 4.30 0.0 0 0 291.23 112.26
  A 4.30 4.30 0.0 0 0 295.53 107.96
  Z
  M 329.31 142.80
  L 328.76 148.44
  A 0.57 0.51 2.3 0 0 329.33 149.00
  L 333.36 149.00
  A 0.63 0.63 -88.1 0 0 333.99 148.41
  Q 334.73 138.28 336.74 128.50
  Q 339.17 116.63 341.55 104.51
  A 0.64 0.64 5.5 0 0 340.92 103.75
  L 336.67 103.75
  A 0.63 0.63 5.5 0 0 336.05 104.26
  L 333.59 116.57
  A 0.57 0.56 8.4 0 1 332.98 117.02
  Q 328.88 116.62 325.00 116.82
  Q 320.45 117.04 316.92 119.39
  Q 313.71 121.51 311.56 125.50
  Q 308.26 131.63 308.50 139.75
  Q 308.65 144.86 311.65 147.43
  Q 314.40 149.78 318.83 149.24
  Q 324.96 148.50 328.54 142.80
  Q 328.71 142.52 328.96 142.40
  Q 329.37 142.20 329.31 142.80
  Z
  M 395.60 112.80
  L 389.59 143.49
  A 0.66 0.63 5.3 0 1 388.95 144.00
  L 380.40 144.00
  A 0.64 0.64 -89.5 0 0 379.76 144.63
  Q 379.72 146.95 379.04 148.42
  A 0.41 0.40 -77.3 0 0 379.40 149.00
  Q 391.38 149.00 403.25 149.00
  Q 404.66 149.00 404.37 147.48
  Q 404.30 147.11 404.42 146.53
  L 404.79 144.69
  A 0.49 0.43 6.1 0 0 404.32 144.17
  L 395.94 143.83
  A 0.43 0.43 6.9 0 1 395.54 143.32
  L 401.59 112.92
  A 0.66 0.62 -84.1 0 1 402.19 112.40
  L 410.51 112.24
  A 0.84 0.75 10.6 0 0 411.23 111.80
  Q 412.09 109.96 412.08 107.93
  A 0.52 0.49 0.0 0 0 411.56 107.44
  L 387.81 107.56
  A 0.62 0.61 -84.2 0 0 387.21 108.06
  L 386.57 111.52
  A 0.65 0.62 5.6 0 0 387.20 112.26
  L 395.19 112.30
  A 0.42 0.42 5.7 0 1 395.60 112.80
  Z
  M 174.55 130.45
  Q 177.83 129.79 180.07 131.48
  Q 181.69 132.70 182.83 136.22
  Q 184.70 142.06 186.03 148.15
  A 1.07 1.02 83.1 0 0 187.05 148.99
  L 191.93 148.96
  A 0.41 0.40 82.1 0 0 192.31 148.45
  Q 190.27 140.72 187.83 133.10
  Q 187.15 130.98 185.78 129.75
  A 0.60 0.59 -33.4 0 1 185.99 128.75
  Q 194.87 125.74 195.52 117.18
  Q 195.80 113.56 194.20 111.10
  Q 192.18 107.99 188.25 107.75
  Q 181.26 107.33 173.47 107.52
  A 0.65 0.63 5.0 0 0 172.85 108.03
  L 164.84 148.26
  A 0.49 0.43 -83.4 0 0 165.24 148.85
  L 169.58 148.89
  A 1.13 0.94 -82.8 0 0 170.55 147.99
  L 173.95 131.04
  A 0.77 0.75 -0.1 0 1 174.55 130.45
  Z
  M 359.71 108.37
  L 338.54 148.26
  A 0.39 0.33 -74.0 0 0 338.80 148.82
  L 343.25 148.80
  A 2.65 1.87 -71.9 0 0 345.20 147.35
  L 348.81 140.50
  A 0.86 0.82 13.1 0 1 349.56 140.06
  L 365.87 140.00
  A 0.65 0.64 87.6 0 1 366.51 140.60
  L 367.05 147.80
  A 1.31 1.30 -2.1 0 0 368.36 149.00
  L 372.90 149.00
  A 0.45 0.45 -3.9 0 0 373.35 148.49
  L 368.18 108.17
  A 0.65 0.65 88.9 0 0 367.60 107.61
  Q 363.49 107.20 360.42 107.83
  A 1.05 1.03 -81.8 0 0 359.71 108.37
  Z
  M 221.74 143.22
  L 221.43 148.08
  A 0.69 0.52 -81.1 0 0 221.78 148.74
  Q 223.94 149.47 226.09 148.74
  A 0.83 0.78 84.6 0 0 226.62 148.06
  Q 228.52 132.55 231.65 117.24
  A 0.39 0.35 -88.9 0 0 231.24 116.77
  L 227.53 117.51
  Q 226.91 117.64 226.59 117.54
  Q 219.51 115.42 213.33 117.73
  Q 207.45 119.93 204.09 125.94
  Q 200.09 133.12 201.49 141.75
  Q 201.97 144.71 203.24 146.46
  Q 205.04 148.93 207.75 149.25
  Q 216.35 150.26 221.12 143.07
  Q 221.82 142.02 221.74 143.22
  Z
  M 245.79 122.95
  L 246.26 117.50
  A 0.53 0.50 -87.4 0 0 245.76 116.92
  L 241.54 116.93
  A 0.68 0.51 -87.1 0 0 241.02 117.56
  Q 240.27 127.50 238.27 137.25
  Q 235.88 148.90 233.48 160.96
  A 0.85 0.80 -84.1 0 0 234.26 161.97
  L 238.44 161.96
  A 0.63 0.61 -84.2 0 0 239.04 161.45
  L 241.38 149.16
  A 0.64 0.61 -79.9 0 1 242.08 148.65
  Q 260.99 151.44 265.56 135.25
  Q 266.33 132.51 266.52 129.18
  Q 266.74 125.47 266.25 123.00
  Q 265.49 119.16 262.26 117.49
  Q 259.63 116.13 256.07 116.58
  Q 249.85 117.35 246.43 123.20
  Q 245.66 124.53 245.79 122.95
  Z
  M 285.95 126.44
  Q 284.87 132.01 283.88 137.60
  Q 282.93 143.01 283.41 144.95
  Q 284.55 149.55 291.00 149.25
  Q 296.13 149.01 299.76 146.94
  A 0.88 0.85 -15.0 0 0 300.21 146.19
  L 300.25 142.39
  A 0.42 0.41 -13.9 0 0 299.64 142.03
  Q 296.82 143.58 294.17 144.36
  Q 288.07 146.16 289.21 139.79
  Q 290.62 131.94 291.76 124.06
  Q 292.26 120.57 290.33 118.42
  Q 288.74 116.66 285.51 116.49
  Q 280.23 116.20 275.50 118.81
  A 0.93 0.85 -15.4 0 0 275.03 119.56
  L 275.01 122.99
  Q 275.01 124.11 275.98 123.51
  Q 278.12 122.20 280.50 121.51
  Q 287.28 119.54 285.95 126.44
  Z
  M 160.07 188.18
  Q 147.75 182.16 134.74 176.81
  A 1.37 1.26 -80.1 0 1 133.97 175.61
  L 133.76 164.81
  A 0.94 0.90 -10.6 0 0 132.52 163.99
  L 88.03 179.39
  A 0.92 0.90 -3.8 0 0 87.45 180.04
  Q 86.45 184.72 87.23 189.45
  A 0.59 0.58 -4.6 0 0 87.81 189.94
  Q 123.47 190.04 159.14 190.00
  Q 159.85 190.00 160.33 189.82
  Q 162.11 189.17 160.07 188.18
  Z
  M 257.44 171.94
  Q 255.43 174.87 256.14 178.21
  Q 256.82 181.47 259.45 183.07
  Q 262.73 185.07 266.83 182.75
  A 0.88 0.83 76.0 0 0 267.25 182.00
  L 267.25 176.94
  A 1.10 1.09 -3.9 0 0 266.00 175.86
  Q 262.74 176.32 263.90 177.66
  A 1.29 0.46 0.7 0 0 264.74 177.97
  Q 265.45 178.06 265.50 179.00
  Q 265.68 182.33 262.50 181.96
  Q 259.11 181.57 258.37 178.28
  Q 257.37 173.79 261.06 171.31
  Q 262.53 170.33 264.57 171.49
  A 1.77 0.95 43.3 0 0 265.50 171.74
  Q 266.74 171.62 266.60 170.48
  A 0.96 0.82 11.9 0 0 266.06 169.78
  Q 260.63 167.28 257.44 171.94
  Z
  M 211.13 175.30
  Q 211.10 173.50 212.11 174.95
  L 217.95 183.33
  Q 219.19 185.11 219.20 182.95
  L 219.25 170.25
  A 0.81 0.79 -76.9 0 0 218.80 169.51
  Q 216.55 168.44 216.77 171.27
  Q 217.00 174.25 217.00 177.46
  Q 217.00 178.95 216.13 177.74
  L 210.74 170.19
  Q 208.99 167.73 209.00 170.73
  L 209.06 182.94
  A 0.66 0.59 -85.3 0 0 209.54 183.58
  Q 210.18 183.70 210.80 183.47
  A 0.77 0.71 79.7 0 0 211.26 182.75
  L 211.13 175.30
  Z
  M 332.29 170.39
  A 1.16 1.16 0.0 0 0 331.13 169.23
  A 1.16 1.16 0.0 0 0 329.97 170.39
  A 1.16 1.16 0.0 0 0 331.13 171.55
  A 1.16 1.16 0.0 0 0 332.29 170.39
  Z
  M 242.97 172.85
  Q 241.27 173.55 243.10 175.04
  A 1.07 1.06 19.4 0 1 243.50 175.87
  Q 243.50 177.50 243.42 179.25
  Q 243.20 184.37 248.01 183.82
  A 0.94 0.77 4.3 0 0 248.74 183.31
  Q 248.90 182.87 248.74 182.43
  A 0.79 0.56 -9.5 0 0 248.00 182.07
  Q 246.93 182.16 246.08 181.61
  A 1.38 1.09 -85.4 0 1 245.56 180.83
  Q 244.88 177.92 245.67 175.05
  A 0.59 0.56 11.4 0 1 246.31 174.65
  Q 248.48 174.98 248.10 173.53
  A 0.60 0.53 -11.2 0 0 247.45 173.15
  Q 244.86 173.51 245.31 171.30
  A 0.58 0.51 -76.5 0 0 244.96 170.64
  Q 243.23 170.15 243.38 172.20
  A 0.67 0.63 -14.5 0 1 242.97 172.85
  Z
  M 324.04 172.44
  L 323.96 171.06
  A 0.56 0.53 88.3 0 0 323.43 170.53
  Q 321.82 170.54 321.69 172.18
  A 1.04 0.97 75.6 0 1 321.27 172.95
  Q 319.60 174.07 321.46 174.68
  A 0.63 0.63 10.6 0 1 321.90 175.32
  Q 321.62 179.29 322.06 180.94
  Q 323.16 184.98 327.00 183.50
  Q 327.96 183.13 327.30 182.40
  A 1.20 0.82 -16.0 0 0 326.43 182.11
  Q 323.60 182.28 323.83 179.24
  Q 324.00 177.12 324.00 175.46
  A 1.03 1.02 -84.5 0 1 325.22 174.45
  Q 326.49 174.69 326.67 174.05
  A 0.78 0.60 25.1 0 0 326.27 173.28
  Q 325.49 172.84 324.55 172.88
  A 0.48 0.46 -3.0 0 1 324.04 172.44
  Z
  M 225.57 181.89
  Q 223.15 181.37 223.36 179.18
  A 0.61 0.59 -87.8 0 1 223.94 178.63
  L 230.01 178.54
  A 0.74 0.70 -0.0 0 0 230.74 177.85
  Q 230.81 173.93 227.41 173.17
  Q 223.76 172.35 221.90 175.41
  Q 220.08 178.43 221.75 181.25
  Q 224.14 185.29 228.74 183.17
  Q 230.53 182.34 229.21 181.69
  A 1.27 0.91 -36.1 0 0 228.30 181.70
  Q 226.99 182.20 225.57 181.89
  Z
  M 236.20 176.06
  Q 235.26 175.71 234.86 174.59
  Q 234.20 172.71 232.56 172.95
  A 0.70 0.65 66.9 0 0 232.17 174.03
  L 234.81 177.69
  Q 235.65 178.85 232.69 181.94
  Q 230.55 184.16 233.57 183.44
  A 1.48 0.80 -66.2 0 0 234.30 182.87
  L 236.00 180.52
  Q 236.51 179.81 236.85 180.64
  Q 238.11 183.66 240.69 183.49
  Q 241.21 183.46 240.89 183.04
  L 237.58 178.67
  A 0.70 0.70 -45.8 0 1 237.57 177.84
  Q 238.96 175.96 240.23 174.24
  Q 241.24 172.87 239.81 172.99
  Q 239.33 173.03 238.93 173.38
  Q 237.74 174.41 236.94 175.75
  A 0.67 0.58 -63.3 0 1 236.20 176.06
  Z
  M 274.18 182.05
  Q 271.92 181.50 271.71 179.18
  A 0.49 0.48 86.7 0 1 272.18 178.64
  L 278.70 178.53
  A 0.56 0.53 -0.0 0 0 279.25 178.01
  Q 279.27 175.21 277.57 173.88
  Q 276.08 172.72 273.73 173.16
  Q 270.13 173.84 269.70 177.40
  Q 269.33 180.40 270.97 182.28
  Q 272.90 184.52 276.81 183.31
  Q 278.35 182.84 277.97 181.98
  A 0.76 0.62 -15.7 0 0 277.19 181.64
  Q 276.55 181.75 275.92 181.92
  Q 274.86 182.21 274.18 182.05
  Z
  M 282.54 173.52
  Q 281.72 172.36 281.20 173.43
  Q 281.00 173.87 281.00 174.61
  Q 281.00 178.46 281.00 182.67
  A 0.78 0.78 12.3 0 0 281.48 183.39
  Q 283.36 184.16 283.21 182.23
  Q 282.97 179.41 283.05 176.57
  A 1.42 1.25 69.4 0 1 283.39 175.68
  Q 284.96 173.97 286.38 175.12
  Q 287.28 175.84 287.57 177.59
  Q 288.10 180.71 287.75 182.00
  Q 287.14 184.24 288.97 183.62
  A 0.70 0.67 79.9 0 0 289.42 182.94
  Q 289.36 180.60 289.30 178.25
  Q 289.23 175.20 288.31 173.98
  Q 286.65 171.78 283.24 173.68
  A 0.54 0.52 56.7 0 1 282.54 173.52
  Z
  M 293.43 179.58
  A 1.01 0.91 -6.2 0 1 294.43 178.46
  L 300.51 178.44
  A 0.61 0.55 -87.8 0 0 301.06 177.87
  Q 301.26 174.89 298.67 173.67
  Q 295.83 172.34 293.78 173.70
  Q 292.13 174.79 291.57 177.33
  Q 290.52 182.03 295.20 183.68
  Q 296.18 184.03 297.32 183.72
  Q 298.40 183.43 299.45 183.09
  A 0.76 0.66 -9.1 0 0 299.99 182.45
  Q 300.03 180.90 298.18 181.54
  Q 294.20 182.92 293.43 179.58
  Z
  M 305.15 173.72
  Q 304.64 172.60 303.50 173.08
  A 0.82 0.75 79.0 0 0 303.05 173.81
  L 303.05 182.93
  A 0.74 0.69 -81.2 0 0 303.52 183.62
  Q 305.52 184.26 305.18 181.73
  Q 304.79 178.83 305.43 176.29
  A 2.01 2.00 5.6 0 1 307.28 174.78
  Q 309.51 174.68 309.19 173.46
  A 0.79 0.70 -4.3 0 0 308.50 172.94
  Q 306.89 172.84 305.68 173.85
  A 0.35 0.34 57.9 0 1 305.15 173.72
  Z
  M 316.38 176.20
  A 0.39 0.38 78.3 0 1 316.04 176.73
  Q 313.03 176.80 311.39 178.35
  Q 309.92 179.75 310.51 181.62
  Q 311.10 183.51 313.44 183.88
  A 1.71 1.03 -43.7 0 0 314.37 183.67
  Q 316.14 182.69 318.25 183.75
  Q 318.71 183.98 319.00 183.68
  A 0.97 0.62 62.1 0 0 319.07 182.79
  Q 317.92 179.64 318.20 176.25
  A 1.77 1.38 -62.8 0 0 318.02 175.30
  Q 316.07 171.74 312.02 173.37
  A 1.56 1.49 3.9 0 0 311.29 173.98
  Q 310.35 175.55 311.84 175.32
  Q 312.18 175.27 312.98 174.90
  Q 315.36 173.80 316.38 176.20
  Z
  M 329.77 175.05
  Q 330.42 179.25 330.00 181.25
  Q 329.39 184.14 331.46 183.59
  A 0.69 0.66 82.9 0 0 331.95 182.93
  L 331.95 173.56
  A 0.53 0.52 -89.4 0 0 331.44 173.03
  L 329.75 172.99
  A 1.34 1.25 23.2 0 0 328.86 173.31
  Q 327.91 174.18 329.20 174.48
  A 0.75 0.70 2.3 0 1 329.77 175.05
  Z
  M 338.8329 183.9890
  A 5.58 4.79 91.1 0 0 343.7291 178.5020
  A 5.58 4.79 91.1 0 0 339.0471 172.8310
  A 5.58 4.79 91.1 0 0 334.1509 178.3180
  A 5.58 4.79 91.1 0 0 338.8329 183.9890
  Z
  M 347.42 173.62
  Q 346.81 173.05 346.05 173.17
  A 0.67 0.53 86.6 0 0 345.60 173.82
  L 345.61 182.69
  A 0.99 0.75 -78.1 0 0 345.98 183.47
  Q 347.80 184.56 347.25 182.00
  Q 346.80 179.90 347.58 176.17
  A 1.16 1.08 82.8 0 1 348.11 175.43
  Q 351.93 173.26 352.03 179.95
  Q 352.05 181.57 351.85 183.18
  Q 351.73 184.19 353.34 183.72
  A 0.78 0.74 85.6 0 0 353.87 183.07
  Q 354.56 177.35 353.75 175.50
  Q 351.96 171.37 348.16 173.73
  A 0.65 0.58 50.2 0 1 347.42 173.62
  Z"
/>
<path fill="#000000" d="
  M 64.45 156.75
  Q 58.42 155.93 61.76 150.24
  A 1.49 1.29 26.1 0 0 60.94 148.31
  L 56.04 146.26
  Q 54.61 145.66 54.27 143.48
  Q 53.54 138.80 55.79 137.00
  Q 61.06 132.79 64.20 126.93
  Q 65.14 125.18 65.14 122.72
  Q 65.12 115.38 67.25 110.00
  Q 73.95 93.10 90.94 86.19
  Q 94.90 84.57 98.92 84.14
  Q 100.63 83.95 107.09 83.88
  Q 112.25 83.82 117.38 84.23
  Q 122.96 84.67 127.39 86.32
  Q 138.97 90.63 147.31 99.69
  Q 152.76 105.60 155.73 113.04
  Q 158.70 120.49 158.29 128.29
  Q 157.55 141.97 147.75 152.25
  Q 144.11 156.07 139.32 158.77
  Q 136.32 160.46 129.56 162.78
  Q 105.20 171.14 80.75 179.25
  Q 77.90 180.19 75.28 180.44
  Q 72.35 180.71 69.84 179.69
  Q 62.06 176.51 64.98 166.19
  Q 65.63 163.87 63.70 162.45
  Q 60.72 160.27 64.61 157.37
  Q 65.30 156.86 64.45 156.75
  Z
  M 74.83 154.79
  Q 75.28 156.68 73.49 157.18
  Q 72.24 157.53 72.16 157.56
  Q 69.36 158.65 66.68 159.76
  A 0.16 0.16 -25.8 0 0 66.60 159.98
  Q 69.00 164.53 68.13 167.79
  Q 65.43 177.88 75.55 176.95
  Q 77.84 176.74 81.50 175.50
  Q 112.06 165.15 127.96 159.63
  Q 137.15 156.43 141.30 153.43
  Q 151.45 146.08 154.12 133.61
  Q 155.59 126.78 154.37 120.36
  Q 153.09 113.60 149.19 107.81
  Q 136.26 88.64 112.76 86.58
  Q 106.77 86.06 100.25 87.25
  Q 77.45 91.43 70.08 112.41
  Q 69.09 115.20 68.91 118.08
  Q 68.74 120.63 68.76 123.91
  Q 68.77 125.24 68.19 126.43
  Q 64.35 134.27 57.35 140.48
  Q 55.76 141.88 57.44 143.17
  Q 59.01 144.37 61.63 145.24
  Q 67.43 147.17 64.57 152.12
  A 0.90 0.89 -72.0 0 0 65.24 153.47
  L 74.18 154.28
  A 0.76 0.65 -2.8 0 1 74.83 154.79
  Z"
/>
<path fill="#ffffff" d="
  M 74.18 154.28
  L 65.24 153.47
  A 0.90 0.89 -72.0 0 1 64.57 152.12
  Q 67.43 147.17 61.63 145.24
  Q 59.01 144.37 57.44 143.17
  Q 55.76 141.88 57.35 140.48
  Q 64.35 134.27 68.19 126.43
  Q 68.77 125.24 68.76 123.91
  Q 68.74 120.63 68.91 118.08
  Q 69.09 115.20 70.08 112.41
  Q 77.45 91.43 100.25 87.25
  Q 106.77 86.06 112.76 86.58
  Q 136.26 88.64 149.19 107.81
  Q 153.09 113.60 154.37 120.36
  Q 155.59 126.78 154.12 133.61
  Q 151.45 146.08 141.30 153.43
  Q 137.15 156.43 127.96 159.63
  Q 112.06 165.15 81.50 175.50
  Q 77.84 176.74 75.55 176.95
  Q 65.43 177.88 68.13 167.79
  Q 69.00 164.53 66.60 159.98
  A 0.16 0.16 -25.8 0 1 66.68 159.76
  Q 69.36 158.65 72.16 157.56
  Q 72.24 157.53 73.49 157.18
  Q 75.28 156.68 74.83 154.79
  A 0.76 0.65 -2.8 0 0 74.18 154.28
  Z
  M 144.48 120.17
  A 25.30 25.30 0.0 0 0 119.18 94.87
  A 25.30 25.30 0.0 0 0 93.88 120.17
  A 25.30 25.30 0.0 0 0 119.18 145.47
  A 25.30 25.30 0.0 0 0 144.48 120.17
  Z
  M 84.83 125.51
  A 1.36 1.36 -50.3 0 0 82.59 125.72
  Q 80.23 129.97 77.92 127.47
  Q 77.82 127.36 76.99 125.75
  Q 76.28 124.38 74.67 125.25
  A 1.05 0.97 81.8 0 0 74.15 126.00
  Q 73.76 128.48 75.69 130.06
  Q 80.72 134.19 84.55 129.05
  Q 86.07 127.02 84.83 125.51
  Z"
/>
<path fill="#000000" d="
  M 144.48 120.17
  A 25.30 25.30 0.0 0 1 119.18 145.47
  A 25.30 25.30 0.0 0 1 93.88 120.17
  A 25.30 25.30 0.0 0 1 119.18 94.87
  A 25.30 25.30 0.0 0 1 144.48 120.17
  Z
  M 132.87 102.81
  Q 118.79 93.35 105.23 102.94
  A 0.85 0.85 -40.4 0 0 105.12 104.24
  L 107.03 106.16
  A 1.09 1.08 52.2 0 0 108.33 106.33
  Q 119.31 99.96 129.26 106.70
  A 0.60 0.58 -50.0 0 0 130.00 106.62
  L 132.93 103.81
  A 0.65 0.63 -49.5 0 0 132.87 102.81
  Z
  M 135.51 134.43
  A 0.61 0.53 -51.1 0 0 136.37 134.28
  Q 146.14 120.10 136.59 106.28
  A 1.05 1.04 -39.8 0 0 134.99 106.14
  L 132.16 108.96
  A 0.63 0.63 51.3 0 0 132.08 109.73
  Q 138.06 119.13 131.86 129.94
  A 0.91 0.83 -53.5 0 0 131.97 131.00
  L 135.51 134.43
  Z
  M 104.81 108.44
  Q 103.81 107.19 102.49 106.33
  A 0.55 0.53 -54.9 0 0 101.76 106.47
  Q 92.54 119.32 101.35 133.40
  A 1.26 1.23 49.6 0 0 103.34 133.58
  L 105.68 130.89
  A 0.66 0.62 48.4 0 0 105.70 130.09
  Q 98.45 120.04 105.22 109.66
  A 1.02 0.55 -50.4 0 0 105.40 108.77
  Q 105.23 108.50 104.81 108.44
  Z
  M 126.80 108.93
  Q 118.71 103.39 110.73 108.78
  A 0.50 0.43 -37.6 0 0 110.58 109.48
  L 113.15 112.17
  A 0.82 0.71 -32.6 0 0 114.03 112.30
  Q 118.89 110.13 123.06 112.26
  A 1.05 0.91 41.9 0 0 123.96 112.28
  Q 125.55 111.45 126.91 109.59
  A 0.47 0.47 -54.8 0 0 126.80 108.93
  Z
  M 107.58 111.97
  Q 102.89 119.28 107.19 126.56
  Q 108.31 128.46 109.42 127.36
  Q 110.45 126.34 110.63 126.18
  Q 111.84 125.09 111.20 123.67
  Q 110.29 121.67 110.27 121.57
  Q 109.62 118.41 111.03 115.45
  A 0.77 0.68 -56.1 0 0 110.92 114.62
  L 108.23 111.89
  A 0.43 0.41 -50.9 0 0 107.58 111.97
  Z
  M 126.23 122.82
  Q 125.31 125.56 128.72 127.58
  A 0.64 0.64 -58.6 0 0 129.58 127.37
  Q 134.24 120.04 129.87 112.19
  A 0.52 0.52 -36.6 0 0 129.05 112.07
  L 126.44 114.69
  A 0.94 0.93 58.6 0 0 126.21 115.66
  Q 126.99 117.94 127.03 119.87
  Q 127.04 120.38 126.23 122.82
  Z
  M 123.89 119.60
  A 5.30 5.30 0.0 0 0 118.59 114.30
  A 5.30 5.30 0.0 0 0 113.29 119.60
  A 5.30 5.30 0.0 0 0 118.59 124.90
  A 5.30 5.30 0.0 0 0 123.89 119.60
  Z
  M 116.58 127.87
  Q 115.86 127.76 115.27 127.34
  Q 114.00 126.43 112.89 127.94
  Q 112.06 129.06 111.36 129.77
  A 0.80 0.80 -53.4 0 0 111.55 131.05
  Q 118.95 134.93 125.97 130.92
  A 0.75 0.74 52.6 0 0 126.12 129.75
  L 123.91 127.54
  A 1.29 1.29 -31.3 0 0 122.59 127.22
  Q 119.37 128.29 116.58 127.87
  Z
  M 115.56 135.94
  Q 112.07 135.39 108.89 133.05
  A 0.62 0.57 40.8 0 0 108.12 133.08
  L 105.21 135.94
  A 1.10 1.08 39.3 0 0 105.40 137.62
  Q 119.25 146.84 133.00 137.58
  A 0.55 0.54 -39.7 0 0 133.09 136.74
  L 129.38 133.09
  A 0.64 0.62 -39.7 0 0 128.59 133.03
  Q 122.57 137.05 115.56 135.94
  Z"
/>
<path fill="#ffffff" d="
  M 132.87 102.81
  A 0.65 0.63 -49.5 0 1 132.93 103.81
  L 130.00 106.62
  A 0.60 0.58 -50.0 0 1 129.26 106.70
  Q 119.31 99.96 108.33 106.33
  A 1.09 1.08 52.2 0 1 107.03 106.16
  L 105.12 104.24
  A 0.85 0.85 -40.4 0 1 105.23 102.94
  Q 118.79 93.35 132.87 102.81
  Z"
/>
<circle fill="#000000" cx="291.23" cy="107.96" r="4.30"/>
<path fill="#000000" d="
  M 328.96 142.40
  Q 328.71 142.52 328.54 142.80
  Q 324.96 148.50 318.83 149.24
  Q 314.40 149.78 311.65 147.43
  Q 308.65 144.86 308.50 139.75
  Q 308.26 131.63 311.56 125.50
  Q 313.71 121.51 316.92 119.39
  Q 320.45 117.04 325.00 116.82
  Q 328.88 116.62 332.98 117.02
  A 0.57 0.56 8.4 0 0 333.59 116.57
  L 336.05 104.26
  A 0.63 0.63 5.5 0 1 336.67 103.75
  L 340.92 103.75
  A 0.64 0.64 5.5 0 1 341.55 104.51
  Q 339.17 116.63 336.74 128.50
  Q 334.73 138.28 333.99 148.41
  A 0.63 0.63 -88.1 0 1 333.36 149.00
  L 329.33 149.00
  A 0.57 0.51 2.3 0 1 328.76 148.44
  L 329.31 142.80
  Q 329.37 142.20 328.96 142.40
  Z
  M 315.27 130.29
  Q 313.61 134.83 314.20 139.83
  Q 314.48 142.30 315.45 143.42
  Q 316.97 145.19 319.75 144.25
  Q 324.91 142.50 327.80 137.28
  Q 331.42 130.73 332.03 122.90
  A 0.69 0.69 12.3 0 0 331.58 122.20
  Q 325.45 119.84 320.97 122.61
  Q 317.22 124.94 315.27 130.29
  Z"
/>
<path fill="#ffffff" d="
  M 135.51 134.43
  L 131.97 131.00
  A 0.91 0.83 -53.5 0 1 131.86 129.94
  Q 138.06 119.13 132.08 109.73
  A 0.63 0.63 51.3 0 1 132.16 108.96
  L 134.99 106.14
  A 1.05 1.04 -39.8 0 1 136.59 106.28
  Q 146.14 120.10 136.37 134.28
  A 0.61 0.53 -51.1 0 1 135.51 134.43
  Z"
/>
<path fill="#ffffff" d="
  M 104.81 108.44
  Q 105.23 108.50 105.40 108.77
  A 1.02 0.55 -50.4 0 1 105.22 109.66
  Q 98.45 120.04 105.70 130.09
  A 0.66 0.62 48.4 0 1 105.68 130.89
  L 103.34 133.58
  A 1.26 1.23 49.6 0 1 101.35 133.40
  Q 92.54 119.32 101.76 106.47
  A 0.55 0.53 -54.9 0 1 102.49 106.33
  Q 103.81 107.19 104.81 108.44
  Z"
/>
<path fill="#ffffff" d="
  M 126.80 108.93
  A 0.47 0.47 -54.8 0 1 126.91 109.59
  Q 125.55 111.45 123.96 112.28
  A 1.05 0.91 41.9 0 1 123.06 112.26
  Q 118.89 110.13 114.03 112.30
  A 0.82 0.71 -32.6 0 1 113.15 112.17
  L 110.58 109.48
  A 0.50 0.43 -37.6 0 1 110.73 108.78
  Q 118.71 103.39 126.80 108.93
  Z"
/>
<path fill="#000000" d="
  M 395.19 112.30
  L 387.20 112.26
  A 0.65 0.62 5.6 0 1 386.57 111.52
  L 387.21 108.06
  A 0.62 0.61 -84.2 0 1 387.81 107.56
  L 411.56 107.44
  A 0.52 0.49 0.0 0 1 412.08 107.93
  Q 412.09 109.96 411.23 111.80
  A 0.84 0.75 10.6 0 1 410.51 112.24
  L 402.19 112.40
  A 0.66 0.62 -84.1 0 0 401.59 112.92
  L 395.54 143.32
  A 0.43 0.43 6.9 0 0 395.94 143.83
  L 404.32 144.17
  A 0.49 0.43 6.1 0 1 404.79 144.69
  L 404.42 146.53
  Q 404.30 147.11 404.37 147.48
  Q 404.66 149.00 403.25 149.00
  Q 391.38 149.00 379.40 149.00
  A 0.41 0.40 -77.3 0 1 379.04 148.42
  Q 379.72 146.95 379.76 144.63
  A 0.64 0.64 -89.5 0 1 380.40 144.00
  L 388.95 144.00
  A 0.66 0.63 5.3 0 0 389.59 143.49
  L 395.60 112.80
  A 0.42 0.42 5.7 0 0 395.19 112.30
  Z"
/>
<path fill="#000000" d="
  M 173.95 131.04
  L 170.55 147.99
  A 1.13 0.94 -82.8 0 1 169.58 148.89
  L 165.24 148.85
  A 0.49 0.43 -83.4 0 1 164.84 148.26
  L 172.85 108.03
  A 0.65 0.63 5.0 0 1 173.47 107.52
  Q 181.26 107.33 188.25 107.75
  Q 192.18 107.99 194.20 111.10
  Q 195.80 113.56 195.52 117.18
  Q 194.87 125.74 185.99 128.75
  A 0.60 0.59 -33.4 0 0 185.78 129.75
  Q 187.15 130.98 187.83 133.10
  Q 190.27 140.72 192.31 148.45
  A 0.41 0.40 82.1 0 1 191.93 148.96
  L 187.05 148.99
  A 1.07 1.02 83.1 0 1 186.03 148.15
  Q 184.70 142.06 182.83 136.22
  Q 181.69 132.70 180.07 131.48
  Q 177.83 129.79 174.55 130.45
  A 0.77 0.75 -0.1 0 0 173.95 131.04
  Z
  M 185.56 112.58
  Q 182.35 111.86 178.20 112.43
  A 0.80 0.75 0.7 0 0 177.53 113.04
  L 175.17 125.24
  A 0.44 0.43 4.9 0 0 175.61 125.75
  Q 178.12 125.75 180.25 125.65
  Q 187.03 125.35 189.44 119.19
  Q 190.46 116.57 189.06 114.63
  Q 187.98 113.12 185.56 112.58
  Z"
/>
<path fill="#000000" d="
  M 360.42 107.83
  Q 363.49 107.20 367.60 107.61
  A 0.65 0.65 88.9 0 1 368.18 108.17
  L 373.35 148.49
  A 0.45 0.45 -3.9 0 1 372.90 149.00
  L 368.36 149.00
  A 1.31 1.30 -2.1 0 1 367.05 147.80
  L 366.51 140.60
  A 0.65 0.64 87.6 0 0 365.87 140.00
  L 349.56 140.06
  A 0.86 0.82 13.1 0 0 348.81 140.50
  L 345.20 147.35
  A 2.65 1.87 -71.9 0 1 343.25 148.80
  L 338.80 148.82
  A 0.39 0.33 -74.0 0 1 338.54 148.26
  L 359.71 108.37
  A 1.05 1.03 -81.8 0 1 360.42 107.83
  Z
  M 362.44 114.18
  L 352.22 133.88
  A 0.41 0.41 16.7 0 0 352.55 134.48
  Q 358.59 135.04 365.16 134.50
  A 0.50 0.48 84.8 0 0 365.60 133.95
  L 363.44 114.38
  Q 363.25 112.63 362.44 114.18
  Z"
/>
<path fill="#ffffff" d="
  M 107.58 111.97
  A 0.43 0.41 -50.9 0 1 108.23 111.89
  L 110.92 114.62
  A 0.77 0.68 -56.1 0 1 111.03 115.45
  Q 109.62 118.41 110.27 121.57
  Q 110.29 121.67 111.20 123.67
  Q 111.84 125.09 110.63 126.18
  Q 110.45 126.34 109.42 127.36
  Q 108.31 128.46 107.19 126.56
  Q 102.89 119.28 107.58 111.97
  Z"
/>
<path fill="#ffffff" d="
  M 127.03 119.87
  Q 126.99 117.94 126.21 115.66
  A 0.94 0.93 58.6 0 1 126.44 114.69
  L 129.05 112.07
  A 0.52 0.52 -36.6 0 1 129.87 112.19
  Q 134.24 120.04 129.58 127.37
  A 0.64 0.64 -58.6 0 1 128.72 127.58
  Q 125.31 125.56 126.23 122.82
  Q 127.04 120.38 127.03 119.87
  Z"
/>
<path fill="#ffffff" d="
  M 189.06 114.63
  Q 190.46 116.57 189.44 119.19
  Q 187.03 125.35 180.25 125.65
  Q 178.12 125.75 175.61 125.75
  A 0.44 0.43 4.9 0 1 175.17 125.24
  L 177.53 113.04
  A 0.80 0.75 0.7 0 1 178.20 112.43
  Q 182.35 111.86 185.56 112.58
  Q 187.98 113.12 189.06 114.63
  Z"
/>
<path fill="#ffffff" d="
  M 362.44 114.18
  Q 363.25 112.63 363.44 114.38
  L 365.60 133.95
  A 0.50 0.48 84.8 0 1 365.16 134.50
  Q 358.59 135.04 352.55 134.48
  A 0.41 0.41 16.7 0 1 352.22 133.88
  L 362.44 114.18
  Z"
/>
<circle fill="#ffffff" cx="118.59" cy="119.60" r="5.30"/>
<path fill="#000000" d="
  M 221.74 143.22
  Q 221.82 142.02 221.12 143.07
  Q 216.35 150.26 207.75 149.25
  Q 205.04 148.93 203.24 146.46
  Q 201.97 144.71 201.49 141.75
  Q 200.09 133.12 204.09 125.94
  Q 207.45 119.93 213.33 117.73
  Q 219.51 115.42 226.59 117.54
  Q 226.91 117.64 227.53 117.51
  L 231.24 116.77
  A 0.39 0.35 -88.9 0 1 231.65 117.24
  Q 228.52 132.55 226.62 148.06
  A 0.83 0.78 84.6 0 1 226.09 148.74
  Q 223.94 149.47 221.78 148.74
  A 0.69 0.52 -81.1 0 1 221.43 148.08
  L 221.74 143.22
  Z
  M 224.35 122.29
  Q 214.47 118.74 209.44 127.19
  Q 205.90 133.12 207.15 140.51
  Q 207.52 142.76 208.56 143.68
  Q 210.05 145.01 212.48 144.20
  Q 216.94 142.73 219.51 138.78
  Q 224.05 131.82 224.79 122.98
  A 0.68 0.66 13.0 0 0 224.35 122.29
  Z"
/>
<path fill="#000000" d="
  M 245.79 122.95
  Q 245.66 124.53 246.43 123.20
  Q 249.85 117.35 256.07 116.58
  Q 259.63 116.13 262.26 117.49
  Q 265.49 119.16 266.25 123.00
  Q 266.74 125.47 266.52 129.18
  Q 266.33 132.51 265.56 135.25
  Q 260.99 151.44 242.08 148.65
  A 0.64 0.61 -79.9 0 0 241.38 149.16
  L 239.04 161.45
  A 0.63 0.61 -84.2 0 1 238.44 161.96
  L 234.26 161.97
  A 0.85 0.80 -84.1 0 1 233.48 160.96
  Q 235.88 148.90 238.27 137.25
  Q 240.27 127.50 241.02 117.56
  A 0.68 0.51 -87.1 0 1 241.54 116.93
  L 245.76 116.92
  A 0.53 0.50 -87.4 0 1 246.26 117.50
  L 245.79 122.95
  Z
  M 243.40 143.65
  Q 248.44 145.77 252.78 143.86
  Q 256.53 142.22 258.79 137.72
  Q 261.54 132.25 260.89 125.74
  Q 260.37 120.57 255.43 121.47
  Q 253.35 121.84 251.82 123.30
  Q 243.86 130.89 242.93 142.89
  A 0.76 0.76 13.3 0 0 243.40 143.65
  Z"
/>
<path fill="#000000" d="
  M 285.95 126.44
  Q 287.28 119.54 280.50 121.51
  Q 278.12 122.20 275.98 123.51
  Q 275.01 124.11 275.01 122.99
  L 275.03 119.56
  A 0.93 0.85 -15.4 0 1 275.50 118.81
  Q 280.23 116.20 285.51 116.49
  Q 288.74 116.66 290.33 118.42
  Q 292.26 120.57 291.76 124.06
  Q 290.62 131.94 289.21 139.79
  Q 288.07 146.16 294.17 144.36
  Q 296.82 143.58 299.64 142.03
  A 0.42 0.41 -13.9 0 1 300.25 142.39
  L 300.21 146.19
  A 0.88 0.85 -15.0 0 1 299.76 146.94
  Q 296.13 149.01 291.00 149.25
  Q 284.55 149.55 283.41 144.95
  Q 282.93 143.01 283.88 137.60
  Q 284.87 132.01 285.95 126.44
  Z"
/>
<path fill="#ffffff" d="
  M 224.35 122.29
  A 0.68 0.66 13.0 0 1 224.79 122.98
  Q 224.05 131.82 219.51 138.78
  Q 216.94 142.73 212.48 144.20
  Q 210.05 145.01 208.56 143.68
  Q 207.52 142.76 207.15 140.51
  Q 205.90 133.12 209.44 127.19
  Q 214.47 118.74 224.35 122.29
  Z"
/>
<path fill="#ffffff" d="
  M 243.40 143.65
  A 0.76 0.76 13.3 0 1 242.93 142.89
  Q 243.86 130.89 251.82 123.30
  Q 253.35 121.84 255.43 121.47
  Q 260.37 120.57 260.89 125.74
  Q 261.54 132.25 258.79 137.72
  Q 256.53 142.22 252.78 143.86
  Q 248.44 145.77 243.40 143.65
  Z"
/>
<path fill="#ffffff" d="
  M 320.97 122.61
  Q 325.45 119.84 331.58 122.20
  A 0.69 0.69 12.3 0 1 332.03 122.90
  Q 331.42 130.73 327.80 137.28
  Q 324.91 142.50 319.75 144.25
  Q 316.97 145.19 315.45 143.42
  Q 314.48 142.30 314.20 139.83
  Q 313.61 134.83 315.27 130.29
  Q 317.22 124.94 320.97 122.61
  Z"
/>
<path fill="#000000" d="
  M 84.83 125.51
  Q 86.07 127.02 84.55 129.05
  Q 80.72 134.19 75.69 130.06
  Q 73.76 128.48 74.15 126.00
  A 1.05 0.97 81.8 0 1 74.67 125.25
  Q 76.28 124.38 76.99 125.75
  Q 77.82 127.36 77.92 127.47
  Q 80.23 129.97 82.59 125.72
  A 1.36 1.36 -50.3 0 1 84.83 125.51
  Z"
/>
<path fill="#ffffff" d="
  M 116.58 127.87
  Q 119.37 128.29 122.59 127.22
  A 1.29 1.29 -31.3 0 1 123.91 127.54
  L 126.12 129.75
  A 0.75 0.74 52.6 0 1 125.97 130.92
  Q 118.95 134.93 111.55 131.05
  A 0.80 0.80 -53.4 0 1 111.36 129.77
  Q 112.06 129.06 112.89 127.94
  Q 114.00 126.43 115.27 127.34
  Q 115.86 127.76 116.58 127.87
  Z"
/>
<path fill="#ffffff" d="
  M 115.56 135.94
  Q 122.57 137.05 128.59 133.03
  A 0.64 0.62 -39.7 0 1 129.38 133.09
  L 133.09 136.74
  A 0.55 0.54 -39.7 0 1 133.00 137.58
  Q 119.25 146.84 105.40 137.62
  A 1.10 1.08 39.3 0 1 105.21 135.94
  L 108.12 133.08
  A 0.62 0.57 40.8 0 1 108.89 133.05
  Q 112.07 135.39 115.56 135.94
  Z"
/>
<path fill="#000000" d="
  M 160.07 188.18
  Q 162.11 189.17 160.33 189.82
  Q 159.85 190.00 159.14 190.00
  Q 123.47 190.04 87.81 189.94
  A 0.59 0.58 -4.6 0 1 87.23 189.45
  Q 86.45 184.72 87.45 180.04
  A 0.92 0.90 -3.8 0 1 88.03 179.39
  L 132.52 163.99
  A 0.94 0.90 -10.6 0 1 133.76 164.81
  L 133.97 175.61
  A 1.37 1.26 -80.1 0 0 134.74 176.81
  Q 147.75 182.16 160.07 188.18
  Z
  M 108.34 182.61
  Q 110.93 184.66 107.75 185.75
  Q 106.35 186.23 101.05 187.22
  Q 100.13 187.39 100.86 187.66
  Q 101.09 187.75 101.50 187.75
  Q 120.03 187.89 138.57 187.57
  A 0.53 0.51 -0.6 0 0 139.09 187.06
  L 139.04 182.75
  A 0.83 0.82 12.2 0 0 138.56 182.02
  L 132.47 179.19
  A 1.56 1.37 -36.4 0 0 131.52 179.11
  Q 130.43 179.37 129.37 179.71
  Q 126.67 180.57 126.56 178.31
  A 0.91 0.85 -19.7 0 1 126.96 177.53
  Q 128.54 176.47 130.43 176.23
  A 0.60 0.53 -3.6 0 0 130.96 175.70
  L 130.95 168.30
  A 0.37 0.36 -9.5 0 0 130.46 167.97
  L 90.49 181.75
  A 0.73 0.73 80.5 0 0 90.00 182.44
  L 90.00 186.60
  A 0.41 0.40 -7.2 0 0 90.51 186.99
  L 107.45 182.44
  A 1.02 0.97 -32.7 0 1 108.34 182.61
  Z
  M 151.06 187.31
  L 142.73 183.91
  A 0.45 0.37 12.5 0 0 142.11 184.22
  L 142.20 187.24
  A 0.61 0.53 -1.0 0 0 142.81 187.75
  L 150.96 187.75
  Q 152.15 187.75 151.06 187.31
  Z"
/>
<path fill="#ffffff" d="
  M 107.45 182.44
  L 90.51 186.99
  A 0.41 0.40 -7.2 0 1 90.00 186.60
  L 90.00 182.44
  A 0.73 0.73 80.5 0 1 90.49 181.75
  L 130.46 167.97
  A 0.37 0.36 -9.5 0 1 130.95 168.30
  L 130.96 175.70
  A 0.60 0.53 -3.6 0 1 130.43 176.23
  Q 128.54 176.47 126.96 177.53
  A 0.91 0.85 -19.7 0 0 126.56 178.31
  Q 126.67 180.57 129.37 179.71
  Q 130.43 179.37 131.52 179.11
  A 1.56 1.37 -36.4 0 1 132.47 179.19
  L 138.56 182.02
  A 0.83 0.82 12.2 0 1 139.04 182.75
  L 139.09 187.06
  A 0.53 0.51 -0.6 0 1 138.57 187.57
  Q 120.03 187.89 101.50 187.75
  Q 101.09 187.75 100.86 187.66
  Q 100.13 187.39 101.05 187.22
  Q 106.35 186.23 107.75 185.75
  Q 110.93 184.66 108.34 182.61
  A 1.02 0.97 -32.7 0 0 107.45 182.44
  Z
  M 122.56 182.76
  Q 123.73 180.57 122.87 178.57
  Q 122.06 176.68 119.82 175.79
  Q 116.98 174.66 114.80 176.55
  Q 113.00 178.12 112.90 180.59
  Q 112.79 183.58 115.40 184.94
  Q 116.84 185.68 119.87 185.72
  Q 127.40 185.82 134.94 185.70
  A 1.37 0.97 14.7 0 0 135.82 185.37
  Q 136.48 184.70 136.03 183.90
  A 0.98 0.68 -8.7 0 0 135.25 183.52
  L 122.82 183.23
  A 0.32 0.31 -75.1 0 1 122.56 182.76
  Z"
/>
<path fill="#000000" d="
  M 257.44 171.94
  Q 260.63 167.28 266.06 169.78
  A 0.96 0.82 11.9 0 1 266.60 170.48
  Q 266.74 171.62 265.50 171.74
  A 1.77 0.95 43.3 0 1 264.57 171.49
  Q 262.53 170.33 261.06 171.31
  Q 257.37 173.79 258.37 178.28
  Q 259.11 181.57 262.50 181.96
  Q 265.68 182.33 265.50 179.00
  Q 265.45 178.06 264.74 177.97
  A 1.29 0.46 0.7 0 1 263.90 177.66
  Q 262.74 176.32 266.00 175.86
  A 1.10 1.09 -3.9 0 1 267.25 176.94
  L 267.25 182.00
  A 0.88 0.83 76.0 0 1 266.83 182.75
  Q 262.73 185.07 259.45 183.07
  Q 256.82 181.47 256.14 178.21
  Q 255.43 174.87 257.44 171.94
  Z"
/>
<path fill="#000000" d="
  M 211.13 175.30
  L 211.26 182.75
  A 0.77 0.71 79.7 0 1 210.80 183.47
  Q 210.18 183.70 209.54 183.58
  A 0.66 0.59 -85.3 0 1 209.06 182.94
  L 209.00 170.73
  Q 208.99 167.73 210.74 170.19
  L 216.13 177.74
  Q 217.00 178.95 217.00 177.46
  Q 217.00 174.25 216.77 171.27
  Q 216.55 168.44 218.80 169.51
  A 0.81 0.79 -76.9 0 1 219.25 170.25
  L 219.20 182.95
  Q 219.19 185.11 217.95 183.33
  L 212.11 174.95
  Q 211.10 173.50 211.13 175.30
  Z"
/>
<circle fill="#000000" cx="331.13" cy="170.39" r="1.16"/>
<path fill="#000000" d="
  M 243.38 172.20
  Q 243.23 170.15 244.96 170.64
  A 0.58 0.51 -76.5 0 1 245.31 171.30
  Q 244.86 173.51 247.45 173.15
  A 0.60 0.53 -11.2 0 1 248.10 173.53
  Q 248.48 174.98 246.31 174.65
  A 0.59 0.56 11.4 0 0 245.67 175.05
  Q 244.88 177.92 245.56 180.83
  A 1.38 1.09 -85.4 0 0 246.08 181.61
  Q 246.93 182.16 248.00 182.07
  A 0.79 0.56 -9.5 0 1 248.74 182.43
  Q 248.90 182.87 248.74 183.31
  A 0.94 0.77 4.3 0 1 248.01 183.82
  Q 243.20 184.37 243.42 179.25
  Q 243.50 177.50 243.50 175.87
  A 1.07 1.06 19.4 0 0 243.10 175.04
  Q 241.27 173.55 242.97 172.85
  A 0.67 0.63 -14.5 0 0 243.38 172.20
  Z"
/>
<path fill="#000000" d="
  M 324.55 172.88
  Q 325.49 172.84 326.27 173.28
  A 0.78 0.60 25.1 0 1 326.67 174.05
  Q 326.49 174.69 325.22 174.45
  A 1.03 1.02 -84.5 0 0 324.00 175.46
  Q 324.00 177.12 323.83 179.24
  Q 323.60 182.28 326.43 182.11
  A 1.20 0.82 -16.0 0 1 327.30 182.40
  Q 327.96 183.13 327.00 183.50
  Q 323.16 184.98 322.06 180.94
  Q 321.62 179.29 321.90 175.32
  A 0.63 0.63 10.6 0 0 321.46 174.68
  Q 319.60 174.07 321.27 172.95
  A 1.04 0.97 75.6 0 0 321.69 172.18
  Q 321.82 170.54 323.43 170.53
  A 0.56 0.53 88.3 0 1 323.96 171.06
  L 324.04 172.44
  A 0.48 0.46 -3.0 0 0 324.55 172.88
  Z"
/>
<path fill="#000000" d="
  M 225.57 181.89
  Q 226.99 182.20 228.30 181.70
  A 1.27 0.91 -36.1 0 1 229.21 181.69
  Q 230.53 182.34 228.74 183.17
  Q 224.14 185.29 221.75 181.25
  Q 220.08 178.43 221.90 175.41
  Q 223.76 172.35 227.41 173.17
  Q 230.81 173.93 230.74 177.85
  A 0.74 0.70 -0.0 0 1 230.01 178.54
  L 223.94 178.63
  A 0.61 0.59 -87.8 0 0 223.36 179.18
  Q 223.15 181.37 225.57 181.89
  Z
  M 227.57 175.18
  Q 225.03 173.92 223.53 176.37
  Q 223.14 177.00 223.88 177.00
  Q 225.64 177.00 227.14 177.00
  Q 227.89 177.00 228.29 176.70
  Q 229.24 176.02 227.57 175.18
  Z"
/>
<path fill="#000000" d="
  M 236.94 175.75
  Q 237.74 174.41 238.93 173.38
  Q 239.33 173.03 239.81 172.99
  Q 241.24 172.87 240.23 174.24
  Q 238.96 175.96 237.57 177.84
  A 0.70 0.70 -45.8 0 0 237.58 178.67
  L 240.89 183.04
  Q 241.21 183.46 240.69 183.49
  Q 238.11 183.66 236.85 180.64
  Q 236.51 179.81 236.00 180.52
  L 234.30 182.87
  A 1.48 0.80 -66.2 0 1 233.57 183.44
  Q 230.55 184.16 232.69 181.94
  Q 235.65 178.85 234.81 177.69
  L 232.17 174.03
  A 0.70 0.65 66.9 0 1 232.56 172.95
  Q 234.20 172.71 234.86 174.59
  Q 235.26 175.71 236.20 176.06
  A 0.67 0.58 -63.3 0 0 236.94 175.75
  Z"
/>
<path fill="#000000" d="
  M 275.92 181.92
  Q 276.55 181.75 277.19 181.64
  A 0.76 0.62 -15.7 0 1 277.97 181.98
  Q 278.35 182.84 276.81 183.31
  Q 272.90 184.52 270.97 182.28
  Q 269.33 180.40 269.70 177.40
  Q 270.13 173.84 273.73 173.16
  Q 276.08 172.72 277.57 173.88
  Q 279.27 175.21 279.25 178.01
  A 0.56 0.53 -0.0 0 1 278.70 178.53
  L 272.18 178.64
  A 0.49 0.48 86.7 0 0 271.71 179.18
  Q 271.92 181.50 274.18 182.05
  Q 274.86 182.21 275.92 181.92
  Z
  M 272.19 176.18
  Q 271.57 176.90 272.47 176.89
  L 276.51 176.86
  Q 277.08 176.85 276.76 176.31
  Q 274.85 173.11 272.19 176.18
  Z"
/>
<path fill="#000000" d="
  M 283.24 173.68
  Q 286.65 171.78 288.31 173.98
  Q 289.23 175.20 289.30 178.25
  Q 289.36 180.60 289.42 182.94
  A 0.70 0.67 79.9 0 1 288.97 183.62
  Q 287.14 184.24 287.75 182.00
  Q 288.10 180.71 287.57 177.59
  Q 287.28 175.84 286.38 175.12
  Q 284.96 173.97 283.39 175.68
  A 1.42 1.25 69.4 0 0 283.05 176.57
  Q 282.97 179.41 283.21 182.23
  Q 283.36 184.16 281.48 183.39
  A 0.78 0.78 15.4 0 1 281.00 182.67
  Q 281.00 178.46 281.00 174.61
  Q 281.00 173.87 281.20 173.43
  Q 281.72 172.36 282.54 173.52
  A 0.54 0.52 56.7 0 0 283.24 173.68
  Z"
/>
<path fill="#000000" d="
  M 293.43 179.58
  Q 294.20 182.92 298.18 181.54
  Q 300.03 180.90 299.99 182.45
  A 0.76 0.66 -9.1 0 1 299.45 183.09
  Q 298.40 183.43 297.32 183.72
  Q 296.18 184.03 295.20 183.68
  Q 290.52 182.03 291.57 177.33
  Q 292.13 174.79 293.78 173.70
  Q 295.83 172.34 298.67 173.67
  Q 301.26 174.89 301.06 177.87
  A 0.61 0.55 -87.8 0 1 300.51 178.44
  L 294.43 178.46
  A 1.01 0.91 -6.2 0 0 293.43 179.58
  Z
  M 293.88 176.26
  Q 293.37 176.99 294.25 176.99
  L 298.19 176.96
  A 0.66 0.57 3.5 0 0 298.83 176.47
  Q 298.94 175.67 298.02 175.21
  Q 295.53 173.94 293.88 176.26
  Z"
/>
<path fill="#000000" d="
  M 305.68 173.85
  Q 306.89 172.84 308.50 172.94
  A 0.79 0.70 -4.3 0 1 309.19 173.46
  Q 309.51 174.68 307.28 174.78
  A 2.01 2.00 5.6 0 0 305.43 176.29
  Q 304.79 178.83 305.18 181.73
  Q 305.52 184.26 303.52 183.62
  A 0.74 0.69 -81.2 0 1 303.05 182.93
  L 303.05 173.81
  A 0.82 0.75 79.0 0 1 303.50 173.08
  Q 304.64 172.60 305.15 173.72
  A 0.35 0.34 57.9 0 0 305.68 173.85
  Z"
/>
<path fill="#000000" d="
  M 316.38 176.20
  Q 315.36 173.80 312.98 174.90
  Q 312.18 175.27 311.84 175.32
  Q 310.35 175.55 311.29 173.98
  A 1.56 1.49 3.9 0 1 312.02 173.37
  Q 316.07 171.74 318.02 175.30
  A 1.77 1.38 -62.8 0 1 318.20 176.25
  Q 317.92 179.64 319.07 182.79
  A 0.97 0.62 62.1 0 1 319.00 183.68
  Q 318.71 183.98 318.25 183.75
  Q 316.14 182.69 314.37 183.67
  A 1.71 1.03 -43.7 0 1 313.44 183.88
  Q 311.10 183.51 310.51 181.62
  Q 309.92 179.75 311.39 178.35
  Q 313.03 176.80 316.04 176.73
  A 0.39 0.38 78.3 0 0 316.38 176.20
  Z
  M 312.44 180.19
  Q 311.20 182.61 313.75 182.25
  Q 316.46 181.86 316.50 179.11
  A 0.61 0.60 0.9 0 0 315.90 178.50
  Q 313.31 178.49 312.44 180.19
  Z"
/>
<path fill="#000000" d="
  M 329.20 174.48
  Q 327.91 174.18 328.86 173.31
  A 1.34 1.25 23.2 0 1 329.75 172.99
  L 331.44 173.03
  A 0.53 0.52 -89.4 0 1 331.95 173.56
  L 331.95 182.93
  A 0.69 0.66 82.9 0 1 331.46 183.59
  Q 329.39 184.14 330.00 181.25
  Q 330.42 179.25 329.77 175.05
  A 0.75 0.70 2.3 0 0 329.20 174.48
  Z"
/>
<path fill="#000000" d="
  M 338.8329 183.9890
  A 5.58 4.79 91.1 0 1 334.1509 178.3180
  A 5.58 4.79 91.1 0 1 339.0471 172.8310
  A 5.58 4.79 91.1 0 1 343.7291 178.5020
  A 5.58 4.79 91.1 0 1 338.8329 183.9890
  Z
  M 338.6288 182.1363
  A 3.76 2.79 94.9 0 0 341.7298 178.6283
  A 3.76 2.79 94.9 0 0 339.2712 174.6437
  A 3.76 2.79 94.9 0 0 336.1702 178.1517
  A 3.76 2.79 94.9 0 0 338.6288 182.1363
  Z"
/>
<path fill="#000000" d="
  M 348.16 173.73
  Q 351.96 171.37 353.75 175.50
  Q 354.56 177.35 353.87 183.07
  A 0.78 0.74 85.6 0 1 353.34 183.72
  Q 351.73 184.19 351.85 183.18
  Q 352.05 181.57 352.03 179.95
  Q 351.93 173.26 348.11 175.43
  A 1.16 1.08 82.8 0 0 347.58 176.17
  Q 346.80 179.90 347.25 182.00
  Q 347.80 184.56 345.98 183.47
  A 0.99 0.75 -78.1 0 1 345.61 182.69
  L 345.60 173.82
  A 0.67 0.53 86.6 0 1 346.05 173.17
  Q 346.81 173.05 347.42 173.62
  A 0.65 0.58 50.2 0 0 348.16 173.73
  Z"
/>
<ellipse fill="#ffffff" cx="0.00" cy="0.00" transform="translate(338.95,178.39) rotate(94.9)" rx="3.76" ry="2.79"/>
<path fill="#ffffff" d="
  M 227.57 175.18
  Q 229.24 176.02 228.29 176.70
  Q 227.89 177.00 227.14 177.00
  Q 225.64 177.00 223.88 177.00
  Q 223.14 177.00 223.53 176.37
  Q 225.03 173.92 227.57 175.18
  Z"
/>
<path fill="#ffffff" d="
  M 272.19 176.18
  Q 274.85 173.11 276.76 176.31
  Q 277.08 176.85 276.51 176.86
  L 272.47 176.89
  Q 271.57 176.90 272.19 176.18
  Z"
/>
<path fill="#ffffff" d="
  M 293.88 176.26
  Q 295.53 173.94 298.02 175.21
  Q 298.94 175.67 298.83 176.47
  A 0.66 0.57 3.5 0 1 298.19 176.96
  L 294.25 176.99
  Q 293.37 176.99 293.88 176.26
  Z"
/>
<path fill="#000000" d="
  M 122.82 183.23
  L 135.25 183.52
  A 0.98 0.68 -8.7 0 1 136.03 183.90
  Q 136.48 184.70 135.82 185.37
  A 1.37 0.97 14.7 0 1 134.94 185.70
  Q 127.40 185.82 119.87 185.72
  Q 116.84 185.68 115.40 184.94
  Q 112.79 183.58 112.90 180.59
  Q 113.00 178.12 114.80 176.55
  Q 116.98 174.66 119.82 175.79
  Q 122.06 176.68 122.87 178.57
  Q 123.73 180.57 122.56 182.76
  A 0.32 0.31 -75.1 0 0 122.82 183.23
  Z
  M 120.83 180.51
  A 2.81 2.81 0.0 0 0 118.02 177.70
  A 2.81 2.81 0.0 0 0 115.21 180.51
  A 2.81 2.81 0.0 0 0 118.02 183.32
  A 2.81 2.81 0.0 0 0 120.83 180.51
  Z"
/>
<circle fill="#ffffff" cx="118.02" cy="180.51" r="2.81"/>
<path fill="#ffffff" d="
  M 312.44 180.19
  Q 313.31 178.49 315.90 178.50
  A 0.61 0.60 0.9 0 1 316.50 179.11
  Q 316.46 181.86 313.75 182.25
  Q 311.20 182.61 312.44 180.19
  Z"
/>
<path fill="#ffffff" d="
  M 151.06 187.31
  Q 152.15 187.75 150.96 187.75
  L 142.81 187.75
  A 0.61 0.53 -1.0 0 1 142.20 187.24
  L 142.11 184.22
  A 0.45 0.37 12.5 0 1 142.73 183.91
  L 151.06 187.31
  Z"
/>
</svg>
