<?xml version="1.0" encoding="UTF-8"?>
<!DOCTYPE svg PUBLIC "-//W3C//DTD SVG 1.1//EN" "http://www.w3.org/Graphics/SVG/1.1/DTD/svg11.dtd">
<svg xmlns="http://www.w3.org/2000/svg" version="1.1" width="410px" height="149px" style="shape-rendering:geometricPrecision; text-rendering:geometricPrecision; image-rendering:optimizeQuality; fill-rule:evenodd; clip-rule:evenodd" xmlns:xlink="http://www.w3.org/1999/xlink">
<g><path style="opacity:1" fill="#fefefe" d="M -0.5,-0.5 C 136.167,-0.5 272.833,-0.5 409.5,-0.5C 409.5,49.1667 409.5,98.8333 409.5,148.5C 272.833,148.5 136.167,148.5 -0.5,148.5C -0.5,98.8333 -0.5,49.1667 -0.5,-0.5 Z"/></g>
<g><path style="opacity:1" fill="#000000" d="M 253.5,50.5 C 261.818,50.9869 263.485,54.4869 258.5,61C 250.088,60.8117 248.421,57.3117 253.5,50.5 Z"/></g>
<g><path style="opacity:1" fill="#000000" d="M 305.5,50.5 C 307.833,50.5 310.167,50.5 312.5,50.5C 312.5,70.1667 312.5,89.8333 312.5,109.5C 310.5,109.5 308.5,109.5 306.5,109.5C 306.664,106.813 306.497,104.146 306,101.5C 301.207,109.543 294.373,112.043 285.5,109C 279.447,103.942 276.78,97.4418 277.5,89.5C 278.18,71.8124 287.18,64.4791 304.5,67.5C 305.495,61.8722 305.829,56.2055 305.5,50.5 Z"/></g>
<g><path style="opacity:1" fill="#000000" d="M 119.5,55.5 C 126.508,55.3337 133.508,55.5004 140.5,56C 153.131,60.5577 155.797,68.5577 148.5,80C 146.33,81.5862 143.996,82.9196 141.5,84C 144.011,86.1793 146.178,88.6793 148,91.5C 150.433,97.5324 153.266,103.366 156.5,109C 153.446,109.821 150.446,109.655 147.5,108.5C 144.606,101.712 141.44,95.0454 138,88.5C 134.587,85.986 130.753,84.986 126.5,85.5C 126.5,93.5 126.5,101.5 126.5,109.5C 124.167,109.5 121.833,109.5 119.5,109.5C 119.5,91.5 119.5,73.5 119.5,55.5 Z"/></g>
<g><path style="opacity:1" fill="#000000" d="M 334.5,55.5 C 337.898,55.1796 341.232,55.513 344.5,56.5C 350.407,74.0539 356.407,91.5539 362.5,109C 359.833,109.667 357.167,109.667 354.5,109C 353.167,105.333 351.833,101.667 350.5,98C 342.841,97.5003 335.174,97.3336 327.5,97.5C 326.5,101.5 325.5,105.5 324.5,109.5C 321.753,109.813 319.086,109.48 316.5,108.5C 322.509,90.8051 328.509,73.1384 334.5,55.5 Z"/></g>
<g><path style="opacity:1" fill="#000000" d="M 364.5,55.5 C 375.5,55.5 386.5,55.5 397.5,55.5C 397.5,57.5 397.5,59.5 397.5,61.5C 393.167,61.5 388.833,61.5 384.5,61.5C 384.5,75.5 384.5,89.5 384.5,103.5C 388.833,103.5 393.167,103.5 397.5,103.5C 397.5,105.5 397.5,107.5 397.5,109.5C 386.5,109.5 375.5,109.5 364.5,109.5C 364.5,107.5 364.5,105.5 364.5,103.5C 368.833,103.5 373.167,103.5 377.5,103.5C 377.5,89.5 377.5,75.5 377.5,61.5C 373.167,61.5 368.833,61.5 364.5,61.5C 364.5,59.5 364.5,57.5 364.5,55.5 Z"/></g>
<g><path style="opacity:1" fill="#fefffe" d="M 126.5,61.5 C 130.514,61.3345 134.514,61.5012 138.5,62C 142.68,63.0238 144.68,65.6905 144.5,70C 144.435,74.735 142.102,77.735 137.5,79C 133.848,79.4986 130.182,79.6653 126.5,79.5C 126.5,73.5 126.5,67.5 126.5,61.5 Z"/></g>
<g><path style="opacity:1" fill="#fefffe" d="M 338.5,61.5 C 341.706,70.9453 345.039,80.4453 348.5,90C 342.509,90.4995 336.509,90.6662 330.5,90.5C 333.167,80.8333 335.833,71.1667 338.5,61.5 Z"/></g>
<g><path style="opacity:1" fill="#000000" d="M 171.5,66.5 C 179.095,65.3582 185.928,67.0249 192,71.5C 192.862,73.087 193.529,74.7536 194,76.5C 194.5,87.495 194.667,98.495 194.5,109.5C 192.5,109.5 190.5,109.5 188.5,109.5C 188.662,107.473 188.495,105.473 188,103.5C 180.491,111.519 172.158,112.519 163,106.5C 157.852,95.5993 161.019,88.4326 172.5,85C 177.489,84.5007 182.489,84.3341 187.5,84.5C 188.764,76.2668 185.264,72.2668 177,72.5C 172.46,72.7404 168.127,73.7404 164,75.5C 163.186,73.0982 163.353,70.7649 164.5,68.5C 166.982,67.9329 169.316,67.2663 171.5,66.5 Z"/></g>
<g><path style="opacity:1" fill="#000000" d="M 216.5,66.5 C 227.048,65.8748 232.881,70.8748 234,81.5C 236.624,102.708 227.457,112.042 206.5,109.5C 206.5,115.167 206.5,120.833 206.5,126.5C 204.167,126.5 201.833,126.5 199.5,126.5C 199.5,106.833 199.5,87.1667 199.5,67.5C 201.5,67.5 203.5,67.5 205.5,67.5C 205.372,69.6547 205.872,71.6547 207,73.5C 209.529,70.1151 212.696,67.7818 216.5,66.5 Z"/></g>
<g><path style="opacity:1" fill="#000000" d="M 240.5,67.5 C 247.167,67.5 253.833,67.5 260.5,67.5C 260.5,79.5 260.5,91.5 260.5,103.5C 264.5,103.5 268.5,103.5 272.5,103.5C 272.5,105.5 272.5,107.5 272.5,109.5C 261.5,109.5 250.5,109.5 239.5,109.5C 239.5,107.5 239.5,105.5 239.5,103.5C 244.167,103.5 248.833,103.5 253.5,103.5C 253.5,93.5 253.5,83.5 253.5,73.5C 249.167,73.5 244.833,73.5 240.5,73.5C 240.5,71.5 240.5,69.5 240.5,67.5 Z"/></g>
<g><path style="opacity:1" fill="#fefffe" d="M 216.5,72.5 C 222.908,72.0731 226.408,75.0731 227,81.5C 227.984,87.7046 227.317,93.7046 225,99.5C 219.769,104.822 213.769,105.822 207,102.5C 206.333,95.1667 206.333,87.8333 207,80.5C 209.795,77.1894 212.961,74.5228 216.5,72.5 Z"/></g>
<g><path style="opacity:1" fill="#fefffe" d="M 293.5,72.5 C 297.546,72.1499 301.38,72.8166 305,74.5C 305.667,81.5 305.667,88.5 305,95.5C 302.262,100.2 298.262,103.2 293,104.5C 290.594,104.297 288.594,103.297 287,101.5C 283.667,93.5 283.667,85.5 287,77.5C 288.805,75.1743 290.972,73.5077 293.5,72.5 Z"/></g>
<g><path style="opacity:1" fill="#191919" d="M 53.5,22.5 C 77.6381,20.1494 95.4714,29.4827 107,50.5C 112.869,70.5911 106.703,85.7578 88.5,96C 68.9947,103.002 49.328,109.502 29.5,115.5C 21.5386,113.753 18.8719,108.92 21.5,101C 18.9745,98.2734 18.9745,95.6067 21.5,93C 20.2341,92.6905 19.0674,92.1905 18,91.5C 17.6664,89.1527 17.833,86.8194 18.5,84.5C 14.3863,84.3818 11.7196,82.3818 10.5,78.5C 14.5494,73.9396 18.0494,68.9396 21,63.5C 21.8377,41.7907 32.6711,28.124 53.5,22.5 Z"/></g>
<g><path style="opacity:1" fill="#fafafa" d="M 55.5,24.5 C 75.9521,22.9778 91.7855,30.6444 103,47.5C 110.397,63.6598 107.563,77.8264 94.5,90C 92.3295,91.5862 89.9962,92.9196 87.5,94C 69.0608,100.054 50.7274,106.388 32.5,113C 23.6121,113.262 20.6121,109.095 23.5,100.5C 23.6102,98.626 22.9436,97.126 21.5,96C 24.4171,94.7672 27.0837,93.2672 29.5,91.5C 26.1667,90.8333 22.8333,90.1667 19.5,89.5C 20.5202,87.5675 20.6869,85.5675 20,83.5C 16.894,82.7001 14.394,81.0334 12.5,78.5C 17.2913,74.212 21.1246,69.212 24,63.5C 24.549,42.3775 35.049,29.3775 55.5,24.5 Z"/></g>
<g><path style="opacity:1" fill="#171717" d="M 37.5,62.5 C 40.0168,64.0771 40.0168,65.9104 37.5,68C 32.7856,69.4231 30.7856,67.9231 31.5,63.5C 34.4604,67.7274 36.4604,67.394 37.5,62.5 Z"/></g>
<g><path style="opacity:1" fill="#1b1b1b" d="M 67.5,33.5 C 87.006,33.5048 96.506,43.1715 96,62.5C 89.3611,80.3979 77.1945,85.5646 59.5,78C 45.6902,65.5951 45.0236,52.5951 57.5,39C 60.7667,36.8703 64.1,35.037 67.5,33.5 Z"/></g>
<g><path style="opacity:1" fill="#f2f2f2" d="M 61.5,69.5 C 68.1402,73.4951 74.8068,73.4951 81.5,69.5C 83.3159,70.8149 84.9825,72.3149 86.5,74C 77.465,81.1198 68.2983,81.2865 59,74.5C 59.0579,72.5646 59.8912,70.8979 61.5,69.5 Z"/></g>
<g><path style="opacity:1" fill="#ececec" d="M 67.5,63.5 C 70.7473,64.2515 74.0806,64.7515 77.5,65C 80.2841,67.7841 79.6174,69.4508 75.5,70C 72.8333,70.6667 70.1667,70.6667 67.5,70C 66.09,69.6322 65.09,68.7989 64.5,67.5C 65.5244,66.1482 66.5244,64.8149 67.5,63.5 Z"/></g>
<g><path style="opacity:1" fill="#f2f2f2" d="M 69.5,51.5 C 77.8185,51.9869 79.4851,55.4869 74.5,62C 66.0878,61.8117 64.4211,58.3117 69.5,51.5 Z"/></g>
<g><path style="opacity:1" fill="#e9e9e9" d="M 81.5,49.5 C 85.17,52.1713 86.3367,55.8379 85,60.5C 83.5123,66.2009 81.3457,66.7009 78.5,62C 79.751,58.9532 79.751,55.9532 78.5,53C 79.7101,51.9609 80.7101,50.7942 81.5,49.5 Z"/></g>
<g><path style="opacity:1" fill="#ececec" d="M 60.5,49.5 C 62.5441,50.0312 64.2107,51.1978 65.5,53C 64.249,55.9532 64.249,58.9532 65.5,62C 62.6543,66.7009 60.4877,66.2009 59,60.5C 58.2415,56.6434 58.7415,52.9767 60.5,49.5 Z"/></g>
<g><path style="opacity:1" fill="#f4f4f4" d="M 87.5,43.5 C 92.1697,46.8554 94.1697,51.5221 93.5,57.5C 94.114,63.2524 92.2807,67.919 88,71.5C 86.0403,70.7082 84.5403,69.3749 83.5,67.5C 88.3063,61.0522 88.6396,54.3855 84.5,47.5C 85.5244,46.1482 86.5244,44.8149 87.5,43.5 Z"/></g>
<g><path style="opacity:1" fill="#eaeaea" d="M 68.5,43.5 C 73.1774,43.059 77.1774,44.3923 80.5,47.5C 79.5197,48.9814 78.353,50.3147 77,51.5C 74.0286,49.3662 70.862,49.0328 67.5,50.5C 66.0186,49.5197 64.6853,48.353 63.5,47C 65.2331,45.8111 66.8998,44.6444 68.5,43.5 Z"/></g>
<g><path style="opacity:1" fill="#f5f5f5" d="M 55.5,44.5 C 57.3841,44.7118 58.7174,45.7118 59.5,47.5C 55.2698,54.4182 55.6032,61.0848 60.5,67.5C 57.3256,73.0064 54.8256,72.6731 53,66.5C 50.3559,58.656 51.1892,51.3227 55.5,44.5 Z"/></g>
<g><path style="opacity:1" fill="#f3f3f3" d="M 65.5,36.5 C 69.8461,36.3343 74.1794,36.501 78.5,37C 81.6207,37.7261 84.2873,39.2261 86.5,41.5C 85.5,43.1667 84.1667,44.5 82.5,45.5C 75.6016,40.2772 68.7682,40.2772 62,45.5C 60.647,44.3147 59.4803,42.9814 58.5,41.5C 60.7243,39.566 63.0576,37.8994 65.5,36.5 Z"/></g>
<g><path style="opacity:1" fill="#fefffe" d="M 174.5,90.5 C 178.833,90.5 183.167,90.5 187.5,90.5C 188.287,99.0583 184.287,103.725 175.5,104.5C 168.908,103.317 167.075,99.65 170,93.5C 171.409,92.2189 172.909,91.2189 174.5,90.5 Z"/></g>
<g><path style="opacity:1" fill="#1b1b1b" d="M 82.5,100.5 C 83.8333,100.5 85.1667,100.5 86.5,100.5C 86.1758,104.555 86.5091,108.555 87.5,112.5C 95.8442,116.005 103.844,120.005 111.5,124.5C 88.5097,125.5 65.5097,125.833 42.5,125.5C 42.5,121.833 42.5,118.167 42.5,114.5C 56.122,110.405 69.4554,105.738 82.5,100.5 Z"/></g>
<g><path style="opacity:1" fill="#eeeeee" d="M 91.5,122.5 C 79.6547,122.828 67.988,122.495 56.5,121.5C 58.4352,120.85 60.4352,120.517 62.5,120.5C 62.719,119.325 62.3857,118.325 61.5,117.5C 55.8702,119.324 50.2035,120.99 44.5,122.5C 44.0833,119.921 44.75,117.754 46.5,116C 59.0353,111.321 71.702,107.155 84.5,103.5C 84.6641,106.187 84.4974,108.854 84,111.5C 82.7949,112.071 81.6283,112.738 80.5,113.5C 83.9612,114.135 87.2946,115.135 90.5,116.5C 91.4656,118.396 91.7989,120.396 91.5,122.5 Z"/></g>
<g><path style="opacity:1" fill="#131313" d="M 69.5,110.5 C 74.7963,110.611 76.7963,113.111 75.5,118C 79.8711,118.172 84.2044,118.672 88.5,119.5C 81.8582,120.664 75.1915,120.831 68.5,120C 65.6749,116.476 66.0082,113.31 69.5,110.5 Z"/></g>
<g><path style="opacity:1" fill="#e0e0e0" d="M 69.5,113.5 C 73.4193,112.746 74.7527,114.08 73.5,117.5C 69.1339,119.134 67.8006,117.801 69.5,113.5 Z"/></g>
<g><path style="opacity:1" fill="#f2f2f2" d="M 102.5,121.5 C 100.052,122.473 97.3854,122.806 94.5,122.5C 94.238,121.022 94.5713,119.689 95.5,118.5C 97.7388,119.788 100.072,120.788 102.5,121.5 Z"/></g>
<g><path style="opacity:1" fill="#6e6e6e" d="M 56.5,121.5 C 67.988,122.495 79.6547,122.828 91.5,122.5C 78.6732,123.66 65.6732,123.827 52.5,123C 53.745,122.209 55.0783,121.709 56.5,121.5 Z"/></g>
<g><path style="opacity:1" fill="#6f6f6f" d="M 102.5,121.5 C 103.289,121.783 103.956,122.283 104.5,123C 100.973,123.808 97.6399,123.641 94.5,122.5C 97.3854,122.806 100.052,122.473 102.5,121.5 Z"/></g>
</svg>
