<?xml version="1.0" encoding="UTF-8" standalone="no"?>
<!DOCTYPE svg PUBLIC "-//W3C//DTD SVG 1.1//EN" "http://www.w3.org/Graphics/SVG/1.1/DTD/svg11.dtd">
<svg xmlns="http://www.w3.org/2000/svg" version="1.1" viewBox="0 0 271 271">
<g stroke-width="2.0" fill="none" stroke-linecap="butt">
<path stroke="#808080" vector-effect="non-scaling-stroke" d="
  M 89.83 89.27
  Q 89.90 90.00 88.79 91.60
  A 1.20 1.01 -37.2 0 0 88.59 92.48
  Q 89.21 95.24 92.47 95.79
  Q 93.57 95.97 92.57 96.46
  Q 89.78 97.86 90.85 100.48
  Q 91.01 100.86 91.48 101.23
  Q 93.80 103.02 92.56 106.56
  Q 90.82 111.56 93.45 115.33
  Q 95.73 118.59 100.22 119.32
  Q 104.24 119.97 108.25 118.49
  Q 110.33 117.73 110.41 117.70
  Q 129.26 111.46 148.04 105.01
  Q 164.05 99.52 166.77 98.05
  Q 176.27 92.91 181.48 83.47
  Q 186.53 74.30 186.30 64.36
  Q 186.06 54.00 179.92 44.82
  Q 170.01 30.03 153.56 24.73
  Q 148.94 23.24 142.26 23.01
  Q 136.51 22.81 130.75 22.77
  Q 125.71 22.73 120.56 24.56
  Q 105.22 30.01 97.57 44.07
  Q 92.99 52.47 93.16 61.98
  Q 93.20 64.20 92.32 65.80
  Q 88.92 71.99 83.30 76.78
  A 3.98 3.97 74.8 0 0 81.98 79.09
  Q 80.96 84.91 87.84 86.88
  Q 89.65 87.40 89.83 89.27"
/>
<path stroke="#808080" vector-effect="non-scaling-stroke" d="
  M 162.07 114.94
  L 161.75 103.73
  A 0.80 0.78 -10.4 0 0 160.69 103.02
  L 116.09 118.31
  A 1.65 1.62 80.5 0 0 115.00 119.86
  L 115.00 128.13
  A 0.87 0.87 45.0 0 0 115.87 129.00
  Q 151.33 129.00 187.15 129.00
  Q 187.87 129.00 188.34 128.84
  Q 189.72 128.36 188.71 127.45
  Q 188.35 127.14 187.58 126.78
  Q 175.11 121.06 162.51 115.63
  A 0.78 0.71 -80.3 0 1 162.07 114.94"
/>
<path stroke="#808080" vector-effect="non-scaling-stroke" d="
  M 142.54 147.97
  A 4.30 4.30 0.0 0 0 138.24 143.67
  A 4.30 4.30 0.0 0 0 133.94 147.97
  A 4.30 4.30 0.0 0 0 138.24 152.27
  A 4.30 4.30 0.0 0 0 142.54 147.97"
/>
<path stroke="#808080" vector-effect="non-scaling-stroke" d="
  M 180.20 157.11
  Q 178.48 156.86 176.75 156.71
  Q 161.45 155.37 156.78 169.51
  Q 154.95 175.05 155.60 180.68
  Q 156.10 185.11 158.30 187.24
  Q 161.14 189.99 165.99 189.18
  Q 172.41 188.11 175.82 182.55
  Q 176.15 182.01 176.11 182.64
  L 175.72 188.47
  A 0.49 0.48 -88.3 0 0 176.20 188.99
  L 180.44 188.96
  A 0.56 0.54 -87.7 0 0 180.98 188.44
  Q 181.98 176.89 182.50 174.50
  Q 185.73 159.55 188.41 144.49
  A 0.50 0.42 -83.9 0 0 188.01 143.90
  L 183.72 143.85
  A 0.67 0.63 -84.6 0 0 183.09 144.40
  L 180.75 156.70
  A 0.51 0.48 -80.3 0 1 180.20 157.11"
/>
<path stroke="#808080" vector-effect="non-scaling-stroke" d="
  M 213.27 180.56
  L 214.21 188.00
  A 0.79 0.70 -86.6 0 0 214.72 188.65
  Q 217.23 189.38 219.83 188.91
  A 0.54 0.52 80.9 0 0 220.25 188.31
  L 215.13 147.94
  A 0.58 0.56 -3.4 0 0 214.56 147.45
  L 207.75 147.50
  A 0.86 0.80 12.1 0 0 207.02 147.93
  L 185.50 188.23
  A 0.45 0.42 -75.2 0 0 185.85 188.89
  L 190.95 188.79
  A 1.00 0.65 -70.5 0 0 191.66 188.24
  L 195.81 180.50
  A 0.85 0.85 -75.2 0 1 196.56 180.05
  L 212.68 180.05
  A 0.60 0.58 -3.2 0 1 213.27 180.56"
/>
<path stroke="#808080" vector-effect="non-scaling-stroke" d="
  M 242.60 152.80
  L 236.58 183.50
  A 0.63 0.62 5.5 0 1 235.96 184.00
  L 227.39 184.00
  A 0.71 0.59 -83.6 0 0 226.79 184.58
  L 226.04 188.42
  A 0.48 0.41 -83.2 0 0 226.42 189.00
  L 250.15 189.00
  A 0.87 0.85 5.7 0 0 251.00 188.32
  L 251.74 184.68
  A 0.44 0.42 6.7 0 0 251.32 184.17
  L 242.94 183.83
  A 0.43 0.43 6.9 0 1 242.54 183.32
  L 248.59 152.92
  A 0.66 0.59 -83.4 0 1 249.18 152.40
  L 256.91 152.28
  A 1.30 1.18 12.2 0 0 258.01 151.64
  Q 259.13 149.46 259.11 147.94
  A 0.55 0.51 -0.5 0 0 258.56 147.44
  L 234.81 147.56
  A 0.62 0.60 -84.1 0 0 234.22 148.06
  L 233.57 151.51
  A 0.65 0.63 5.6 0 0 234.20 152.26
  L 242.19 152.30
  A 0.42 0.42 5.7 0 1 242.60 152.80"
/>
<path stroke="#808080" vector-effect="non-scaling-stroke" d="
  M 13.13 181.18
  Q 12.49 184.47 11.65 188.18
  A 0.60 0.54 -83.7 0 0 12.18 188.91
  L 16.95 188.80
  A 0.77 0.55 -83.1 0 0 17.52 188.18
  L 21.07 170.92
  A 0.68 0.66 3.3 0 1 21.68 170.39
  Q 27.30 169.90 29.30 174.02
  Q 29.35 174.13 31.21 180.99
  Q 32.15 184.43 33.07 188.01
  A 1.14 0.97 81.5 0 0 34.06 188.87
  L 38.96 188.80
  A 0.48 0.39 80.0 0 0 39.30 188.20
  Q 37.64 182.17 36.02 176.13
  Q 35.19 173.01 32.89 169.47
  A 0.52 0.52 64.4 0 1 33.16 168.70
  Q 42.61 165.50 42.58 155.75
  Q 42.57 153.72 41.97 152.34
  Q 41.19 150.54 39.69 149.56
  Q 36.08 147.22 31.34 147.40
  Q 28.73 147.50 28.66 147.50
  Q 24.58 147.50 20.47 147.50
  A 0.64 0.63 -83.8 0 0 19.85 148.00
  Q 16.32 164.81 13.13 181.18"
/>
<path stroke="#808080" vector-effect="non-scaling-stroke" d="
  M 68.71 183.29
  Q 68.78 184.41 68.77 185.81
  Q 68.76 185.94 68.50 187.65
  Q 68.24 189.34 70.26 189.13
  Q 70.76 189.07 71.76 189.10
  Q 72.59 189.12 73.27 188.73
  A 1.09 0.92 80.8 0 0 73.74 187.95
  Q 75.32 172.57 78.77 157.41
  Q 79.06 156.13 77.86 156.65
  Q 75.03 157.89 71.80 157.26
  Q 54.69 153.97 49.44 169.94
  Q 47.32 176.37 48.61 182.26
  Q 49.44 186.09 51.84 187.85
  Q 54.66 189.92 58.76 189.30
  Q 64.56 188.42 68.11 183.12
  Q 68.66 182.30 68.71 183.29"
/>
<path stroke="#808080" vector-effect="non-scaling-stroke" d="
  M 92.86 163.18
  L 93.24 157.50
  A 0.59 0.59 -82.7 0 0 92.77 156.89
  Q 90.65 156.44 88.55 156.94
  A 0.69 0.68 86.1 0 0 88.02 157.56
  Q 87.26 167.49 85.26 177.25
  Q 82.88 188.90 80.49 200.92
  A 0.91 0.91 -84.5 0 0 81.38 202.00
  L 85.41 202.00
  A 0.65 0.63 -83.8 0 0 86.03 201.49
  L 88.52 189.02
  A 0.64 0.63 12.6 0 1 89.30 188.53
  Q 100.04 191.19 106.93 184.78
  Q 110.46 181.50 112.18 176.30
  Q 113.81 171.41 113.56 166.17
  Q 113.38 162.26 112.06 160.05
  Q 110.16 156.87 106.25 156.50
  Q 97.83 155.70 93.08 163.26
  Q 92.83 163.64 92.86 163.18"
/>
<path stroke="#808080" vector-effect="non-scaling-stroke" d="
  M 139.06 184.71
  Q 135.37 184.64 135.93 180.98
  Q 137.16 172.96 138.63 165.48
  Q 139.20 162.54 138.50 160.25
  Q 137.47 156.91 133.83 156.52
  Q 127.85 155.88 122.63 158.69
  A 1.01 0.76 -17.5 0 0 122.10 159.43
  L 122.07 163.07
  Q 122.06 164.11 122.96 163.50
  Q 125.46 161.83 128.75 161.25
  Q 133.90 160.33 133.03 165.50
  Q 131.93 172.01 130.73 178.50
  Q 129.80 183.52 130.63 185.64
  Q 132.22 189.70 138.25 189.25
  Q 143.33 188.87 146.75 186.94
  A 0.91 0.82 -15.9 0 0 147.22 186.19
  L 147.22 182.45
  Q 147.22 181.56 146.46 182.05
  Q 142.29 184.78 139.06 184.71"
/>
<path stroke="#808080" vector-effect="non-scaling-stroke" d="
  M 115.69 227.27
  Q 111.95 225.03 113.69 220.19
  Q 115.28 215.76 119.54 217.54
  A 1.85 1.18 40.8 0 0 120.49 217.68
  Q 122.25 217.33 121.23 216.11
  Q 120.77 215.56 119.94 215.38
  Q 114.61 214.25 112.31 218.00
  Q 110.50 220.96 111.40 224.85
  Q 112.93 231.53 121.45 229.11
  A 1.10 1.09 82.4 0 0 122.25 228.05
  L 122.25 222.98
  A 0.97 0.97 0.3 0 0 121.29 222.01
  Q 117.91 221.97 118.79 223.53
  A 1.05 0.61 -4.0 0 0 119.56 223.91
  Q 119.90 223.94 120.15 224.12
  Q 120.51 224.38 120.56 225.02
  Q 120.75 227.73 118.58 228.00
  Q 117.18 228.17 115.69 227.27"
/>
<path stroke="#808080" vector-effect="non-scaling-stroke" d="
  M 66.09 220.79
  Q 66.07 219.66 66.71 220.55
  L 72.76 229.01
  Q 74.25 231.10 74.25 228.56
  L 74.25 216.26
  A 0.77 0.66 -82.3 0 0 73.79 215.55
  Q 73.18 215.34 72.55 215.44
  A 0.64 0.59 85.8 0 0 72.05 216.07
  L 72.00 224.26
  Q 72.00 225.05 71.54 224.41
  L 65.74 216.24
  Q 63.99 213.77 64.00 216.79
  L 64.06 228.94
  A 0.65 0.60 -85.2 0 0 64.55 229.57
  Q 65.18 229.68 65.80 229.46
  A 0.77 0.70 80.5 0 0 66.26 228.74
  L 66.09 220.79"
/>
<path stroke="#808080" vector-effect="non-scaling-stroke" d="
  M 187.29 216.38
  A 1.15 1.15 0.0 0 0 186.14 215.23
  A 1.15 1.15 0.0 0 0 184.99 216.38
  A 1.15 1.15 0.0 0 0 186.14 217.53
  A 1.15 1.15 0.0 0 0 187.29 216.38"
/>
<path stroke="#808080" vector-effect="non-scaling-stroke" d="
  M 179.13 218.45
  Q 179.48 215.48 177.41 216.73
  A 0.96 0.72 78.7 0 0 177.04 217.50
  Q 177.03 218.85 175.74 219.50
  Q 174.64 220.06 175.84 220.35
  Q 177.25 220.69 177.02 221.94
  Q 176.75 223.45 176.75 223.60
  Q 176.78 226.77 177.25 227.75
  Q 178.55 230.46 181.57 229.58
  Q 182.91 229.19 182.12 228.33
  A 1.19 0.85 -18.0 0 0 181.26 228.06
  Q 178.64 228.24 178.80 225.49
  Q 178.94 223.28 179.04 221.06
  A 0.57 0.48 -86.8 0 1 179.55 220.51
  L 180.69 220.57
  A 0.73 0.49 7.7 0 0 181.38 220.23
  Q 181.95 218.58 179.56 218.86
  A 0.38 0.37 -0.7 0 1 179.13 218.45"
/>
<path stroke="#808080" vector-effect="non-scaling-stroke" d="
  M 100.61 218.44
  Q 100.85 215.44 98.89 216.93
  A 0.99 0.72 72.9 0 0 98.61 217.75
  Q 98.68 218.49 98.15 218.83
  Q 97.47 219.26 97.42 219.30
  Q 96.39 220.38 97.94 220.73
  A 0.67 0.62 5.5 0 1 98.46 221.32
  Q 98.59 224.08 98.50 225.25
  Q 98.12 230.34 102.80 229.81
  Q 103.33 229.75 103.59 229.46
  Q 103.97 229.02 103.72 228.48
  A 0.90 0.64 -10.2 0 0 102.94 228.11
  Q 101.80 228.14 100.94 227.51
  A 1.11 0.93 20.8 0 1 100.48 226.69
  L 100.48 221.31
  A 0.80 0.74 -10.7 0 1 101.01 220.60
  Q 101.59 220.40 102.21 220.53
  A 0.66 0.54 17.2 0 0 102.92 220.24
  Q 103.70 218.49 101.06 218.86
  A 0.40 0.40 -1.8 0 1 100.61 218.44"
/>
<path stroke="#808080" vector-effect="non-scaling-stroke" d="
  M 80.57 227.90
  Q 78.20 227.34 78.37 225.17
  A 0.58 0.58 -88.4 0 1 78.94 224.63
  L 85.02 224.54
  A 0.74 0.69 -0.0 0 0 85.75 223.86
  Q 85.78 221.19 84.21 219.89
  Q 82.79 218.70 80.57 218.94
  Q 77.73 219.23 76.56 222.06
  Q 74.60 226.79 79.06 229.44
  Q 81.38 230.81 84.27 228.97
  A 0.93 0.78 -20.8 0 0 84.70 228.19
  Q 84.61 227.26 83.56 227.56
  Q 81.57 228.14 80.57 227.90"
/>
<path stroke="#808080" vector-effect="non-scaling-stroke" d="
  M 92.02 221.53
  A 0.94 0.83 42.4 0 1 90.50 221.51
  L 89.05 219.41
  A 1.28 0.78 -5.9 0 0 88.19 219.00
  Q 85.98 218.78 87.66 220.59
  Q 89.07 222.12 89.83 224.03
  A 0.96 0.93 -39.0 0 1 89.72 224.91
  L 87.03 228.84
  A 0.43 0.41 -61.5 0 0 87.20 229.47
  Q 88.89 230.14 89.73 228.24
  Q 91.39 224.48 93.08 228.24
  Q 93.74 229.70 95.46 229.55
  Q 96.15 229.49 95.74 228.94
  L 92.56 224.65
  A 0.68 0.64 46.1 0 1 92.55 223.86
  L 95.39 220.09
  A 0.87 0.59 -47.4 0 0 95.52 219.22
  Q 95.20 218.75 94.41 219.23
  Q 92.64 220.31 92.02 221.53"
/>
<path stroke="#808080" vector-effect="non-scaling-stroke" d="
  M 129.55 228.17
  Q 126.98 227.71 126.72 225.18
  A 0.49 0.48 86.2 0 1 127.19 224.64
  L 133.32 224.53
  A 0.68 0.58 5.4 0 0 133.95 224.09
  Q 134.97 220.24 131.25 219.25
  Q 127.16 218.17 125.56 221.05
  Q 124.37 223.18 124.93 226.07
  Q 125.88 231.02 131.74 229.40
  Q 132.33 229.24 132.72 228.97
  Q 133.79 228.24 132.71 227.69
  A 1.28 0.97 -36.5 0 0 131.77 227.68
  Q 131.35 227.84 130.92 228.00
  Q 130.18 228.28 129.55 228.17"
/>
<path stroke="#808080" vector-effect="non-scaling-stroke" d="
  M 138.26 219.69
  L 136.69 219.21
  A 0.49 0.42 -82.3 0 0 136.15 219.69
  L 136.04 228.94
  A 0.74 0.72 -79.3 0 0 136.51 229.64
  Q 138.23 230.31 138.00 228.25
  Q 137.89 227.24 138.04 222.55
  A 1.41 1.25 70.3 0 1 138.39 221.68
  Q 140.25 219.70 142.11 221.68
  A 1.48 1.27 -71.6 0 1 142.47 222.56
  Q 142.63 224.96 142.72 227.36
  Q 142.74 227.77 142.63 228.63
  Q 142.40 230.39 144.02 229.45
  A 0.86 0.79 75.1 0 0 144.42 228.69
  Q 144.28 225.67 144.14 222.65
  Q 144.04 220.51 143.03 219.58
  Q 141.38 218.07 139.09 219.64
  A 1.10 0.68 28.5 0 1 138.26 219.69"
/>
<path stroke="#808080" vector-effect="non-scaling-stroke" d="
  M 148.79 224.92
  Q 151.81 224.07 154.95 224.60
  A 0.64 0.61 14.9 0 0 155.64 224.22
  Q 156.92 221.01 153.94 219.56
  Q 150.33 217.81 148.13 220.11
  Q 146.50 221.81 146.58 224.81
  Q 146.74 231.17 153.97 229.32
  A 1.40 1.32 8.8 0 0 154.74 228.79
  Q 155.87 227.14 153.69 227.69
  Q 149.59 228.71 148.46 225.54
  A 0.49 0.48 -17.5 0 1 148.79 224.92"
/>
<path stroke="#808080" vector-effect="non-scaling-stroke" d="
  M 160.15 219.73
  Q 159.64 218.60 158.50 219.08
  A 0.85 0.73 80.6 0 0 158.05 219.82
  Q 157.96 224.03 158.01 228.25
  Q 158.03 230.22 159.49 229.65
  A 0.75 0.67 79.7 0 0 159.92 228.94
  Q 159.83 225.92 160.32 222.97
  Q 160.52 221.79 161.18 221.28
  Q 162.05 220.62 163.21 220.82
  A 0.74 0.63 17.9 0 0 163.95 220.51
  Q 165.10 218.40 162.26 218.96
  Q 161.83 219.05 161.45 219.33
  Q 161.08 219.61 160.71 219.89
  A 0.38 0.36 59.4 0 1 160.15 219.73"
/>
<path stroke="#808080" vector-effect="non-scaling-stroke" d="
  M 171.01 222.57
  Q 169.35 222.82 167.81 223.40
  Q 166.01 224.09 165.46 225.47
  Q 164.61 227.63 166.99 229.23
  Q 168.96 230.57 170.75 229.11
  A 0.37 0.35 32.7 0 1 171.07 229.05
  Q 174.61 230.16 174.03 228.49
  Q 172.93 225.34 173.20 222.01
  A 1.71 1.29 -64.3 0 0 173.01 221.06
  Q 171.48 218.45 168.45 219.00
  Q 167.29 219.22 166.92 219.33
  Q 165.70 219.70 166.06 220.88
  A 0.72 0.72 -22.1 0 0 167.08 221.31
  Q 170.03 219.79 171.28 222.04
  A 0.37 0.36 -18.7 0 1 171.01 222.57"
/>
<path stroke="#808080" vector-effect="non-scaling-stroke" d="
  M 184.77 221.06
  Q 185.42 225.28 185.00 227.25
  Q 184.35 230.26 186.47 229.61
  A 0.72 0.68 81.8 0 0 186.95 228.93
  L 186.95 219.56
  A 0.53 0.52 -89.4 0 0 186.44 219.03
  L 184.75 218.99
  A 1.34 1.25 23.2 0 0 183.86 219.31
  Q 182.91 220.18 184.20 220.48
  A 0.75 0.71 2.1 0 1 184.77 221.06"
/>
<path stroke="#808080" vector-effect="non-scaling-stroke" d="
  M 193.8620 229.9896
  A 5.57 4.81 90.7 0 0 198.7396 224.4788
  A 5.57 4.81 90.7 0 0 193.9980 218.8504
  A 5.57 4.81 90.7 0 0 189.1204 224.3612
  A 5.57 4.81 90.7 0 0 193.8620 229.9896"
/>
<path stroke="#808080" vector-effect="non-scaling-stroke" d="
  M 202.05 219.52
  Q 201.27 218.40 200.77 219.39
  Q 200.56 219.82 200.62 220.52
  Q 200.98 224.61 200.61 228.70
  A 0.80 0.73 -74.3 0 0 200.99 229.46
  Q 201.81 229.91 202.19 229.40
  Q 202.46 229.05 202.36 228.19
  Q 201.87 223.92 202.31 222.81
  Q 203.59 219.63 206.27 221.28
  A 1.15 1.06 -80.0 0 1 206.77 222.06
  Q 207.37 225.76 207.00 227.50
  Q 206.42 230.25 208.46 229.61
  A 0.77 0.70 84.3 0 0 208.97 228.93
  Q 209.39 222.83 208.75 221.50
  Q 206.79 217.43 202.75 219.68
  A 0.54 0.53 57.6 0 1 202.05 219.52"
/>
<path stroke="#808080" vector-effect="non-scaling-stroke" d="
  M 102.90 93.75
  Q 103.63 95.47 102.19 95.94
  Q 98.40 97.15 94.93 98.67
  A 0.66 0.65 59.8 0 0 94.67 99.66
  Q 95.83 101.22 96.23 102.75
  Q 96.52 103.88 95.97 106.08
  Q 93.56 115.71 101.36 116.09
  Q 104.34 116.23 110.31 114.21
  Q 130.69 107.33 151.06 100.41
  Q 151.17 100.38 156.47 98.67
  Q 162.15 96.83 165.44 94.94
  Q 179.22 87.00 182.22 72.30
  Q 183.58 65.60 182.33 59.20
  Q 181.02 52.51 177.19 46.81
  Q 164.60 28.10 141.69 25.75
  Q 131.72 24.72 122.56 27.56
  Q 104.29 33.23 97.98 51.49
  Q 96.31 56.34 96.75 60.00
  Q 97.17 63.44 96.19 65.44
  Q 92.36 73.28 85.34 79.48
  Q 83.75 80.89 85.45 82.17
  Q 87.08 83.39 89.77 84.32
  Q 95.50 86.29 92.58 91.12
  A 0.89 0.88 -71.5 0 0 93.24 92.47
  L 102.18 93.28
  A 0.91 0.75 -6.3 0 1 102.90 93.75"
/>
<path stroke="#808080" vector-effect="non-scaling-stroke" d="
  M 172.48 59.18
  A 25.31 25.31 0.0 0 0 147.17 33.87
  A 25.31 25.31 0.0 0 0 121.86 59.18
  A 25.31 25.31 0.0 0 0 147.17 84.49
  A 25.31 25.31 0.0 0 0 172.48 59.18"
/>
<path stroke="#808080" vector-effect="non-scaling-stroke" d="
  M 107.52 67.44
  A 2.11 2.11 -7.0 0 1 105.44 65.82
  Q 104.71 62.77 102.45 64.49
  A 0.99 0.98 70.2 0 0 102.07 65.31
  Q 102.19 68.98 105.25 70.25
  Q 109.97 72.21 112.48 68.15
  Q 113.18 67.01 113.35 65.86
  Q 113.71 63.23 110.79 64.15
  A 0.82 0.71 86.1 0 0 110.28 64.82
  Q 109.99 67.40 107.52 67.44"
/>
<path stroke="#808080" vector-effect="non-scaling-stroke" d="
  M 160.31 41.44
  Q 146.79 32.36 133.23 41.94
  A 0.85 0.85 -40.4 0 0 133.12 43.24
  L 135.11 45.23
  A 1.02 1.02 52.2 0 0 136.35 45.39
  Q 147.41 38.79 156.85 45.46
  A 0.92 0.84 48.9 0 0 157.72 45.56
  Q 159.05 44.94 159.94 43.69
  A 2.03 0.97 -55.1 0 0 160.31 41.44"
/>
<path stroke="#808080" vector-effect="non-scaling-stroke" d="
  M 162.81 61.91
  Q 162.16 65.64 159.67 68.74
  A 0.83 0.83 42.0 0 0 159.73 69.85
  L 163.37 73.50
  A 0.60 0.60 -49.9 0 0 164.28 73.42
  Q 173.85 59.70 164.76 45.53
  A 1.20 1.09 52.0 0 0 163.02 45.23
  L 160.18 47.96
  A 0.69 0.62 52.7 0 0 160.11 48.78
  Q 163.98 55.10 162.81 61.91"
/>
<path stroke="#808080" vector-effect="non-scaling-stroke" d="
  M 132.81 47.44
  Q 131.81 46.19 130.49 45.33
  A 0.55 0.53 -54.9 0 0 129.76 45.47
  Q 120.53 58.32 129.35 72.40
  A 1.26 1.23 49.6 0 0 131.34 72.58
  L 133.68 69.89
  A 0.66 0.62 48.4 0 0 133.70 69.09
  Q 126.43 59.05 133.22 48.66
  A 1.02 0.55 -50.4 0 0 133.40 47.77
  Q 133.23 47.50 132.81 47.44"
/>
<path stroke="#808080" vector-effect="non-scaling-stroke" d="
  M 154.33 47.70
  Q 147.04 42.83 138.97 47.56
  A 0.83 0.76 -36.9 0 0 138.74 48.80
  L 141.10 51.17
  A 0.96 0.91 -35.4 0 0 142.17 51.32
  Q 146.65 49.09 150.31 50.94
  Q 152.62 52.11 154.54 48.58
  A 0.67 0.66 -58.6 0 0 154.33 47.70"
/>
<path stroke="#808080" vector-effect="non-scaling-stroke" d="
  M 135.37 51.12
  Q 130.85 58.95 135.71 66.41
  A 0.72 0.71 56.2 0 0 136.71 66.61
  Q 138.68 65.25 139.32 63.96
  A 1.12 0.85 48.9 0 0 139.26 63.07
  Q 137.37 59.43 138.86 54.25
  A 1.05 1.03 -60.1 0 0 138.59 53.22
  L 136.36 50.99
  A 0.63 0.63 37.5 0 0 135.37 51.12"
/>
<path stroke="#808080" vector-effect="non-scaling-stroke" d="
  M 154.37 54.66
  Q 155.79 58.60 153.90 63.14
  A 1.01 1.00 34.0 0 0 154.12 64.24
  L 156.59 66.71
  A 0.49 0.49 -51.0 0 0 157.35 66.63
  Q 161.93 59.61 158.14 51.70
  A 0.87 0.81 55.0 0 0 156.79 51.41
  L 154.48 53.78
  A 0.95 0.69 61.2 0 0 154.37 54.66"
/>
<path stroke="#808080" vector-effect="non-scaling-stroke" d="
  M 151.89 58.60
  A 5.29 5.29 0.0 0 0 146.60 53.31
  A 5.29 5.29 0.0 0 0 141.31 58.60
  A 5.29 5.29 0.0 0 0 146.60 63.89
  A 5.29 5.29 0.0 0 0 151.89 58.60"
/>
<path stroke="#808080" vector-effect="non-scaling-stroke" d="
  M 143.50 66.30
  Q 141.83 65.81 140.64 67.28
  Q 140.33 67.67 139.56 68.42
  Q 138.51 69.45 140.19 70.31
  Q 147.30 73.95 154.15 69.76
  A 0.57 0.57 52.2 0 0 154.26 68.88
  L 152.19 66.82
  A 1.58 1.57 61.2 0 0 150.71 66.39
  Q 148.20 66.97 146.29 67.01
  Q 145.94 67.01 143.50 66.30"
/>
<path stroke="#808080" vector-effect="non-scaling-stroke" d="
  M 143.31 74.94
  Q 140.40 74.42 136.98 72.21
  A 0.80 0.75 44.6 0 0 136.14 72.19
  Q 134.11 73.47 132.98 75.56
  A 0.58 0.57 32.5 0 0 133.15 76.30
  Q 146.66 86.08 160.92 76.64
  A 0.63 0.61 -39.3 0 0 161.03 75.68
  L 157.37 72.08
  A 0.66 0.61 -39.1 0 0 156.58 72.03
  Q 150.31 76.18 143.31 74.94"
/>
<path stroke="#808080" vector-effect="non-scaling-stroke" d="
  M 166.43 120.86
  L 160.15 118.08
  A 1.08 1.05 -48.2 0 0 159.17 118.15
  Q 157.50 119.16 155.79 118.80
  Q 154.07 118.44 154.60 117.02
  A 1.26 1.12 -88.6 0 1 155.25 116.32
  L 158.50 114.99
  A 0.80 0.69 -12.4 0 0 159.00 114.32
  L 158.95 107.32
  A 0.37 0.36 -9.7 0 0 158.46 106.98
  L 118.66 120.77
  A 0.83 0.64 -12.6 0 0 118.10 121.44
  L 118.15 125.51
  A 0.47 0.40 -8.8 0 0 118.74 125.87
  Q 126.40 123.89 134.02 121.77
  Q 135.28 121.42 136.02 121.57
  Q 137.64 121.90 137.11 123.71
  A 0.98 0.86 -86.7 0 1 136.47 124.36
  L 129.06 126.21
  A 0.83 0.31 -7.2 0 0 128.55 126.48
  Q 128.36 126.81 129.00 126.81
  Q 147.72 126.80 166.44 126.69
  A 0.57 0.51 0.0 0 0 167.01 126.18
  L 166.98 121.58
  A 0.91 0.74 13.2 0 0 166.43 120.86"
/>
<path stroke="#808080" vector-effect="non-scaling-stroke" d="
  M 178.82 126.19
  L 170.73 122.91
  A 0.45 0.37 12.5 0 0 170.11 123.22
  L 170.20 126.24
  A 0.61 0.53 -1.0 0 0 170.81 126.75
  L 178.70 126.75
  Q 180.20 126.75 178.82 126.19"
/>
<path stroke="#808080" vector-effect="non-scaling-stroke" d="
  M 151.43 122.44
  A 0.82 0.82 14.9 0 1 150.72 121.22
  Q 151.76 119.38 150.94 117.63
  Q 149.53 114.62 146.68 114.38
  Q 144.71 114.21 142.98 115.31
  Q 141.04 116.54 140.75 118.75
  Q 140.37 121.70 142.50 123.39
  Q 143.88 124.49 146.79 124.60
  Q 153.95 124.89 161.12 124.76
  Q 161.24 124.76 162.37 124.80
  Q 164.72 124.88 163.91 123.00
  A 0.82 0.72 -10.2 0 0 163.18 122.56
  L 151.43 122.44"
/>
<path stroke="#808080" vector-effect="non-scaling-stroke" d="
  M 148.83 119.52
  A 2.81 2.81 0.0 0 0 146.02 116.71
  A 2.81 2.81 0.0 0 0 143.21 119.52
  A 2.81 2.81 0.0 0 0 146.02 122.33
  A 2.81 2.81 0.0 0 0 148.83 119.52"
/>
<path stroke="#808080" vector-effect="non-scaling-stroke" d="
  M 178.34 162.11
  Q 168.47 158.69 163.44 167.44
  Q 160.38 172.76 161.19 179.75
  Q 161.50 182.33 162.55 183.46
  Q 164.19 185.20 167.08 184.12
  Q 170.57 182.82 172.77 179.81
  Q 178.36 172.19 179.15 162.75
  A 0.50 0.48 9.4 0 0 178.76 162.23
  Q 178.55 162.18 178.34 162.11"
/>
<path stroke="#808080" vector-effect="non-scaling-stroke" d="
  M 199.41 174.54
  L 212.06 174.60
  A 0.47 0.45 87.1 0 0 212.51 174.08
  L 210.27 153.94
  Q 210.13 152.70 209.57 153.80
  L 199.13 174.05
  A 0.34 0.32 -75.9 0 0 199.41 174.54"
/>
<path stroke="#808080" vector-effect="non-scaling-stroke" d="
  M 36.48 158.42
  Q 38.06 152.39 29.50 152.24
  Q 27.28 152.21 25.06 152.29
  A 0.64 0.63 -85.3 0 0 24.47 152.80
  L 22.10 165.00
  A 0.53 0.50 -78.6 0 0 22.48 165.61
  Q 27.98 166.73 32.20 164.15
  Q 35.52 162.11 36.48 158.42"
/>
<path stroke="#808080" vector-effect="non-scaling-stroke" d="
  M 71.35 162.28
  Q 60.38 158.63 55.82 168.53
  Q 53.15 174.32 54.13 180.44
  Q 54.50 182.73 55.63 183.69
  Q 57.21 185.03 59.68 184.16
  Q 63.44 182.83 65.80 179.58
  Q 71.02 172.40 71.79 162.96
  A 0.66 0.65 12.4 0 0 71.35 162.28"
/>
<path stroke="#808080" vector-effect="non-scaling-stroke" d="
  M 105.43 161.77
  Q 103.41 160.87 101.14 162.20
  Q 93.18 166.87 91.12 175.97
  Q 90.35 179.34 89.82 182.76
  A 0.65 0.64 -74.9 0 0 90.21 183.45
  Q 96.71 186.15 101.45 182.94
  Q 105.18 180.40 106.88 174.88
  Q 108.37 170.06 107.68 164.79
  Q 107.41 162.65 105.43 161.77"
/>
<path stroke="#808080" vector-effect="non-scaling-stroke" d="
  M 82.56 221.19
  Q 80.16 219.99 78.56 222.38
  Q 78.15 223.00 78.88 222.99
  L 82.94 222.96
  A 0.60 0.52 0.5 0 0 83.54 222.45
  Q 83.56 221.68 82.56 221.19"
/>
<path stroke="#808080" vector-effect="non-scaling-stroke" d="
  M 130.81 221.19
  Q 128.51 219.98 127.05 222.42
  Q 126.71 222.99 127.36 222.98
  L 131.44 222.96
  A 0.49 0.44 -4.8 0 0 131.93 222.44
  Q 131.78 221.69 130.81 221.19"
/>
<path stroke="#808080" vector-effect="non-scaling-stroke" d="
  M 151.56 220.81
  Q 150.10 220.67 148.92 222.09
  Q 148.44 222.67 149.19 222.79
  Q 154.11 223.57 153.62 222.22
  Q 153.17 220.96 151.56 220.81"
/>
<path stroke="#808080" vector-effect="non-scaling-stroke" d="
  M 171.4526 224.9951
  A 2.41 1.59 -32.5 0 0 168.5657 224.9490
  A 2.41 1.59 -32.5 0 0 167.3874 227.5849
  A 2.41 1.59 -32.5 0 0 170.2743 227.6310
  A 2.41 1.59 -32.5 0 0 171.4526 224.9951"
/>
<path stroke="#808080" vector-effect="non-scaling-stroke" d="
  M 193.6656 228.2108
  A 3.79 2.79 94.0 0 0 196.7132 224.6246
  A 3.79 2.79 94.0 0 0 194.1944 220.6492
  A 3.79 2.79 94.0 0 0 191.1468 224.2354
  A 3.79 2.79 94.0 0 0 193.6656 228.2108"
/>
</g>
<path fill="#ffffff" d="
  M 0.00 0.00
  L 271.00 0.00
  L 271.00 271.00
  L 0.00 271.00
  L 0.00 0.00
  Z
  M 89.83 89.27
  Q 89.90 90.00 88.79 91.60
  A 1.20 1.01 -37.2 0 0 88.59 92.48
  Q 89.21 95.24 92.47 95.79
  Q 93.57 95.97 92.57 96.46
  Q 89.78 97.86 90.85 100.48
  Q 91.01 100.86 91.48 101.23
  Q 93.80 103.02 92.56 106.56
  Q 90.82 111.56 93.45 115.33
  Q 95.73 118.59 100.22 119.32
  Q 104.24 119.97 108.25 118.49
  Q 110.33 117.73 110.41 117.70
  Q 129.26 111.46 148.04 105.01
  Q 164.05 99.52 166.77 98.05
  Q 176.27 92.91 181.48 83.47
  Q 186.53 74.30 186.30 64.36
  Q 186.06 54.00 179.92 44.82
  Q 170.01 30.03 153.56 24.73
  Q 148.94 23.24 142.26 23.01
  Q 136.51 22.81 130.75 22.77
  Q 125.71 22.73 120.56 24.56
  Q 105.22 30.01 97.57 44.07
  Q 92.99 52.47 93.16 61.98
  Q 93.20 64.20 92.32 65.80
  Q 88.92 71.99 83.30 76.78
  A 3.98 3.97 74.8 0 0 81.98 79.09
  Q 80.96 84.91 87.84 86.88
  Q 89.65 87.40 89.83 89.27
  Z
  M 162.07 114.94
  L 161.75 103.73
  A 0.80 0.78 -10.4 0 0 160.69 103.02
  L 116.09 118.31
  A 1.65 1.62 80.5 0 0 115.00 119.86
  L 115.00 128.13
  A 0.87 0.87 45.0 0 0 115.87 129.00
  Q 151.33 129.00 187.15 129.00
  Q 187.87 129.00 188.34 128.84
  Q 189.72 128.36 188.71 127.45
  Q 188.35 127.14 187.58 126.78
  Q 175.11 121.06 162.51 115.63
  A 0.78 0.71 -80.3 0 1 162.07 114.94
  Z
  M 142.54 147.97
  A 4.30 4.30 0.0 0 0 138.24 143.67
  A 4.30 4.30 0.0 0 0 133.94 147.97
  A 4.30 4.30 0.0 0 0 138.24 152.27
  A 4.30 4.30 0.0 0 0 142.54 147.97
  Z
  M 180.20 157.11
  Q 178.48 156.86 176.75 156.71
  Q 161.45 155.37 156.78 169.51
  Q 154.95 175.05 155.60 180.68
  Q 156.10 185.11 158.30 187.24
  Q 161.14 189.99 165.99 189.18
  Q 172.41 188.11 175.82 182.55
  Q 176.15 182.01 176.11 182.64
  L 175.72 188.47
  A 0.49 0.48 -88.3 0 0 176.20 188.99
  L 180.44 188.96
  A 0.56 0.54 -87.7 0 0 180.98 188.44
  Q 181.98 176.89 182.50 174.50
  Q 185.73 159.55 188.41 144.49
  A 0.50 0.42 -83.9 0 0 188.01 143.90
  L 183.72 143.85
  A 0.67 0.63 -84.6 0 0 183.09 144.40
  L 180.75 156.70
  A 0.51 0.48 -80.3 0 1 180.20 157.11
  Z
  M 213.27 180.56
  L 214.21 188.00
  A 0.79 0.70 -86.6 0 0 214.72 188.65
  Q 217.23 189.38 219.83 188.91
  A 0.54 0.52 80.9 0 0 220.25 188.31
  L 215.13 147.94
  A 0.58 0.56 -3.4 0 0 214.56 147.45
  L 207.75 147.50
  A 0.86 0.80 12.1 0 0 207.02 147.93
  L 185.50 188.23
  A 0.45 0.42 -75.2 0 0 185.85 188.89
  L 190.95 188.79
  A 1.00 0.65 -70.5 0 0 191.66 188.24
  L 195.81 180.50
  A 0.85 0.85 -75.2 0 1 196.56 180.05
  L 212.68 180.05
  A 0.60 0.58 -3.2 0 1 213.27 180.56
  Z
  M 242.60 152.80
  L 236.58 183.50
  A 0.63 0.62 5.5 0 1 235.96 184.00
  L 227.39 184.00
  A 0.71 0.59 -83.6 0 0 226.79 184.58
  L 226.04 188.42
  A 0.48 0.41 -83.2 0 0 226.42 189.00
  L 250.15 189.00
  A 0.87 0.85 5.7 0 0 251.00 188.32
  L 251.74 184.68
  A 0.44 0.42 6.7 0 0 251.32 184.17
  L 242.94 183.83
  A 0.43 0.43 6.9 0 1 242.54 183.32
  L 248.59 152.92
  A 0.66 0.59 -83.4 0 1 249.18 152.40
  L 256.91 152.28
  A 1.30 1.18 12.2 0 0 258.01 151.64
  Q 259.13 149.46 259.11 147.94
  A 0.55 0.51 -0.5 0 0 258.56 147.44
  L 234.81 147.56
  A 0.62 0.60 -84.1 0 0 234.22 148.06
  L 233.57 151.51
  A 0.65 0.63 5.6 0 0 234.20 152.26
  L 242.19 152.30
  A 0.42 0.42 5.7 0 1 242.60 152.80
  Z
  M 13.13 181.18
  Q 12.49 184.47 11.65 188.18
  A 0.60 0.54 -83.7 0 0 12.18 188.91
  L 16.95 188.80
  A 0.77 0.55 -83.1 0 0 17.52 188.18
  L 21.07 170.92
  A 0.68 0.66 3.3 0 1 21.68 170.39
  Q 27.30 169.90 29.30 174.02
  Q 29.35 174.13 31.21 180.99
  Q 32.15 184.43 33.07 188.01
  A 1.14 0.97 81.5 0 0 34.06 188.87
  L 38.96 188.80
  A 0.48 0.39 80.0 0 0 39.30 188.20
  Q 37.64 182.17 36.02 176.13
  Q 35.19 173.01 32.89 169.47
  A 0.52 0.52 64.4 0 1 33.16 168.70
  Q 42.61 165.50 42.58 155.75
  Q 42.57 153.72 41.97 152.34
  Q 41.19 150.54 39.69 149.56
  Q 36.08 147.22 31.34 147.40
  Q 28.73 147.50 28.66 147.50
  Q 24.58 147.50 20.47 147.50
  A 0.64 0.63 -83.8 0 0 19.85 148.00
  Q 16.32 164.81 13.13 181.18
  Z
  M 68.71 183.29
  Q 68.78 184.41 68.77 185.81
  Q 68.76 185.94 68.50 187.65
  Q 68.24 189.34 70.26 189.13
  Q 70.76 189.07 71.76 189.10
  Q 72.59 189.12 73.27 188.73
  A 1.09 0.92 80.8 0 0 73.74 187.95
  Q 75.32 172.57 78.77 157.41
  Q 79.06 156.13 77.86 156.65
  Q 75.03 157.89 71.80 157.26
  Q 54.69 153.97 49.44 169.94
  Q 47.32 176.37 48.61 182.26
  Q 49.44 186.09 51.84 187.85
  Q 54.66 189.92 58.76 189.30
  Q 64.56 188.42 68.11 183.12
  Q 68.66 182.30 68.71 183.29
  Z
  M 92.86 163.18
  L 93.24 157.50
  A 0.59 0.59 -82.7 0 0 92.77 156.89
  Q 90.65 156.44 88.55 156.94
  A 0.69 0.68 86.1 0 0 88.02 157.56
  Q 87.26 167.49 85.26 177.25
  Q 82.88 188.90 80.49 200.92
  A 0.91 0.91 -84.5 0 0 81.38 202.00
  L 85.41 202.00
  A 0.65 0.63 -83.8 0 0 86.03 201.49
  L 88.52 189.02
  A 0.64 0.63 12.6 0 1 89.30 188.53
  Q 100.04 191.19 106.93 184.78
  Q 110.46 181.50 112.18 176.30
  Q 113.81 171.41 113.56 166.17
  Q 113.38 162.26 112.06 160.05
  Q 110.16 156.87 106.25 156.50
  Q 97.83 155.70 93.08 163.26
  Q 92.83 163.64 92.86 163.18
  Z
  M 139.06 184.71
  Q 135.37 184.64 135.93 180.98
  Q 137.16 172.96 138.63 165.48
  Q 139.20 162.54 138.50 160.25
  Q 137.47 156.91 133.83 156.52
  Q 127.85 155.88 122.63 158.69
  A 1.01 0.76 -17.5 0 0 122.10 159.43
  L 122.07 163.07
  Q 122.06 164.11 122.96 163.50
  Q 125.46 161.83 128.75 161.25
  Q 133.90 160.33 133.03 165.50
  Q 131.93 172.01 130.73 178.50
  Q 129.80 183.52 130.63 185.64
  Q 132.22 189.70 138.25 189.25
  Q 143.33 188.87 146.75 186.94
  A 0.91 0.82 -15.9 0 0 147.22 186.19
  L 147.22 182.45
  Q 147.22 181.56 146.46 182.05
  Q 142.29 184.78 139.06 184.71
  Z
  M 115.69 227.27
  Q 111.95 225.03 113.69 220.19
  Q 115.28 215.76 119.54 217.54
  A 1.85 1.18 40.8 0 0 120.49 217.68
  Q 122.25 217.33 121.23 216.11
  Q 120.77 215.56 119.94 215.38
  Q 114.61 214.25 112.31 218.00
  Q 110.50 220.96 111.40 224.85
  Q 112.93 231.53 121.45 229.11
  A 1.10 1.09 82.4 0 0 122.25 228.05
  L 122.25 222.98
  A 0.97 0.97 0.3 0 0 121.29 222.01
  Q 117.91 221.97 118.79 223.53
  A 1.05 0.61 -4.0 0 0 119.56 223.91
  Q 119.90 223.94 120.15 224.12
  Q 120.51 224.38 120.56 225.02
  Q 120.75 227.73 118.58 228.00
  Q 117.18 228.17 115.69 227.27
  Z
  M 66.09 220.79
  Q 66.07 219.66 66.71 220.55
  L 72.76 229.01
  Q 74.25 231.10 74.25 228.56
  L 74.25 216.26
  A 0.77 0.66 -82.3 0 0 73.79 215.55
  Q 73.18 215.34 72.55 215.44
  A 0.64 0.59 85.8 0 0 72.05 216.07
  L 72.00 224.26
  Q 72.00 225.05 71.54 224.41
  L 65.74 216.24
  Q 63.99 213.77 64.00 216.79
  L 64.06 228.94
  A 0.65 0.60 -85.2 0 0 64.55 229.57
  Q 65.18 229.68 65.80 229.46
  A 0.77 0.70 80.5 0 0 66.26 228.74
  L 66.09 220.79
  Z
  M 187.29 216.38
  A 1.15 1.15 0.0 0 0 186.14 215.23
  A 1.15 1.15 0.0 0 0 184.99 216.38
  A 1.15 1.15 0.0 0 0 186.14 217.53
  A 1.15 1.15 0.0 0 0 187.29 216.38
  Z
  M 179.13 218.45
  Q 179.48 215.48 177.41 216.73
  A 0.96 0.72 78.7 0 0 177.04 217.50
  Q 177.03 218.85 175.74 219.50
  Q 174.64 220.06 175.84 220.35
  Q 177.25 220.69 177.02 221.94
  Q 176.75 223.45 176.75 223.60
  Q 176.78 226.77 177.25 227.75
  Q 178.55 230.46 181.57 229.58
  Q 182.91 229.19 182.12 228.33
  A 1.19 0.85 -18.0 0 0 181.26 228.06
  Q 178.64 228.24 178.80 225.49
  Q 178.94 223.28 179.04 221.06
  A 0.57 0.48 -86.8 0 1 179.55 220.51
  L 180.69 220.57
  A 0.73 0.49 7.7 0 0 181.38 220.23
  Q 181.95 218.58 179.56 218.86
  A 0.38 0.37 -0.7 0 1 179.13 218.45
  Z
  M 100.61 218.44
  Q 100.85 215.44 98.89 216.93
  A 0.99 0.72 72.9 0 0 98.61 217.75
  Q 98.68 218.49 98.15 218.83
  Q 97.47 219.26 97.42 219.30
  Q 96.39 220.38 97.94 220.73
  A 0.67 0.62 5.5 0 1 98.46 221.32
  Q 98.59 224.08 98.50 225.25
  Q 98.12 230.34 102.80 229.81
  Q 103.33 229.75 103.59 229.46
  Q 103.97 229.02 103.72 228.48
  A 0.90 0.64 -10.2 0 0 102.94 228.11
  Q 101.80 228.14 100.94 227.51
  A 1.11 0.93 20.8 0 1 100.48 226.69
  L 100.48 221.31
  A 0.80 0.74 -10.7 0 1 101.01 220.60
  Q 101.59 220.40 102.21 220.53
  A 0.66 0.54 17.2 0 0 102.92 220.24
  Q 103.70 218.49 101.06 218.86
  A 0.40 0.40 -1.8 0 1 100.61 218.44
  Z
  M 80.57 227.90
  Q 78.20 227.34 78.37 225.17
  A 0.58 0.58 -88.4 0 1 78.94 224.63
  L 85.02 224.54
  A 0.74 0.69 -0.0 0 0 85.75 223.86
  Q 85.78 221.19 84.21 219.89
  Q 82.79 218.70 80.57 218.94
  Q 77.73 219.23 76.56 222.06
  Q 74.60 226.79 79.06 229.44
  Q 81.38 230.81 84.27 228.97
  A 0.93 0.78 -20.8 0 0 84.70 228.19
  Q 84.61 227.26 83.56 227.56
  Q 81.57 228.14 80.57 227.90
  Z
  M 92.02 221.53
  A 0.94 0.83 42.4 0 1 90.50 221.51
  L 89.05 219.41
  A 1.28 0.78 -5.9 0 0 88.19 219.00
  Q 85.98 218.78 87.66 220.59
  Q 89.07 222.12 89.83 224.03
  A 0.96 0.93 -39.0 0 1 89.72 224.91
  L 87.03 228.84
  A 0.43 0.41 -61.5 0 0 87.20 229.47
  Q 88.89 230.14 89.73 228.24
  Q 91.39 224.48 93.08 228.24
  Q 93.74 229.70 95.46 229.55
  Q 96.15 229.49 95.74 228.94
  L 92.56 224.65
  A 0.68 0.64 46.1 0 1 92.55 223.86
  L 95.39 220.09
  A 0.87 0.59 -47.4 0 0 95.52 219.22
  Q 95.20 218.75 94.41 219.23
  Q 92.64 220.31 92.02 221.53
  Z
  M 129.55 228.17
  Q 126.98 227.71 126.72 225.18
  A 0.49 0.48 86.2 0 1 127.19 224.64
  L 133.32 224.53
  A 0.68 0.58 5.4 0 0 133.95 224.09
  Q 134.97 220.24 131.25 219.25
  Q 127.16 218.17 125.56 221.05
  Q 124.37 223.18 124.93 226.07
  Q 125.88 231.02 131.74 229.40
  Q 132.33 229.24 132.72 228.97
  Q 133.79 228.24 132.71 227.69
  A 1.28 0.97 -36.5 0 0 131.77 227.68
  Q 131.35 227.84 130.92 228.00
  Q 130.18 228.28 129.55 228.17
  Z
  M 138.26 219.69
  L 136.69 219.21
  A 0.49 0.42 -82.3 0 0 136.15 219.69
  L 136.04 228.94
  A 0.74 0.72 -79.3 0 0 136.51 229.64
  Q 138.23 230.31 138.00 228.25
  Q 137.89 227.24 138.04 222.55
  A 1.41 1.25 70.3 0 1 138.39 221.68
  Q 140.25 219.70 142.11 221.68
  A 1.48 1.27 -71.6 0 1 142.47 222.56
  Q 142.63 224.96 142.72 227.36
  Q 142.74 227.77 142.63 228.63
  Q 142.40 230.39 144.02 229.45
  A 0.86 0.79 75.1 0 0 144.42 228.69
  Q 144.28 225.67 144.14 222.65
  Q 144.04 220.51 143.03 219.58
  Q 141.38 218.07 139.09 219.64
  A 1.10 0.68 28.5 0 1 138.26 219.69
  Z
  M 148.79 224.92
  Q 151.81 224.07 154.95 224.60
  A 0.64 0.61 14.9 0 0 155.64 224.22
  Q 156.92 221.01 153.94 219.56
  Q 150.33 217.81 148.13 220.11
  Q 146.50 221.81 146.58 224.81
  Q 146.74 231.17 153.97 229.32
  A 1.40 1.32 8.8 0 0 154.74 228.79
  Q 155.87 227.14 153.69 227.69
  Q 149.59 228.71 148.46 225.54
  A 0.49 0.48 -17.5 0 1 148.79 224.92
  Z
  M 160.15 219.73
  Q 159.64 218.60 158.50 219.08
  A 0.85 0.73 80.6 0 0 158.05 219.82
  Q 157.96 224.03 158.01 228.25
  Q 158.03 230.22 159.49 229.65
  A 0.75 0.67 79.7 0 0 159.92 228.94
  Q 159.83 225.92 160.32 222.97
  Q 160.52 221.79 161.18 221.28
  Q 162.05 220.62 163.21 220.82
  A 0.74 0.63 17.9 0 0 163.95 220.51
  Q 165.10 218.40 162.26 218.96
  Q 161.83 219.05 161.45 219.33
  Q 161.08 219.61 160.71 219.89
  A 0.38 0.36 59.4 0 1 160.15 219.73
  Z
  M 171.01 222.57
  Q 169.35 222.82 167.81 223.40
  Q 166.01 224.09 165.46 225.47
  Q 164.61 227.63 166.99 229.23
  Q 168.96 230.57 170.75 229.11
  A 0.37 0.35 32.7 0 1 171.07 229.05
  Q 174.61 230.16 174.03 228.49
  Q 172.93 225.34 173.20 222.01
  A 1.71 1.29 -64.3 0 0 173.01 221.06
  Q 171.48 218.45 168.45 219.00
  Q 167.29 219.22 166.92 219.33
  Q 165.70 219.70 166.06 220.88
  A 0.72 0.72 -22.1 0 0 167.08 221.31
  Q 170.03 219.79 171.28 222.04
  A 0.37 0.36 -18.7 0 1 171.01 222.57
  Z
  M 184.77 221.06
  Q 185.42 225.28 185.00 227.25
  Q 184.35 230.26 186.47 229.61
  A 0.72 0.68 81.8 0 0 186.95 228.93
  L 186.95 219.56
  A 0.53 0.52 -89.4 0 0 186.44 219.03
  L 184.75 218.99
  A 1.34 1.25 23.2 0 0 183.86 219.31
  Q 182.91 220.18 184.20 220.48
  A 0.75 0.71 2.1 0 1 184.77 221.06
  Z
  M 193.8620 229.9896
  A 5.57 4.81 90.7 0 0 198.7396 224.4788
  A 5.57 4.81 90.7 0 0 193.9980 218.8504
  A 5.57 4.81 90.7 0 0 189.1204 224.3612
  A 5.57 4.81 90.7 0 0 193.8620 229.9896
  Z
  M 202.05 219.52
  Q 201.27 218.40 200.77 219.39
  Q 200.56 219.82 200.62 220.52
  Q 200.98 224.61 200.61 228.70
  A 0.80 0.73 -74.3 0 0 200.99 229.46
  Q 201.81 229.91 202.19 229.40
  Q 202.46 229.05 202.36 228.19
  Q 201.87 223.92 202.31 222.81
  Q 203.59 219.63 206.27 221.28
  A 1.15 1.06 -80.0 0 1 206.77 222.06
  Q 207.37 225.76 207.00 227.50
  Q 206.42 230.25 208.46 229.61
  A 0.77 0.70 84.3 0 0 208.97 228.93
  Q 209.39 222.83 208.75 221.50
  Q 206.79 217.43 202.75 219.68
  A 0.54 0.53 57.6 0 1 202.05 219.52
  Z"
/>
<path fill="#000000" d="
  M 89.83 89.27
  Q 89.65 87.40 87.84 86.88
  Q 80.96 84.91 81.98 79.09
  A 3.98 3.97 74.8 0 1 83.30 76.78
  Q 88.92 71.99 92.32 65.80
  Q 93.20 64.20 93.16 61.98
  Q 92.99 52.47 97.57 44.07
  Q 105.22 30.01 120.56 24.56
  Q 125.71 22.73 130.75 22.77
  Q 136.51 22.81 142.26 23.01
  Q 148.94 23.24 153.56 24.73
  Q 170.01 30.03 179.92 44.82
  Q 186.06 54.00 186.30 64.36
  Q 186.53 74.30 181.48 83.47
  Q 176.27 92.91 166.77 98.05
  Q 164.05 99.52 148.04 105.01
  Q 129.26 111.46 110.41 117.70
  Q 110.33 117.73 108.25 118.49
  Q 104.24 119.97 100.22 119.32
  Q 95.73 118.59 93.45 115.33
  Q 90.82 111.56 92.56 106.56
  Q 93.80 103.02 91.48 101.23
  Q 91.01 100.86 90.85 100.48
  Q 89.78 97.86 92.57 96.46
  Q 93.57 95.97 92.47 95.79
  Q 89.21 95.24 88.59 92.48
  A 1.20 1.01 -37.2 0 1 88.79 91.60
  Q 89.90 90.00 89.83 89.27
  Z
  M 102.90 93.75
  Q 103.63 95.47 102.19 95.94
  Q 98.40 97.15 94.93 98.67
  A 0.66 0.65 59.8 0 0 94.67 99.66
  Q 95.83 101.22 96.23 102.75
  Q 96.52 103.88 95.97 106.08
  Q 93.56 115.71 101.36 116.09
  Q 104.34 116.23 110.31 114.21
  Q 130.69 107.33 151.06 100.41
  Q 151.17 100.38 156.47 98.67
  Q 162.15 96.83 165.44 94.94
  Q 179.22 87.00 182.22 72.30
  Q 183.58 65.60 182.33 59.20
  Q 181.02 52.51 177.19 46.81
  Q 164.60 28.10 141.69 25.75
  Q 131.72 24.72 122.56 27.56
  Q 104.29 33.23 97.98 51.49
  Q 96.31 56.34 96.75 60.00
  Q 97.17 63.44 96.19 65.44
  Q 92.36 73.28 85.34 79.48
  Q 83.75 80.89 85.45 82.17
  Q 87.08 83.39 89.77 84.32
  Q 95.50 86.29 92.58 91.12
  A 0.89 0.88 -71.5 0 0 93.24 92.47
  L 102.18 93.28
  A 0.91 0.75 -6.3 0 1 102.90 93.75
  Z"
/>
<path fill="#ffffff" d="
  M 102.18 93.28
  L 93.24 92.47
  A 0.89 0.88 -71.5 0 1 92.58 91.12
  Q 95.50 86.29 89.77 84.32
  Q 87.08 83.39 85.45 82.17
  Q 83.75 80.89 85.34 79.48
  Q 92.36 73.28 96.19 65.44
  Q 97.17 63.44 96.75 60.00
  Q 96.31 56.34 97.98 51.49
  Q 104.29 33.23 122.56 27.56
  Q 131.72 24.72 141.69 25.75
  Q 164.60 28.10 177.19 46.81
  Q 181.02 52.51 182.33 59.20
  Q 183.58 65.60 182.22 72.30
  Q 179.22 87.00 165.44 94.94
  Q 162.15 96.83 156.47 98.67
  Q 151.17 100.38 151.06 100.41
  Q 130.69 107.33 110.31 114.21
  Q 104.34 116.23 101.36 116.09
  Q 93.56 115.71 95.97 106.08
  Q 96.52 103.88 96.23 102.75
  Q 95.83 101.22 94.67 99.66
  A 0.66 0.65 59.8 0 1 94.93 98.67
  Q 98.40 97.15 102.19 95.94
  Q 103.63 95.47 102.90 93.75
  A 0.91 0.75 -6.3 0 0 102.18 93.28
  Z
  M 172.48 59.18
  A 25.31 25.31 0.0 0 0 147.17 33.87
  A 25.31 25.31 0.0 0 0 121.86 59.18
  A 25.31 25.31 0.0 0 0 147.17 84.49
  A 25.31 25.31 0.0 0 0 172.48 59.18
  Z
  M 107.52 67.44
  A 2.11 2.11 -7.0 0 1 105.44 65.82
  Q 104.71 62.77 102.45 64.49
  A 0.99 0.98 70.2 0 0 102.07 65.31
  Q 102.19 68.98 105.25 70.25
  Q 109.97 72.21 112.48 68.15
  Q 113.18 67.01 113.35 65.86
  Q 113.71 63.23 110.79 64.15
  A 0.82 0.71 86.1 0 0 110.28 64.82
  Q 109.99 67.40 107.52 67.44
  Z"
/>
<path fill="#000000" d="
  M 172.48 59.18
  A 25.31 25.31 0.0 0 1 147.17 84.49
  A 25.31 25.31 0.0 0 1 121.86 59.18
  A 25.31 25.31 0.0 0 1 147.17 33.87
  A 25.31 25.31 0.0 0 1 172.48 59.18
  Z
  M 160.31 41.44
  Q 146.79 32.36 133.23 41.94
  A 0.85 0.85 -40.4 0 0 133.12 43.24
  L 135.11 45.23
  A 1.02 1.02 52.2 0 0 136.35 45.39
  Q 147.41 38.79 156.85 45.46
  A 0.92 0.84 48.9 0 0 157.72 45.56
  Q 159.05 44.94 159.94 43.69
  A 2.03 0.97 -55.1 0 0 160.31 41.44
  Z
  M 162.81 61.91
  Q 162.16 65.64 159.67 68.74
  A 0.83 0.83 42.0 0 0 159.73 69.85
  L 163.37 73.50
  A 0.60 0.60 -49.9 0 0 164.28 73.42
  Q 173.85 59.70 164.76 45.53
  A 1.20 1.09 52.0 0 0 163.02 45.23
  L 160.18 47.96
  A 0.69 0.62 52.7 0 0 160.11 48.78
  Q 163.98 55.10 162.81 61.91
  Z
  M 132.81 47.44
  Q 131.81 46.19 130.49 45.33
  A 0.55 0.53 -54.9 0 0 129.76 45.47
  Q 120.53 58.32 129.35 72.40
  A 1.26 1.23 49.6 0 0 131.34 72.58
  L 133.68 69.89
  A 0.66 0.62 48.4 0 0 133.70 69.09
  Q 126.43 59.05 133.22 48.66
  A 1.02 0.55 -50.4 0 0 133.40 47.77
  Q 133.23 47.50 132.81 47.44
  Z
  M 154.33 47.70
  Q 147.04 42.83 138.97 47.56
  A 0.83 0.76 -36.9 0 0 138.74 48.80
  L 141.10 51.17
  A 0.96 0.91 -35.4 0 0 142.17 51.32
  Q 146.65 49.09 150.31 50.94
  Q 152.62 52.11 154.54 48.58
  A 0.67 0.66 -58.6 0 0 154.33 47.70
  Z
  M 135.37 51.12
  Q 130.85 58.95 135.71 66.41
  A 0.72 0.71 56.2 0 0 136.71 66.61
  Q 138.68 65.25 139.32 63.96
  A 1.12 0.85 48.9 0 0 139.26 63.07
  Q 137.37 59.43 138.86 54.25
  A 1.05 1.03 -60.1 0 0 138.59 53.22
  L 136.36 50.99
  A 0.63 0.63 37.5 0 0 135.37 51.12
  Z
  M 154.37 54.66
  Q 155.79 58.60 153.90 63.14
  A 1.01 1.00 34.0 0 0 154.12 64.24
  L 156.59 66.71
  A 0.49 0.49 -51.0 0 0 157.35 66.63
  Q 161.93 59.61 158.14 51.70
  A 0.87 0.81 55.0 0 0 156.79 51.41
  L 154.48 53.78
  A 0.95 0.69 61.2 0 0 154.37 54.66
  Z
  M 151.89 58.60
  A 5.29 5.29 0.0 0 0 146.60 53.31
  A 5.29 5.29 0.0 0 0 141.31 58.60
  A 5.29 5.29 0.0 0 0 146.60 63.89
  A 5.29 5.29 0.0 0 0 151.89 58.60
  Z
  M 143.50 66.30
  Q 141.83 65.81 140.64 67.28
  Q 140.33 67.67 139.56 68.42
  Q 138.51 69.45 140.19 70.31
  Q 147.30 73.95 154.15 69.76
  A 0.57 0.57 52.2 0 0 154.26 68.88
  L 152.19 66.82
  A 1.58 1.57 61.2 0 0 150.71 66.39
  Q 148.20 66.97 146.29 67.01
  Q 145.94 67.01 143.50 66.30
  Z
  M 143.31 74.94
  Q 140.40 74.42 136.98 72.21
  A 0.80 0.75 44.6 0 0 136.14 72.19
  Q 134.11 73.47 132.98 75.56
  A 0.58 0.57 32.5 0 0 133.15 76.30
  Q 146.66 86.08 160.92 76.64
  A 0.63 0.61 -39.3 0 0 161.03 75.68
  L 157.37 72.08
  A 0.66 0.61 -39.1 0 0 156.58 72.03
  Q 150.31 76.18 143.31 74.94
  Z"
/>
<path fill="#ffffff" d="
  M 160.31 41.44
  A 2.03 0.97 -55.1 0 1 159.94 43.69
  Q 159.05 44.94 157.72 45.56
  A 0.92 0.84 48.9 0 1 156.85 45.46
  Q 147.41 38.79 136.35 45.39
  A 1.02 1.02 52.2 0 1 135.11 45.23
  L 133.12 43.24
  A 0.85 0.85 -40.4 0 1 133.23 41.94
  Q 146.79 32.36 160.31 41.44
  Z"
/>
<path fill="#ffffff" d="
  M 162.81 61.91
  Q 163.98 55.10 160.11 48.78
  A 0.69 0.62 52.7 0 1 160.18 47.96
  L 163.02 45.23
  A 1.20 1.09 52.0 0 1 164.76 45.53
  Q 173.85 59.70 164.28 73.42
  A 0.60 0.60 -49.9 0 1 163.37 73.50
  L 159.73 69.85
  A 0.83 0.83 42.0 0 1 159.67 68.74
  Q 162.16 65.64 162.81 61.91
  Z"
/>
<path fill="#ffffff" d="
  M 132.81 47.44
  Q 133.23 47.50 133.40 47.77
  A 1.02 0.55 -50.4 0 1 133.22 48.66
  Q 126.43 59.05 133.70 69.09
  A 0.66 0.62 48.4 0 1 133.68 69.89
  L 131.34 72.58
  A 1.26 1.23 49.6 0 1 129.35 72.40
  Q 120.53 58.32 129.76 45.47
  A 0.55 0.53 -54.9 0 1 130.49 45.33
  Q 131.81 46.19 132.81 47.44
  Z"
/>
<path fill="#ffffff" d="
  M 154.33 47.70
  A 0.67 0.66 -58.6 0 1 154.54 48.58
  Q 152.62 52.11 150.31 50.94
  Q 146.65 49.09 142.17 51.32
  A 0.96 0.91 -35.4 0 1 141.10 51.17
  L 138.74 48.80
  A 0.83 0.76 -36.9 0 1 138.97 47.56
  Q 147.04 42.83 154.33 47.70
  Z"
/>
<path fill="#ffffff" d="
  M 135.37 51.12
  A 0.63 0.63 37.5 0 1 136.36 50.99
  L 138.59 53.22
  A 1.05 1.03 -60.1 0 1 138.86 54.25
  Q 137.37 59.43 139.26 63.07
  A 1.12 0.85 48.9 0 1 139.32 63.96
  Q 138.68 65.25 136.71 66.61
  A 0.72 0.71 56.2 0 1 135.71 66.41
  Q 130.85 58.95 135.37 51.12
  Z"
/>
<path fill="#ffffff" d="
  M 154.48 53.78
  L 156.79 51.41
  A 0.87 0.81 55.0 0 1 158.14 51.70
  Q 161.93 59.61 157.35 66.63
  A 0.49 0.49 -51.0 0 1 156.59 66.71
  L 154.12 64.24
  A 1.01 1.00 34.0 0 1 153.90 63.14
  Q 155.79 58.60 154.37 54.66
  A 0.95 0.69 61.2 0 1 154.48 53.78
  Z"
/>
<circle fill="#ffffff" cx="146.60" cy="58.60" r="5.29"/>
<path fill="#000000" d="
  M 107.52 67.44
  Q 109.99 67.40 110.28 64.82
  A 0.82 0.71 86.1 0 1 110.79 64.15
  Q 113.71 63.23 113.35 65.86
  Q 113.18 67.01 112.48 68.15
  Q 109.97 72.21 105.25 70.25
  Q 102.19 68.98 102.07 65.31
  A 0.99 0.98 70.2 0 1 102.45 64.49
  Q 104.71 62.77 105.44 65.82
  A 2.11 2.11 -7.0 0 0 107.52 67.44
  Z"
/>
<path fill="#ffffff" d="
  M 146.29 67.01
  Q 148.20 66.97 150.71 66.39
  A 1.58 1.57 61.2 0 1 152.19 66.82
  L 154.26 68.88
  A 0.57 0.57 52.2 0 1 154.15 69.76
  Q 147.30 73.95 140.19 70.31
  Q 138.51 69.45 139.56 68.42
  Q 140.33 67.67 140.64 67.28
  Q 141.83 65.81 143.50 66.30
  Q 145.94 67.01 146.29 67.01
  Z"
/>
<path fill="#ffffff" d="
  M 143.31 74.94
  Q 150.31 76.18 156.58 72.03
  A 0.66 0.61 -39.1 0 1 157.37 72.08
  L 161.03 75.68
  A 0.63 0.61 -39.3 0 1 160.92 76.64
  Q 146.66 86.08 133.15 76.30
  A 0.58 0.57 32.5 0 1 132.98 75.56
  Q 134.11 73.47 136.14 72.19
  A 0.80 0.75 44.6 0 1 136.98 72.21
  Q 140.40 74.42 143.31 74.94
  Z"
/>
<path fill="#000000" d="
  M 162.51 115.63
  Q 175.11 121.06 187.58 126.78
  Q 188.35 127.14 188.71 127.45
  Q 189.72 128.36 188.34 128.84
  Q 187.87 129.00 187.15 129.00
  Q 151.33 129.00 115.87 129.00
  A 0.87 0.87 -45.0 0 1 115.00 128.13
  L 115.00 119.86
  A 1.65 1.62 80.5 0 1 116.09 118.31
  L 160.69 103.02
  A 0.80 0.78 -10.4 0 1 161.75 103.73
  L 162.07 114.94
  A 0.78 0.71 -80.3 0 0 162.51 115.63
  Z
  M 166.43 120.86
  L 160.15 118.08
  A 1.08 1.05 -48.2 0 0 159.17 118.15
  Q 157.50 119.16 155.79 118.80
  Q 154.07 118.44 154.60 117.02
  A 1.26 1.12 -88.6 0 1 155.25 116.32
  L 158.50 114.99
  A 0.80 0.69 -12.4 0 0 159.00 114.32
  L 158.95 107.32
  A 0.37 0.36 -9.7 0 0 158.46 106.98
  L 118.66 120.77
  A 0.83 0.64 -12.6 0 0 118.10 121.44
  L 118.15 125.51
  A 0.47 0.40 -8.8 0 0 118.74 125.87
  Q 126.40 123.89 134.02 121.77
  Q 135.28 121.42 136.02 121.57
  Q 137.64 121.90 137.11 123.71
  A 0.98 0.86 -86.7 0 1 136.47 124.36
  L 129.06 126.21
  A 0.83 0.31 -7.2 0 0 128.55 126.48
  Q 128.36 126.81 129.00 126.81
  Q 147.72 126.80 166.44 126.69
  A 0.57 0.51 0.0 0 0 167.01 126.18
  L 166.98 121.58
  A 0.91 0.74 13.2 0 0 166.43 120.86
  Z
  M 178.82 126.19
  L 170.73 122.91
  A 0.45 0.37 12.5 0 0 170.11 123.22
  L 170.20 126.24
  A 0.61 0.53 -1.0 0 0 170.81 126.75
  L 178.70 126.75
  Q 180.20 126.75 178.82 126.19
  Z"
/>
<path fill="#ffffff" d="
  M 166.43 120.86
  A 0.91 0.74 13.2 0 1 166.98 121.58
  L 167.01 126.18
  A 0.57 0.51 -0.0 0 1 166.44 126.69
  Q 147.72 126.80 129.00 126.81
  Q 128.36 126.81 128.55 126.48
  A 0.83 0.31 -7.2 0 1 129.06 126.21
  L 136.47 124.36
  A 0.98 0.86 -86.7 0 0 137.11 123.71
  Q 137.64 121.90 136.02 121.57
  Q 135.28 121.42 134.02 121.77
  Q 126.40 123.89 118.74 125.87
  A 0.47 0.40 -8.8 0 1 118.15 125.51
  L 118.10 121.44
  A 0.83 0.64 -12.6 0 1 118.66 120.77
  L 158.46 106.98
  A 0.37 0.36 -9.7 0 1 158.95 107.32
  L 159.00 114.32
  A 0.80 0.69 -12.4 0 1 158.50 114.99
  L 155.25 116.32
  A 1.26 1.12 -88.6 0 0 154.60 117.02
  Q 154.07 118.44 155.79 118.80
  Q 157.50 119.16 159.17 118.15
  A 1.08 1.05 -48.2 0 1 160.15 118.08
  L 166.43 120.86
  Z
  M 151.43 122.44
  A 0.82 0.82 14.9 0 1 150.72 121.22
  Q 151.76 119.38 150.94 117.63
  Q 149.53 114.62 146.68 114.38
  Q 144.71 114.21 142.98 115.31
  Q 141.04 116.54 140.75 118.75
  Q 140.37 121.70 142.50 123.39
  Q 143.88 124.49 146.79 124.60
  Q 153.95 124.89 161.12 124.76
  Q 161.24 124.76 162.37 124.80
  Q 164.72 124.88 163.91 123.00
  A 0.82 0.72 -10.2 0 0 163.18 122.56
  L 151.43 122.44
  Z"
/>
<path fill="#000000" d="
  M 151.43 122.44
  L 163.18 122.56
  A 0.82 0.72 -10.2 0 1 163.91 123.00
  Q 164.72 124.88 162.37 124.80
  Q 161.24 124.76 161.12 124.76
  Q 153.95 124.89 146.79 124.60
  Q 143.88 124.49 142.50 123.39
  Q 140.37 121.70 140.75 118.75
  Q 141.04 116.54 142.98 115.31
  Q 144.71 114.21 146.68 114.38
  Q 149.53 114.62 150.94 117.63
  Q 151.76 119.38 150.72 121.22
  A 0.82 0.82 14.9 0 0 151.43 122.44
  Z
  M 148.83 119.52
  A 2.81 2.81 0.0 0 0 146.02 116.71
  A 2.81 2.81 0.0 0 0 143.21 119.52
  A 2.81 2.81 0.0 0 0 146.02 122.33
  A 2.81 2.81 0.0 0 0 148.83 119.52
  Z"
/>
<circle fill="#ffffff" cx="146.02" cy="119.52" r="2.81"/>
<path fill="#ffffff" d="
  M 178.82 126.19
  Q 180.20 126.75 178.70 126.75
  L 170.81 126.75
  A 0.61 0.53 -1.0 0 1 170.20 126.24
  L 170.11 123.22
  A 0.45 0.37 12.5 0 1 170.73 122.91
  L 178.82 126.19
  Z"
/>
<circle fill="#000000" cx="138.24" cy="147.97" r="4.30"/>
<path fill="#000000" d="
  M 180.75 156.70
  L 183.09 144.40
  A 0.67 0.63 -84.6 0 1 183.72 143.85
  L 188.01 143.90
  A 0.50 0.42 -83.9 0 1 188.41 144.49
  Q 185.73 159.55 182.50 174.50
  Q 181.98 176.89 180.98 188.44
  A 0.56 0.54 -87.7 0 1 180.44 188.96
  L 176.20 188.99
  A 0.49 0.48 -88.3 0 1 175.72 188.47
  L 176.11 182.64
  Q 176.15 182.01 175.82 182.55
  Q 172.41 188.11 165.99 189.18
  Q 161.14 189.99 158.30 187.24
  Q 156.10 185.11 155.60 180.68
  Q 154.95 175.05 156.78 169.51
  Q 161.45 155.37 176.75 156.71
  Q 178.48 156.86 180.20 157.11
  A 0.51 0.48 -80.3 0 0 180.75 156.70
  Z
  M 178.34 162.11
  Q 168.47 158.69 163.44 167.44
  Q 160.38 172.76 161.19 179.75
  Q 161.50 182.33 162.55 183.46
  Q 164.19 185.20 167.08 184.12
  Q 170.57 182.82 172.77 179.81
  Q 178.36 172.19 179.15 162.75
  A 0.50 0.48 9.4 0 0 178.76 162.23
  Q 178.55 162.18 178.34 162.11
  Z"
/>
<path fill="#000000" d="
  M 212.68 180.05
  L 196.56 180.05
  A 0.85 0.85 -77.1 0 0 195.81 180.50
  L 191.66 188.24
  A 1.00 0.65 -70.5 0 1 190.95 188.79
  L 185.85 188.89
  A 0.45 0.42 -75.2 0 1 185.50 188.23
  L 207.02 147.93
  A 0.86 0.80 12.1 0 1 207.75 147.50
  L 214.56 147.45
  A 0.58 0.56 -3.4 0 1 215.13 147.94
  L 220.25 188.31
  A 0.54 0.52 80.9 0 1 219.83 188.91
  Q 217.23 189.38 214.72 188.65
  A 0.79 0.70 -86.6 0 1 214.21 188.00
  L 213.27 180.56
  A 0.60 0.58 -3.2 0 0 212.68 180.05
  Z
  M 199.41 174.54
  L 212.06 174.60
  A 0.47 0.45 87.1 0 0 212.51 174.08
  L 210.27 153.94
  Q 210.13 152.70 209.57 153.80
  L 199.13 174.05
  A 0.34 0.32 -75.9 0 0 199.41 174.54
  Z"
/>
<path fill="#000000" d="
  M 242.19 152.30
  L 234.20 152.26
  A 0.65 0.63 5.6 0 1 233.57 151.51
  L 234.22 148.06
  A 0.62 0.60 -84.1 0 1 234.81 147.56
  L 258.56 147.44
  A 0.55 0.51 -0.5 0 1 259.11 147.94
  Q 259.13 149.46 258.01 151.64
  A 1.30 1.18 12.2 0 1 256.91 152.28
  L 249.18 152.40
  A 0.66 0.59 -83.4 0 0 248.59 152.92
  L 242.54 183.32
  A 0.43 0.43 6.9 0 0 242.94 183.83
  L 251.32 184.17
  A 0.44 0.42 6.7 0 1 251.74 184.68
  L 251.00 188.32
  A 0.87 0.85 5.7 0 1 250.15 189.00
  L 226.42 189.00
  A 0.48 0.41 -83.2 0 1 226.04 188.42
  L 226.79 184.58
  A 0.71 0.59 -83.6 0 1 227.39 184.00
  L 235.96 184.00
  A 0.63 0.62 5.5 0 0 236.58 183.50
  L 242.60 152.80
  A 0.42 0.42 5.7 0 0 242.19 152.30
  Z"
/>
<path fill="#000000" d="
  M 13.13 181.18
  Q 16.32 164.81 19.85 148.00
  A 0.64 0.63 -83.8 0 1 20.47 147.50
  Q 24.58 147.50 28.66 147.50
  Q 28.73 147.50 31.34 147.40
  Q 36.08 147.22 39.69 149.56
  Q 41.19 150.54 41.97 152.34
  Q 42.57 153.72 42.58 155.75
  Q 42.61 165.50 33.16 168.70
  A 0.52 0.52 64.4 0 0 32.89 169.47
  Q 35.19 173.01 36.02 176.13
  Q 37.64 182.17 39.30 188.20
  A 0.48 0.39 80.0 0 1 38.96 188.80
  L 34.06 188.87
  A 1.14 0.97 81.5 0 1 33.07 188.01
  Q 32.15 184.43 31.21 180.99
  Q 29.35 174.13 29.30 174.02
  Q 27.30 169.90 21.68 170.39
  A 0.68 0.66 3.3 0 0 21.07 170.92
  L 17.52 188.18
  A 0.77 0.55 -83.1 0 1 16.95 188.80
  L 12.18 188.91
  A 0.60 0.54 -83.7 0 1 11.65 188.18
  Q 12.49 184.47 13.13 181.18
  Z
  M 36.48 158.42
  Q 38.06 152.39 29.50 152.24
  Q 27.28 152.21 25.06 152.29
  A 0.64 0.63 -85.3 0 0 24.47 152.80
  L 22.10 165.00
  A 0.53 0.50 -78.6 0 0 22.48 165.61
  Q 27.98 166.73 32.20 164.15
  Q 35.52 162.11 36.48 158.42
  Z"
/>
<path fill="#ffffff" d="
  M 32.20 164.15
  Q 27.98 166.73 22.48 165.61
  A 0.53 0.50 -78.6 0 1 22.10 165.00
  L 24.47 152.80
  A 0.64 0.63 -85.3 0 1 25.06 152.29
  Q 27.28 152.21 29.50 152.24
  Q 38.06 152.39 36.48 158.42
  Q 35.52 162.11 32.20 164.15
  Z"
/>
<path fill="#ffffff" d="
  M 199.41 174.54
  A 0.34 0.32 -75.9 0 1 199.13 174.05
  L 209.57 153.80
  Q 210.13 152.70 210.27 153.94
  L 212.51 174.08
  A 0.47 0.45 87.1 0 1 212.06 174.60
  L 199.41 174.54
  Z"
/>
<path fill="#000000" d="
  M 68.71 183.29
  Q 68.66 182.30 68.11 183.12
  Q 64.56 188.42 58.76 189.30
  Q 54.66 189.92 51.84 187.85
  Q 49.44 186.09 48.61 182.26
  Q 47.32 176.37 49.44 169.94
  Q 54.69 153.97 71.80 157.26
  Q 75.03 157.89 77.86 156.65
  Q 79.06 156.13 78.77 157.41
  Q 75.32 172.57 73.74 187.95
  A 1.09 0.92 80.8 0 1 73.27 188.73
  Q 72.59 189.12 71.76 189.10
  Q 70.76 189.07 70.26 189.13
  Q 68.24 189.34 68.50 187.65
  Q 68.76 185.94 68.77 185.81
  Q 68.78 184.41 68.71 183.29
  Z
  M 71.35 162.28
  Q 60.38 158.63 55.82 168.53
  Q 53.15 174.32 54.13 180.44
  Q 54.50 182.73 55.63 183.69
  Q 57.21 185.03 59.68 184.16
  Q 63.44 182.83 65.80 179.58
  Q 71.02 172.40 71.79 162.96
  A 0.66 0.65 12.4 0 0 71.35 162.28
  Z"
/>
<path fill="#000000" d="
  M 93.08 163.26
  Q 97.83 155.70 106.25 156.50
  Q 110.16 156.87 112.06 160.05
  Q 113.38 162.26 113.56 166.17
  Q 113.81 171.41 112.18 176.30
  Q 110.46 181.50 106.93 184.78
  Q 100.04 191.19 89.30 188.53
  A 0.64 0.63 12.6 0 0 88.52 189.02
  L 86.03 201.49
  A 0.65 0.63 -83.8 0 1 85.41 202.00
  L 81.38 202.00
  A 0.91 0.91 -84.5 0 1 80.49 200.92
  Q 82.88 188.90 85.26 177.25
  Q 87.26 167.49 88.02 157.56
  A 0.69 0.68 86.1 0 1 88.55 156.94
  Q 90.65 156.44 92.77 156.89
  A 0.59 0.59 -82.7 0 1 93.24 157.50
  L 92.86 163.18
  Q 92.83 163.64 93.08 163.26
  Z
  M 105.43 161.77
  Q 103.41 160.87 101.14 162.20
  Q 93.18 166.87 91.12 175.97
  Q 90.35 179.34 89.82 182.76
  A 0.65 0.64 -74.9 0 0 90.21 183.45
  Q 96.71 186.15 101.45 182.94
  Q 105.18 180.40 106.88 174.88
  Q 108.37 170.06 107.68 164.79
  Q 107.41 162.65 105.43 161.77
  Z"
/>
<path fill="#000000" d="
  M 139.06 184.71
  Q 142.29 184.78 146.46 182.05
  Q 147.22 181.56 147.22 182.45
  L 147.22 186.19
  A 0.91 0.82 -15.9 0 1 146.75 186.94
  Q 143.33 188.87 138.25 189.25
  Q 132.22 189.70 130.63 185.64
  Q 129.80 183.52 130.73 178.50
  Q 131.93 172.01 133.03 165.50
  Q 133.90 160.33 128.75 161.25
  Q 125.46 161.83 122.96 163.50
  Q 122.06 164.11 122.07 163.07
  L 122.10 159.43
  A 1.01 0.76 -17.5 0 1 122.63 158.69
  Q 127.85 155.88 133.83 156.52
  Q 137.47 156.91 138.50 160.25
  Q 139.20 162.54 138.63 165.48
  Q 137.16 172.96 135.93 180.98
  Q 135.37 184.64 139.06 184.71
  Z"
/>
<path fill="#ffffff" d="
  M 71.35 162.28
  A 0.66 0.65 12.4 0 1 71.79 162.96
  Q 71.02 172.40 65.80 179.58
  Q 63.44 182.83 59.68 184.16
  Q 57.21 185.03 55.63 183.69
  Q 54.50 182.73 54.13 180.44
  Q 53.15 174.32 55.82 168.53
  Q 60.38 158.63 71.35 162.28
  Z"
/>
<path fill="#ffffff" d="
  M 178.34 162.11
  Q 178.55 162.18 178.76 162.23
  A 0.50 0.48 9.4 0 1 179.15 162.75
  Q 178.36 172.19 172.77 179.81
  Q 170.57 182.82 167.08 184.12
  Q 164.19 185.20 162.55 183.46
  Q 161.50 182.33 161.19 179.75
  Q 160.38 172.76 163.44 167.44
  Q 168.47 158.69 178.34 162.11
  Z"
/>
<path fill="#ffffff" d="
  M 105.43 161.77
  Q 107.41 162.65 107.68 164.79
  Q 108.37 170.06 106.88 174.88
  Q 105.18 180.40 101.45 182.94
  Q 96.71 186.15 90.21 183.45
  A 0.65 0.64 -74.9 0 1 89.82 182.76
  Q 90.35 179.34 91.12 175.97
  Q 93.18 166.87 101.14 162.20
  Q 103.41 160.87 105.43 161.77
  Z"
/>
<path fill="#000000" d="
  M 118.58 228.00
  Q 120.75 227.73 120.56 225.02
  Q 120.51 224.38 120.15 224.12
  Q 119.90 223.94 119.56 223.91
  A 1.05 0.61 -4.0 0 1 118.79 223.53
  Q 117.91 221.97 121.29 222.01
  A 0.97 0.97 0.3 0 1 122.25 222.98
  L 122.25 228.05
  A 1.10 1.09 82.4 0 1 121.45 229.11
  Q 112.93 231.53 111.40 224.85
  Q 110.50 220.96 112.31 218.00
  Q 114.61 214.25 119.94 215.38
  Q 120.77 215.56 121.23 216.11
  Q 122.25 217.33 120.49 217.68
  A 1.85 1.18 40.8 0 1 119.54 217.54
  Q 115.28 215.76 113.69 220.19
  Q 111.95 225.03 115.69 227.27
  Q 117.18 228.17 118.58 228.00
  Z"
/>
<path fill="#000000" d="
  M 66.09 220.79
  L 66.26 228.74
  A 0.77 0.70 80.5 0 1 65.80 229.46
  Q 65.18 229.68 64.55 229.57
  A 0.65 0.60 -85.2 0 1 64.06 228.94
  L 64.00 216.79
  Q 63.99 213.77 65.74 216.24
  L 71.54 224.41
  Q 72.00 225.05 72.00 224.26
  L 72.05 216.07
  A 0.64 0.59 85.8 0 1 72.55 215.44
  Q 73.18 215.34 73.79 215.55
  A 0.77 0.66 -82.3 0 1 74.25 216.26
  L 74.25 228.56
  Q 74.25 231.10 72.76 229.01
  L 66.71 220.55
  Q 66.07 219.66 66.09 220.79
  Z"
/>
<circle fill="#000000" cx="186.14" cy="216.38" r="1.15"/>
<path fill="#000000" d="
  M 179.56 218.86
  Q 181.95 218.58 181.38 220.23
  A 0.73 0.49 7.7 0 1 180.69 220.57
  L 179.55 220.51
  A 0.57 0.48 -86.8 0 0 179.04 221.06
  Q 178.94 223.28 178.80 225.49
  Q 178.64 228.24 181.26 228.06
  A 1.19 0.85 -18.0 0 1 182.12 228.33
  Q 182.91 229.19 181.57 229.58
  Q 178.55 230.46 177.25 227.75
  Q 176.78 226.77 176.75 223.60
  Q 176.75 223.45 177.02 221.94
  Q 177.25 220.69 175.84 220.35
  Q 174.64 220.06 175.74 219.50
  Q 177.03 218.85 177.04 217.50
  A 0.96 0.72 78.7 0 1 177.41 216.73
  Q 179.48 215.48 179.13 218.45
  A 0.38 0.37 -0.7 0 0 179.56 218.86
  Z"
/>
<path fill="#000000" d="
  M 101.06 218.86
  Q 103.70 218.49 102.92 220.24
  A 0.66 0.54 17.2 0 1 102.21 220.53
  Q 101.59 220.40 101.01 220.60
  A 0.80 0.74 -10.7 0 0 100.48 221.31
  L 100.48 226.69
  A 1.11 0.93 20.8 0 0 100.94 227.51
  Q 101.80 228.14 102.94 228.11
  A 0.90 0.64 -10.2 0 1 103.72 228.48
  Q 103.97 229.02 103.59 229.46
  Q 103.33 229.75 102.80 229.81
  Q 98.12 230.34 98.50 225.25
  Q 98.59 224.08 98.46 221.32
  A 0.67 0.62 5.5 0 0 97.94 220.73
  Q 96.39 220.38 97.42 219.30
  Q 97.47 219.26 98.15 218.83
  Q 98.68 218.49 98.61 217.75
  A 0.99 0.72 72.9 0 1 98.89 216.93
  Q 100.85 215.44 100.61 218.44
  A 0.40 0.40 -1.8 0 0 101.06 218.86
  Z"
/>
<path fill="#000000" d="
  M 80.57 227.90
  Q 81.57 228.14 83.56 227.56
  Q 84.61 227.26 84.70 228.19
  A 0.93 0.78 -20.8 0 1 84.27 228.97
  Q 81.38 230.81 79.06 229.44
  Q 74.60 226.79 76.56 222.06
  Q 77.73 219.23 80.57 218.94
  Q 82.79 218.70 84.21 219.89
  Q 85.78 221.19 85.75 223.86
  A 0.74 0.69 -0.0 0 1 85.02 224.54
  L 78.94 224.63
  A 0.58 0.58 -88.4 0 0 78.37 225.17
  Q 78.20 227.34 80.57 227.90
  Z
  M 82.56 221.19
  Q 80.16 219.99 78.56 222.38
  Q 78.15 223.00 78.88 222.99
  L 82.94 222.96
  A 0.60 0.52 0.5 0 0 83.54 222.45
  Q 83.56 221.68 82.56 221.19
  Z"
/>
<path fill="#000000" d="
  M 92.02 221.53
  Q 92.64 220.31 94.41 219.23
  Q 95.20 218.75 95.52 219.22
  A 0.87 0.59 -47.4 0 1 95.39 220.09
  L 92.55 223.86
  A 0.68 0.64 46.1 0 0 92.56 224.65
  L 95.74 228.94
  Q 96.15 229.49 95.46 229.55
  Q 93.74 229.70 93.08 228.24
  Q 91.39 224.48 89.73 228.24
  Q 88.89 230.14 87.20 229.47
  A 0.43 0.41 -61.5 0 1 87.03 228.84
  L 89.72 224.91
  A 0.96 0.93 -39.0 0 0 89.83 224.03
  Q 89.07 222.12 87.66 220.59
  Q 85.98 218.78 88.19 219.00
  A 1.28 0.78 -5.9 0 1 89.05 219.41
  L 90.50 221.51
  A 0.94 0.83 42.4 0 0 92.02 221.53
  Z"
/>
<path fill="#000000" d="
  M 130.92 228.00
  Q 131.35 227.84 131.77 227.68
  A 1.28 0.97 -36.5 0 1 132.71 227.69
  Q 133.79 228.24 132.72 228.97
  Q 132.33 229.24 131.74 229.40
  Q 125.88 231.02 124.93 226.07
  Q 124.37 223.18 125.56 221.05
  Q 127.16 218.17 131.25 219.25
  Q 134.97 220.24 133.95 224.09
  A 0.68 0.58 5.4 0 1 133.32 224.53
  L 127.19 224.64
  A 0.49 0.48 86.2 0 0 126.72 225.18
  Q 126.98 227.71 129.55 228.17
  Q 130.18 228.28 130.92 228.00
  Z
  M 130.81 221.19
  Q 128.51 219.98 127.05 222.42
  Q 126.71 222.99 127.36 222.98
  L 131.44 222.96
  A 0.49 0.44 -4.8 0 0 131.93 222.44
  Q 131.78 221.69 130.81 221.19
  Z"
/>
<path fill="#000000" d="
  M 139.09 219.64
  Q 141.38 218.07 143.03 219.58
  Q 144.04 220.51 144.14 222.65
  Q 144.28 225.67 144.42 228.69
  A 0.86 0.79 75.1 0 1 144.02 229.45
  Q 142.40 230.39 142.63 228.63
  Q 142.74 227.77 142.72 227.36
  Q 142.63 224.96 142.47 222.56
  A 1.48 1.27 -71.6 0 0 142.11 221.68
  Q 140.25 219.70 138.39 221.68
  A 1.41 1.25 70.3 0 0 138.04 222.55
  Q 137.89 227.24 138.00 228.25
  Q 138.23 230.31 136.51 229.64
  A 0.74 0.72 -79.3 0 1 136.04 228.94
  L 136.15 219.69
  A 0.49 0.42 -82.3 0 1 136.69 219.21
  L 138.26 219.69
  A 1.10 0.68 28.5 0 0 139.09 219.64
  Z"
/>
<path fill="#000000" d="
  M 148.46 225.54
  Q 149.59 228.71 153.69 227.69
  Q 155.87 227.14 154.74 228.79
  A 1.40 1.32 8.8 0 1 153.97 229.32
  Q 146.74 231.17 146.58 224.81
  Q 146.50 221.81 148.13 220.11
  Q 150.33 217.81 153.94 219.56
  Q 156.92 221.01 155.64 224.22
  A 0.64 0.61 14.9 0 1 154.95 224.60
  Q 151.81 224.07 148.79 224.92
  A 0.49 0.48 -17.5 0 0 148.46 225.54
  Z
  M 151.56 220.81
  Q 150.10 220.67 148.92 222.09
  Q 148.44 222.67 149.19 222.79
  Q 154.11 223.57 153.62 222.22
  Q 153.17 220.96 151.56 220.81
  Z"
/>
<path fill="#000000" d="
  M 160.71 219.89
  Q 161.08 219.61 161.45 219.33
  Q 161.83 219.05 162.26 218.96
  Q 165.10 218.40 163.95 220.51
  A 0.74 0.63 17.9 0 1 163.21 220.82
  Q 162.05 220.62 161.18 221.28
  Q 160.52 221.79 160.32 222.97
  Q 159.83 225.92 159.92 228.94
  A 0.75 0.67 79.7 0 1 159.49 229.65
  Q 158.03 230.22 158.01 228.25
  Q 157.96 224.03 158.05 219.82
  A 0.85 0.73 80.6 0 1 158.50 219.08
  Q 159.64 218.60 160.15 219.73
  A 0.38 0.36 59.4 0 0 160.71 219.89
  Z"
/>
<path fill="#000000" d="
  M 171.28 222.04
  Q 170.03 219.79 167.08 221.31
  A 0.72 0.72 -22.1 0 1 166.06 220.88
  Q 165.70 219.70 166.92 219.33
  Q 167.29 219.22 168.45 219.00
  Q 171.48 218.45 173.01 221.06
  A 1.71 1.29 -64.3 0 1 173.20 222.01
  Q 172.93 225.34 174.03 228.49
  Q 174.61 230.16 171.07 229.05
  A 0.37 0.35 32.7 0 0 170.75 229.11
  Q 168.96 230.57 166.99 229.23
  Q 164.61 227.63 165.46 225.47
  Q 166.01 224.09 167.81 223.40
  Q 169.35 222.82 171.01 222.57
  A 0.37 0.36 -18.7 0 0 171.28 222.04
  Z
  M 171.4526 224.9951
  A 2.41 1.59 -32.5 0 0 168.5657 224.9490
  A 2.41 1.59 -32.5 0 0 167.3874 227.5849
  A 2.41 1.59 -32.5 0 0 170.2743 227.6310
  A 2.41 1.59 -32.5 0 0 171.4526 224.9951
  Z"
/>
<path fill="#000000" d="
  M 184.20 220.48
  Q 182.91 220.18 183.86 219.31
  A 1.34 1.25 23.2 0 1 184.75 218.99
  L 186.44 219.03
  A 0.53 0.52 -89.4 0 1 186.95 219.56
  L 186.95 228.93
  A 0.72 0.68 81.8 0 1 186.47 229.61
  Q 184.35 230.26 185.00 227.25
  Q 185.42 225.28 184.77 221.06
  A 0.75 0.71 2.1 0 0 184.20 220.48
  Z"
/>
<path fill="#000000" d="
  M 193.8620 229.9896
  A 5.57 4.81 90.7 0 1 189.1204 224.3612
  A 5.57 4.81 90.7 0 1 193.9980 218.8504
  A 5.57 4.81 90.7 0 1 198.7396 224.4788
  A 5.57 4.81 90.7 0 1 193.8620 229.9896
  Z
  M 193.6656 228.2108
  A 3.79 2.79 94.0 0 0 196.7132 224.6246
  A 3.79 2.79 94.0 0 0 194.1944 220.6492
  A 3.79 2.79 94.0 0 0 191.1468 224.2354
  A 3.79 2.79 94.0 0 0 193.6656 228.2108
  Z"
/>
<path fill="#000000" d="
  M 202.75 219.68
  Q 206.79 217.43 208.75 221.50
  Q 209.39 222.83 208.97 228.93
  A 0.77 0.70 84.3 0 1 208.46 229.61
  Q 206.42 230.25 207.00 227.50
  Q 207.37 225.76 206.77 222.06
  A 1.15 1.06 -80.0 0 0 206.27 221.28
  Q 203.59 219.63 202.31 222.81
  Q 201.87 223.92 202.36 228.19
  Q 202.46 229.05 202.19 229.40
  Q 201.81 229.91 200.99 229.46
  A 0.80 0.73 -74.3 0 1 200.61 228.70
  Q 200.98 224.61 200.62 220.52
  Q 200.56 219.82 200.77 219.39
  Q 201.27 218.40 202.05 219.52
  A 0.54 0.53 57.6 0 0 202.75 219.68
  Z"
/>
<path fill="#ffffff" d="
  M 82.56 221.19
  Q 83.56 221.68 83.54 222.45
  A 0.60 0.52 0.5 0 1 82.94 222.96
  L 78.88 222.99
  Q 78.15 223.00 78.56 222.38
  Q 80.16 219.99 82.56 221.19
  Z"
/>
<path fill="#ffffff" d="
  M 130.81 221.19
  Q 131.78 221.69 131.93 222.44
  A 0.49 0.44 -4.8 0 1 131.44 222.96
  L 127.36 222.98
  Q 126.71 222.99 127.05 222.42
  Q 128.51 219.98 130.81 221.19
  Z"
/>
<path fill="#ffffff" d="
  M 153.62 222.22
  Q 154.11 223.57 149.19 222.79
  Q 148.44 222.67 148.92 222.09
  Q 150.10 220.67 151.56 220.81
  Q 153.17 220.96 153.62 222.22
  Z"
/>
<ellipse fill="#ffffff" cx="0.00" cy="0.00" transform="translate(193.93,224.43) rotate(94.0)" rx="3.79" ry="2.79"/>
<ellipse fill="#ffffff" cx="0.00" cy="0.00" transform="translate(169.42,226.29) rotate(-32.5)" rx="2.41" ry="1.59"/>
</svg>
