<?xml version="1.0" encoding="UTF-8"?>
<!DOCTYPE svg PUBLIC "-//W3C//DTD SVG 1.1//EN" "http://www.w3.org/Graphics/SVG/1.1/DTD/svg11.dtd">
<svg xmlns="http://www.w3.org/2000/svg" version="1.1" width="289px" height="289px" style="shape-rendering:geometricPrecision; text-rendering:geometricPrecision; image-rendering:optimizeQuality; fill-rule:evenodd; clip-rule:evenodd" xmlns:xlink="http://www.w3.org/1999/xlink">
<g><path style="opacity:1" fill="#fefefe" d="M -0.5,-0.5 C 95.8333,-0.5 192.167,-0.5 288.5,-0.5C 288.5,95.8333 288.5,192.167 288.5,288.5C 192.167,288.5 95.8333,288.5 -0.5,288.5C -0.5,192.167 -0.5,95.8333 -0.5,-0.5 Z"/></g>
<g><path style="opacity:1" fill="#191919" d="M 127.5,51.5 C 151.638,49.1494 169.471,58.4827 181,79.5C 186.869,99.5911 180.703,114.758 162.5,125C 142.995,132.002 123.328,138.502 103.5,144.5C 95.5386,142.753 92.8719,137.92 95.5,130C 92.9745,127.273 92.9745,124.607 95.5,122C 94.2341,121.691 93.0674,121.191 92,120.5C 91.6664,118.153 91.833,115.819 92.5,113.5C 88.3863,113.382 85.7196,111.382 84.5,107.5C 88.5494,102.94 92.0494,97.9396 95,92.5C 95.8377,70.7907 106.671,57.124 127.5,51.5 Z"/></g>
<g><path style="opacity:1" fill="#fafafa" d="M 129.5,53.5 C 149.952,51.9778 165.785,59.6444 177,76.5C 184.397,92.6598 181.563,106.826 168.5,119C 166.33,120.586 163.996,121.92 161.5,123C 143.061,129.054 124.727,135.388 106.5,142C 97.6121,142.262 94.6121,138.095 97.5,129.5C 97.6102,127.626 96.9436,126.126 95.5,125C 98.4171,123.767 101.084,122.267 103.5,120.5C 100.167,119.833 96.8333,119.167 93.5,118.5C 94.5202,116.568 94.6869,114.568 94,112.5C 90.894,111.7 88.394,110.033 86.5,107.5C 91.2913,103.212 95.1246,98.212 98,92.5C 98.549,71.3775 109.049,58.3775 129.5,53.5 Z"/></g>
<g><path style="opacity:1" fill="#171717" d="M 111.5,91.5 C 114.017,93.0771 114.017,94.9104 111.5,97C 106.786,98.4231 104.786,96.9231 105.5,92.5C 108.46,96.7274 110.46,96.394 111.5,91.5 Z"/></g>
<g><path style="opacity:1" fill="#1b1b1b" d="M 141.5,62.5 C 161.006,62.5048 170.506,72.1715 170,91.5C 163.361,109.398 151.194,114.565 133.5,107C 119.69,94.5951 119.024,81.5951 131.5,68C 134.767,65.8703 138.1,64.037 141.5,62.5 Z"/></g>
<g><path style="opacity:1" fill="#f2f2f2" d="M 135.5,98.5 C 142.14,102.495 148.807,102.495 155.5,98.5C 157.316,99.8149 158.983,101.315 160.5,103C 151.465,110.12 142.298,110.287 133,103.5C 133.058,101.565 133.891,99.8979 135.5,98.5 Z"/></g>
<g><path style="opacity:1" fill="#ececec" d="M 141.5,92.5 C 144.747,93.2515 148.081,93.7515 151.5,94C 154.284,96.7841 153.617,98.4508 149.5,99C 146.833,99.6667 144.167,99.6667 141.5,99C 140.09,98.6322 139.09,97.7989 138.5,96.5C 139.524,95.1482 140.524,93.8149 141.5,92.5 Z"/></g>
<g><path style="opacity:1" fill="#f2f2f2" d="M 143.5,80.5 C 151.818,80.9869 153.485,84.4869 148.5,91C 140.088,90.8117 138.421,87.3117 143.5,80.5 Z"/></g>
<g><path style="opacity:1" fill="#e9e9e9" d="M 155.5,78.5 C 159.17,81.1713 160.337,84.8379 159,89.5C 157.512,95.2009 155.346,95.7009 152.5,91C 153.751,87.9532 153.751,84.9532 152.5,82C 153.71,80.9609 154.71,79.7942 155.5,78.5 Z"/></g>
<g><path style="opacity:1" fill="#ececec" d="M 134.5,78.5 C 136.544,79.0312 138.211,80.1978 139.5,82C 138.249,84.9532 138.249,87.9532 139.5,91C 136.654,95.7009 134.488,95.2009 133,89.5C 132.242,85.6434 132.742,81.9767 134.5,78.5 Z"/></g>
<g><path style="opacity:1" fill="#f4f4f4" d="M 161.5,72.5 C 166.17,75.8554 168.17,80.5221 167.5,86.5C 168.114,92.2524 166.281,96.919 162,100.5C 160.04,99.7082 158.54,98.3749 157.5,96.5C 162.306,90.0522 162.64,83.3855 158.5,76.5C 159.524,75.1482 160.524,73.8149 161.5,72.5 Z"/></g>
<g><path style="opacity:1" fill="#eaeaea" d="M 142.5,72.5 C 147.177,72.059 151.177,73.3923 154.5,76.5C 153.52,77.9814 152.353,79.3147 151,80.5C 148.029,78.3662 144.862,78.0328 141.5,79.5C 140.019,78.5197 138.685,77.353 137.5,76C 139.233,74.8111 140.9,73.6444 142.5,72.5 Z"/></g>
<g><path style="opacity:1" fill="#f5f5f5" d="M 129.5,73.5 C 131.384,73.7118 132.717,74.7118 133.5,76.5C 129.27,83.4182 129.603,90.0848 134.5,96.5C 131.326,102.006 128.826,101.673 127,95.5C 124.356,87.656 125.189,80.3227 129.5,73.5 Z"/></g>
<g><path style="opacity:1" fill="#f3f3f3" d="M 139.5,65.5 C 143.846,65.3343 148.179,65.501 152.5,66C 155.621,66.7261 158.287,68.2261 160.5,70.5C 159.5,72.1667 158.167,73.5 156.5,74.5C 149.602,69.2772 142.768,69.2772 136,74.5C 134.647,73.3147 133.48,71.9814 132.5,70.5C 134.724,68.566 137.058,66.8994 139.5,65.5 Z"/></g>
<g><path style="opacity:1" fill="#1b1b1b" d="M 156.5,129.5 C 157.833,129.5 159.167,129.5 160.5,129.5C 160.176,133.555 160.509,137.555 161.5,141.5C 169.844,145.005 177.844,149.005 185.5,153.5C 162.51,154.5 139.51,154.833 116.5,154.5C 116.5,150.833 116.5,147.167 116.5,143.5C 130.122,139.405 143.455,134.738 156.5,129.5 Z"/></g>
<g><path style="opacity:1" fill="#eeeeee" d="M 165.5,151.5 C 153.655,151.828 141.988,151.495 130.5,150.5C 132.435,149.85 134.435,149.517 136.5,149.5C 136.719,148.325 136.386,147.325 135.5,146.5C 129.87,148.324 124.203,149.99 118.5,151.5C 118.083,148.921 118.75,146.754 120.5,145C 133.035,140.321 145.702,136.155 158.5,132.5C 158.664,135.187 158.497,137.854 158,140.5C 156.795,141.071 155.628,141.738 154.5,142.5C 157.961,143.135 161.295,144.135 164.5,145.5C 165.466,147.396 165.799,149.396 165.5,151.5 Z"/></g>
<g><path style="opacity:1" fill="#131313" d="M 143.5,139.5 C 148.796,139.611 150.796,142.111 149.5,147C 153.871,147.172 158.204,147.672 162.5,148.5C 155.858,149.664 149.192,149.831 142.5,149C 139.675,145.476 140.008,142.31 143.5,139.5 Z"/></g>
<g><path style="opacity:1" fill="#e0e0e0" d="M 143.5,142.5 C 147.419,141.746 148.753,143.08 147.5,146.5C 143.134,148.134 141.801,146.801 143.5,142.5 Z"/></g>
<g><path style="opacity:1" fill="#f2f2f2" d="M 176.5,150.5 C 174.052,151.473 171.385,151.806 168.5,151.5C 168.238,150.022 168.571,148.689 169.5,147.5C 171.739,148.788 174.072,149.788 176.5,150.5 Z"/></g>
<g><path style="opacity:1" fill="#6e6e6e" d="M 130.5,150.5 C 141.988,151.495 153.655,151.828 165.5,151.5C 152.673,152.66 139.673,152.827 126.5,152C 127.745,151.209 129.078,150.709 130.5,150.5 Z"/></g>
<g><path style="opacity:1" fill="#6f6f6f" d="M 176.5,150.5 C 177.289,150.783 177.956,151.283 178.5,152C 174.973,152.808 171.64,152.641 168.5,151.5C 171.385,151.806 174.052,151.473 176.5,150.5 Z"/></g>
<g><path style="opacity:1" fill="#000000" d="M 142.5,163.5 C 150.818,163.987 152.485,167.487 147.5,174C 139.088,173.812 137.421,170.312 142.5,163.5 Z"/></g>
<g><path style="opacity:1" fill="#000000" d="M 194.5,163.5 C 196.833,163.5 199.167,163.5 201.5,163.5C 201.5,183.167 201.5,202.833 201.5,222.5C 199.5,222.5 197.5,222.5 195.5,222.5C 195.664,219.813 195.497,217.146 195,214.5C 190.207,222.543 183.373,225.043 174.5,222C 168.447,216.942 165.78,210.442 166.5,202.5C 167.18,184.812 176.18,177.479 193.5,180.5C 194.495,174.872 194.829,169.206 194.5,163.5 Z"/></g>
<g><path style="opacity:1" fill="#000000" d="M 8.5,168.5 C 15.5079,168.334 22.5079,168.5 29.5,169C 42.1305,173.558 44.7972,181.558 37.5,193C 35.3295,194.586 32.9962,195.92 30.5,197C 33.0109,199.179 35.1776,201.679 37,204.5C 39.4329,210.532 42.2662,216.366 45.5,222C 42.4459,222.821 39.4459,222.655 36.5,221.5C 33.6062,214.712 30.4396,208.045 27,201.5C 23.5866,198.986 19.7532,197.986 15.5,198.5C 15.5,206.5 15.5,214.5 15.5,222.5C 13.1667,222.5 10.8333,222.5 8.5,222.5C 8.5,204.5 8.5,186.5 8.5,168.5 Z"/></g>
<g><path style="opacity:1" fill="#000000" d="M 223.5,168.5 C 226.898,168.18 230.232,168.513 233.5,169.5C 239.407,187.054 245.407,204.554 251.5,222C 248.833,222.667 246.167,222.667 243.5,222C 242.167,218.333 240.833,214.667 239.5,211C 231.841,210.5 224.174,210.334 216.5,210.5C 215.5,214.5 214.5,218.5 213.5,222.5C 210.753,222.813 208.086,222.48 205.5,221.5C 211.509,203.805 217.509,186.138 223.5,168.5 Z"/></g>
<g><path style="opacity:1" fill="#000000" d="M 253.5,168.5 C 264.5,168.5 275.5,168.5 286.5,168.5C 286.5,170.5 286.5,172.5 286.5,174.5C 282.167,174.5 277.833,174.5 273.5,174.5C 273.5,188.5 273.5,202.5 273.5,216.5C 277.833,216.5 282.167,216.5 286.5,216.5C 286.5,218.5 286.5,220.5 286.5,222.5C 275.5,222.5 264.5,222.5 253.5,222.5C 253.5,220.5 253.5,218.5 253.5,216.5C 257.833,216.5 262.167,216.5 266.5,216.5C 266.5,202.5 266.5,188.5 266.5,174.5C 262.167,174.5 257.833,174.5 253.5,174.5C 253.5,172.5 253.5,170.5 253.5,168.5 Z"/></g>
<g><path style="opacity:1" fill="#fefffe" d="M 15.5,174.5 C 19.5138,174.334 23.5138,174.501 27.5,175C 31.6796,176.024 33.6796,178.69 33.5,183C 33.4349,187.735 31.1015,190.735 26.5,192C 22.8484,192.499 19.1817,192.665 15.5,192.5C 15.5,186.5 15.5,180.5 15.5,174.5 Z"/></g>
<g><path style="opacity:1" fill="#fefffe" d="M 227.5,174.5 C 230.706,183.945 234.039,193.445 237.5,203C 231.509,203.499 225.509,203.666 219.5,203.5C 222.167,193.833 224.833,184.167 227.5,174.5 Z"/></g>
<g><path style="opacity:1" fill="#000000" d="M 60.5,179.5 C 68.0951,178.358 74.9284,180.025 81,184.5C 81.8624,186.087 82.5291,187.754 83,189.5C 83.4998,200.495 83.6665,211.495 83.5,222.5C 81.5,222.5 79.5,222.5 77.5,222.5C 77.6621,220.473 77.4955,218.473 77,216.5C 69.4909,224.519 61.1576,225.519 52,219.5C 46.8525,208.599 50.0192,201.433 61.5,198C 66.4889,197.501 71.4889,197.334 76.5,197.5C 77.7642,189.267 74.2642,185.267 66,185.5C 61.4598,185.74 57.1265,186.74 53,188.5C 52.1859,186.098 52.3526,183.765 53.5,181.5C 55.9823,180.933 58.3157,180.266 60.5,179.5 Z"/></g>
<g><path style="opacity:1" fill="#000000" d="M 105.5,179.5 C 116.048,178.875 121.881,183.875 123,194.5C 125.624,215.708 116.457,225.042 95.5,222.5C 95.5,228.167 95.5,233.833 95.5,239.5C 93.1667,239.5 90.8333,239.5 88.5,239.5C 88.5,219.833 88.5,200.167 88.5,180.5C 90.5,180.5 92.5,180.5 94.5,180.5C 94.372,182.655 94.872,184.655 96,186.5C 98.529,183.115 101.696,180.782 105.5,179.5 Z"/></g>
<g><path style="opacity:1" fill="#000000" d="M 129.5,180.5 C 136.167,180.5 142.833,180.5 149.5,180.5C 149.5,192.5 149.5,204.5 149.5,216.5C 153.5,216.5 157.5,216.5 161.5,216.5C 161.5,218.5 161.5,220.5 161.5,222.5C 150.5,222.5 139.5,222.5 128.5,222.5C 128.5,220.5 128.5,218.5 128.5,216.5C 133.167,216.5 137.833,216.5 142.5,216.5C 142.5,206.5 142.5,196.5 142.5,186.5C 138.167,186.5 133.833,186.5 129.5,186.5C 129.5,184.5 129.5,182.5 129.5,180.5 Z"/></g>
<g><path style="opacity:1" fill="#fefffe" d="M 105.5,185.5 C 111.908,185.073 115.408,188.073 116,194.5C 116.984,200.705 116.317,206.705 114,212.5C 108.769,217.822 102.769,218.822 96,215.5C 95.3333,208.167 95.3333,200.833 96,193.5C 98.7948,190.189 101.961,187.523 105.5,185.5 Z"/></g>
<g><path style="opacity:1" fill="#fefffe" d="M 182.5,185.5 C 186.546,185.15 190.38,185.817 194,187.5C 194.667,194.5 194.667,201.5 194,208.5C 191.262,213.2 187.262,216.2 182,217.5C 179.594,217.297 177.594,216.297 176,214.5C 172.667,206.5 172.667,198.5 176,190.5C 177.805,188.174 179.972,186.508 182.5,185.5 Z"/></g>
<g><path style="opacity:1" fill="#fefffe" d="M 63.5,203.5 C 67.8333,203.5 72.1667,203.5 76.5,203.5C 77.2873,212.058 73.2873,216.725 64.5,217.5C 57.9081,216.317 56.0748,212.65 59,206.5C 60.4087,205.219 61.9087,204.219 63.5,203.5 Z"/></g>
</svg>
